G04 #@! TF.GenerationSoftware,KiCad,Pcbnew,(5.1.5)-3*
G04 #@! TF.CreationDate,2020-03-10T14:16:06+00:00*
G04 #@! TF.ProjectId,led_board,6c65645f-626f-4617-9264-2e6b69636164,rev?*
G04 #@! TF.SameCoordinates,Original*
G04 #@! TF.FileFunction,Legend,Top*
G04 #@! TF.FilePolarity,Positive*
%FSLAX46Y46*%
G04 Gerber Fmt 4.6, Leading zero omitted, Abs format (unit mm)*
G04 Created by KiCad (PCBNEW (5.1.5)-3) date 2020-03-10 14:16:06*
%MOMM*%
%LPD*%
G04 APERTURE LIST*
%ADD10C,0.200000*%
%ADD11C,0.120000*%
%ADD12C,0.150000*%
%ADD13C,0.100000*%
G04 APERTURE END LIST*
D10*
X100642857Y-66642857D02*
X100642857Y-64642857D01*
X101357142Y-67785714D02*
X102071428Y-65642857D01*
X100214285Y-65642857D01*
X98500000Y-67642857D02*
X98214285Y-67642857D01*
X97928571Y-67500000D01*
X97785714Y-67357142D01*
X97642857Y-67071428D01*
X97500000Y-66500000D01*
X97500000Y-65785714D01*
X97642857Y-65214285D01*
X97785714Y-64928571D01*
X97928571Y-64785714D01*
X98214285Y-64642857D01*
X98500000Y-64642857D01*
X98785714Y-64785714D01*
X98928571Y-64928571D01*
X99071428Y-65214285D01*
X99214285Y-65785714D01*
X99214285Y-66500000D01*
X99071428Y-67071428D01*
X98928571Y-67357142D01*
X98785714Y-67500000D01*
X98500000Y-67642857D01*
X94785714Y-67642857D02*
X96214285Y-67642857D01*
X96357142Y-66214285D01*
X96214285Y-66357142D01*
X95928571Y-66500000D01*
X95214285Y-66500000D01*
X94928571Y-66357142D01*
X94785714Y-66214285D01*
X94642857Y-65928571D01*
X94642857Y-65214285D01*
X94785714Y-64928571D01*
X94928571Y-64785714D01*
X95214285Y-64642857D01*
X95928571Y-64642857D01*
X96214285Y-64785714D01*
X96357142Y-64928571D01*
X93357142Y-66642857D02*
X93357142Y-64642857D01*
X93357142Y-66357142D02*
X93214285Y-66500000D01*
X92928571Y-66642857D01*
X92500000Y-66642857D01*
X92214285Y-66500000D01*
X92071428Y-66214285D01*
X92071428Y-64642857D01*
X90642857Y-64642857D02*
X90642857Y-66642857D01*
X90642857Y-66357142D02*
X90500000Y-66500000D01*
X90214285Y-66642857D01*
X89785714Y-66642857D01*
X89500000Y-66500000D01*
X89357142Y-66214285D01*
X89357142Y-64642857D01*
X89357142Y-66214285D02*
X89214285Y-66500000D01*
X88928571Y-66642857D01*
X88500000Y-66642857D01*
X88214285Y-66500000D01*
X88071428Y-66214285D01*
X88071428Y-64642857D01*
D11*
X54920000Y-56425000D02*
X57025000Y-56425000D01*
X54945000Y-56075000D02*
X57050000Y-56075000D01*
D12*
X131179761Y-119428571D02*
X131179761Y-119904761D01*
X129179761Y-119904761D01*
X130132142Y-119095238D02*
X130132142Y-118761904D01*
X131179761Y-118619047D02*
X131179761Y-119095238D01*
X129179761Y-119095238D01*
X129179761Y-118619047D01*
X131179761Y-118190476D02*
X129179761Y-118190476D01*
X129179761Y-117952380D01*
X129275000Y-117809523D01*
X129465476Y-117714285D01*
X129655952Y-117666666D01*
X130036904Y-117619047D01*
X130322619Y-117619047D01*
X130703571Y-117666666D01*
X130894047Y-117714285D01*
X131084523Y-117809523D01*
X131179761Y-117952380D01*
X131179761Y-118190476D01*
X129179761Y-116571428D02*
X129179761Y-116000000D01*
X131179761Y-116285714D02*
X129179761Y-116285714D01*
X129179761Y-115761904D02*
X131179761Y-115095238D01*
X129179761Y-115095238D02*
X131179761Y-115761904D01*
X130132142Y-113619047D02*
X130227380Y-113476190D01*
X130322619Y-113428571D01*
X130513095Y-113380952D01*
X130798809Y-113380952D01*
X130989285Y-113428571D01*
X131084523Y-113476190D01*
X131179761Y-113571428D01*
X131179761Y-113952380D01*
X129179761Y-113952380D01*
X129179761Y-113619047D01*
X129275000Y-113523809D01*
X129370238Y-113476190D01*
X129560714Y-113428571D01*
X129751190Y-113428571D01*
X129941666Y-113476190D01*
X130036904Y-113523809D01*
X130132142Y-113619047D01*
X130132142Y-113952380D01*
X131179761Y-112809523D02*
X131084523Y-112904761D01*
X130989285Y-112952380D01*
X130798809Y-113000000D01*
X130227380Y-113000000D01*
X130036904Y-112952380D01*
X129941666Y-112904761D01*
X129846428Y-112809523D01*
X129846428Y-112666666D01*
X129941666Y-112571428D01*
X130036904Y-112523809D01*
X130227380Y-112476190D01*
X130798809Y-112476190D01*
X130989285Y-112523809D01*
X131084523Y-112571428D01*
X131179761Y-112666666D01*
X131179761Y-112809523D01*
X131179761Y-111619047D02*
X130132142Y-111619047D01*
X129941666Y-111666666D01*
X129846428Y-111761904D01*
X129846428Y-111952380D01*
X129941666Y-112047619D01*
X131084523Y-111619047D02*
X131179761Y-111714285D01*
X131179761Y-111952380D01*
X131084523Y-112047619D01*
X130894047Y-112095238D01*
X130703571Y-112095238D01*
X130513095Y-112047619D01*
X130417857Y-111952380D01*
X130417857Y-111714285D01*
X130322619Y-111619047D01*
X131179761Y-111142857D02*
X129846428Y-111142857D01*
X130227380Y-111142857D02*
X130036904Y-111095238D01*
X129941666Y-111047619D01*
X129846428Y-110952380D01*
X129846428Y-110857142D01*
X131179761Y-110095238D02*
X129179761Y-110095238D01*
X131084523Y-110095238D02*
X131179761Y-110190476D01*
X131179761Y-110380952D01*
X131084523Y-110476190D01*
X130989285Y-110523809D01*
X130798809Y-110571428D01*
X130227380Y-110571428D01*
X130036904Y-110523809D01*
X129941666Y-110476190D01*
X129846428Y-110380952D01*
X129846428Y-110190476D01*
X129941666Y-110095238D01*
X134329761Y-118595238D02*
X132329761Y-118595238D01*
X134329761Y-118023809D02*
X133186904Y-118452380D01*
X132329761Y-118023809D02*
X133472619Y-118595238D01*
X134329761Y-117595238D02*
X132996428Y-117595238D01*
X132329761Y-117595238D02*
X132425000Y-117642857D01*
X132520238Y-117595238D01*
X132425000Y-117547619D01*
X132329761Y-117595238D01*
X132520238Y-117595238D01*
X132996428Y-117119047D02*
X134329761Y-117119047D01*
X133186904Y-117119047D02*
X133091666Y-117071428D01*
X132996428Y-116976190D01*
X132996428Y-116833333D01*
X133091666Y-116738095D01*
X133282142Y-116690476D01*
X134329761Y-116690476D01*
X132996428Y-115785714D02*
X134615476Y-115785714D01*
X134805952Y-115833333D01*
X134901190Y-115880952D01*
X134996428Y-115976190D01*
X134996428Y-116119047D01*
X134901190Y-116214285D01*
X134234523Y-115785714D02*
X134329761Y-115880952D01*
X134329761Y-116071428D01*
X134234523Y-116166666D01*
X134139285Y-116214285D01*
X133948809Y-116261904D01*
X133377380Y-116261904D01*
X133186904Y-116214285D01*
X133091666Y-116166666D01*
X132996428Y-116071428D01*
X132996428Y-115880952D01*
X133091666Y-115785714D01*
X134329761Y-115309523D02*
X132329761Y-115309523D01*
X133091666Y-115309523D02*
X132996428Y-115214285D01*
X132996428Y-115023809D01*
X133091666Y-114928571D01*
X133186904Y-114880952D01*
X133377380Y-114833333D01*
X133948809Y-114833333D01*
X134139285Y-114880952D01*
X134234523Y-114928571D01*
X134329761Y-115023809D01*
X134329761Y-115214285D01*
X134234523Y-115309523D01*
X134329761Y-114404761D02*
X132996428Y-114404761D01*
X133377380Y-114404761D02*
X133186904Y-114357142D01*
X133091666Y-114309523D01*
X132996428Y-114214285D01*
X132996428Y-114119047D01*
X134329761Y-113785714D02*
X132996428Y-113785714D01*
X132329761Y-113785714D02*
X132425000Y-113833333D01*
X132520238Y-113785714D01*
X132425000Y-113738095D01*
X132329761Y-113785714D01*
X132520238Y-113785714D01*
X132996428Y-112880952D02*
X134615476Y-112880952D01*
X134805952Y-112928571D01*
X134901190Y-112976190D01*
X134996428Y-113071428D01*
X134996428Y-113214285D01*
X134901190Y-113309523D01*
X134234523Y-112880952D02*
X134329761Y-112976190D01*
X134329761Y-113166666D01*
X134234523Y-113261904D01*
X134139285Y-113309523D01*
X133948809Y-113357142D01*
X133377380Y-113357142D01*
X133186904Y-113309523D01*
X133091666Y-113261904D01*
X132996428Y-113166666D01*
X132996428Y-112976190D01*
X133091666Y-112880952D01*
X134329761Y-112404761D02*
X132329761Y-112404761D01*
X134329761Y-111976190D02*
X133282142Y-111976190D01*
X133091666Y-112023809D01*
X132996428Y-112119047D01*
X132996428Y-112261904D01*
X133091666Y-112357142D01*
X133186904Y-112404761D01*
X132996428Y-111642857D02*
X132996428Y-111261904D01*
X132329761Y-111500000D02*
X134044047Y-111500000D01*
X134234523Y-111452380D01*
X134329761Y-111357142D01*
X134329761Y-111261904D01*
X137479761Y-118190476D02*
X137479761Y-118761904D01*
X137479761Y-118476190D02*
X135479761Y-118476190D01*
X135765476Y-118571428D01*
X135955952Y-118666666D01*
X136051190Y-118761904D01*
X135479761Y-117857142D02*
X135479761Y-117190476D01*
X137479761Y-117619047D01*
X135479761Y-116380952D02*
X135479761Y-116571428D01*
X135575000Y-116666666D01*
X135670238Y-116714285D01*
X135955952Y-116809523D01*
X136336904Y-116857142D01*
X137098809Y-116857142D01*
X137289285Y-116809523D01*
X137384523Y-116761904D01*
X137479761Y-116666666D01*
X137479761Y-116476190D01*
X137384523Y-116380952D01*
X137289285Y-116333333D01*
X137098809Y-116285714D01*
X136622619Y-116285714D01*
X136432142Y-116333333D01*
X136336904Y-116380952D01*
X136241666Y-116476190D01*
X136241666Y-116666666D01*
X136336904Y-116761904D01*
X136432142Y-116809523D01*
X136622619Y-116857142D01*
X136717857Y-115857142D02*
X136717857Y-115095238D01*
X135479761Y-114714285D02*
X135479761Y-114095238D01*
X136241666Y-114428571D01*
X136241666Y-114285714D01*
X136336904Y-114190476D01*
X136432142Y-114142857D01*
X136622619Y-114095238D01*
X137098809Y-114095238D01*
X137289285Y-114142857D01*
X137384523Y-114190476D01*
X137479761Y-114285714D01*
X137479761Y-114571428D01*
X137384523Y-114666666D01*
X137289285Y-114714285D01*
X135479761Y-113761904D02*
X135479761Y-113142857D01*
X136241666Y-113476190D01*
X136241666Y-113333333D01*
X136336904Y-113238095D01*
X136432142Y-113190476D01*
X136622619Y-113142857D01*
X137098809Y-113142857D01*
X137289285Y-113190476D01*
X137384523Y-113238095D01*
X137479761Y-113333333D01*
X137479761Y-113619047D01*
X137384523Y-113714285D01*
X137289285Y-113761904D01*
X135670238Y-112761904D02*
X135575000Y-112714285D01*
X135479761Y-112619047D01*
X135479761Y-112380952D01*
X135575000Y-112285714D01*
X135670238Y-112238095D01*
X135860714Y-112190476D01*
X136051190Y-112190476D01*
X136336904Y-112238095D01*
X137479761Y-112809523D01*
X137479761Y-112190476D01*
X135479761Y-111857142D02*
X135479761Y-111238095D01*
X136241666Y-111571428D01*
X136241666Y-111428571D01*
X136336904Y-111333333D01*
X136432142Y-111285714D01*
X136622619Y-111238095D01*
X137098809Y-111238095D01*
X137289285Y-111285714D01*
X137384523Y-111333333D01*
X137479761Y-111428571D01*
X137479761Y-111714285D01*
X137384523Y-111809523D01*
X137289285Y-111857142D01*
X140629761Y-119571428D02*
X140629761Y-120142857D01*
X140629761Y-119857142D02*
X138629761Y-119857142D01*
X138915476Y-119952380D01*
X139105952Y-120047619D01*
X139201190Y-120142857D01*
X138629761Y-119238095D02*
X138629761Y-118619047D01*
X139391666Y-118952380D01*
X139391666Y-118809523D01*
X139486904Y-118714285D01*
X139582142Y-118666666D01*
X139772619Y-118619047D01*
X140248809Y-118619047D01*
X140439285Y-118666666D01*
X140534523Y-118714285D01*
X140629761Y-118809523D01*
X140629761Y-119095238D01*
X140534523Y-119190476D01*
X140439285Y-119238095D01*
X140629761Y-118190476D02*
X139296428Y-118190476D01*
X139486904Y-118190476D02*
X139391666Y-118142857D01*
X139296428Y-118047619D01*
X139296428Y-117904761D01*
X139391666Y-117809523D01*
X139582142Y-117761904D01*
X140629761Y-117761904D01*
X139582142Y-117761904D02*
X139391666Y-117714285D01*
X139296428Y-117619047D01*
X139296428Y-117476190D01*
X139391666Y-117380952D01*
X139582142Y-117333333D01*
X140629761Y-117333333D01*
X138629761Y-116952380D02*
X140629761Y-116714285D01*
X139201190Y-116523809D01*
X140629761Y-116333333D01*
X138629761Y-116095238D01*
X140629761Y-114428571D02*
X140629761Y-115000000D01*
X140629761Y-114714285D02*
X138629761Y-114714285D01*
X138915476Y-114809523D01*
X139105952Y-114904761D01*
X139201190Y-115000000D01*
X138629761Y-113523809D02*
X138629761Y-114000000D01*
X139582142Y-114047619D01*
X139486904Y-114000000D01*
X139391666Y-113904761D01*
X139391666Y-113666666D01*
X139486904Y-113571428D01*
X139582142Y-113523809D01*
X139772619Y-113476190D01*
X140248809Y-113476190D01*
X140439285Y-113523809D01*
X140534523Y-113571428D01*
X140629761Y-113666666D01*
X140629761Y-113904761D01*
X140534523Y-114000000D01*
X140439285Y-114047619D01*
X138629761Y-112857142D02*
X138629761Y-112761904D01*
X138725000Y-112666666D01*
X138820238Y-112619047D01*
X139010714Y-112571428D01*
X139391666Y-112523809D01*
X139867857Y-112523809D01*
X140248809Y-112571428D01*
X140439285Y-112619047D01*
X140534523Y-112666666D01*
X140629761Y-112761904D01*
X140629761Y-112857142D01*
X140534523Y-112952380D01*
X140439285Y-113000000D01*
X140248809Y-113047619D01*
X139867857Y-113095238D01*
X139391666Y-113095238D01*
X139010714Y-113047619D01*
X138820238Y-113000000D01*
X138725000Y-112952380D01*
X138629761Y-112857142D01*
X140629761Y-111666666D02*
X138629761Y-111666666D01*
X140534523Y-111666666D02*
X140629761Y-111761904D01*
X140629761Y-111952380D01*
X140534523Y-112047619D01*
X140439285Y-112095238D01*
X140248809Y-112142857D01*
X139677380Y-112142857D01*
X139486904Y-112095238D01*
X139391666Y-112047619D01*
X139296428Y-111952380D01*
X139296428Y-111761904D01*
X139391666Y-111666666D01*
X140534523Y-110809523D02*
X140629761Y-110904761D01*
X140629761Y-111095238D01*
X140534523Y-111190476D01*
X140344047Y-111238095D01*
X139582142Y-111238095D01*
X139391666Y-111190476D01*
X139296428Y-111095238D01*
X139296428Y-110904761D01*
X139391666Y-110809523D01*
X139582142Y-110761904D01*
X139772619Y-110761904D01*
X139963095Y-111238095D01*
X139296428Y-109904761D02*
X140915476Y-109904761D01*
X141105952Y-109952380D01*
X141201190Y-110000000D01*
X141296428Y-110095238D01*
X141296428Y-110238095D01*
X141201190Y-110333333D01*
X140534523Y-109904761D02*
X140629761Y-110000000D01*
X140629761Y-110190476D01*
X140534523Y-110285714D01*
X140439285Y-110333333D01*
X140248809Y-110380952D01*
X139677380Y-110380952D01*
X139486904Y-110333333D01*
X139391666Y-110285714D01*
X139296428Y-110190476D01*
X139296428Y-110000000D01*
X139391666Y-109904761D01*
X113820238Y-115571428D02*
X113820238Y-115095238D01*
X115820238Y-115095238D01*
X114867857Y-115904761D02*
X114867857Y-116238095D01*
X113820238Y-116380952D02*
X113820238Y-115904761D01*
X115820238Y-115904761D01*
X115820238Y-116380952D01*
X113820238Y-116809523D02*
X115820238Y-116809523D01*
X115820238Y-117047619D01*
X115725000Y-117190476D01*
X115534523Y-117285714D01*
X115344047Y-117333333D01*
X114963095Y-117380952D01*
X114677380Y-117380952D01*
X114296428Y-117333333D01*
X114105952Y-117285714D01*
X113915476Y-117190476D01*
X113820238Y-117047619D01*
X113820238Y-116809523D01*
X115820238Y-118428571D02*
X115820238Y-119000000D01*
X113820238Y-118714285D02*
X115820238Y-118714285D01*
X115820238Y-119238095D02*
X113820238Y-119904761D01*
X115820238Y-119904761D02*
X113820238Y-119238095D01*
X114867857Y-121380952D02*
X114772619Y-121523809D01*
X114677380Y-121571428D01*
X114486904Y-121619047D01*
X114201190Y-121619047D01*
X114010714Y-121571428D01*
X113915476Y-121523809D01*
X113820238Y-121428571D01*
X113820238Y-121047619D01*
X115820238Y-121047619D01*
X115820238Y-121380952D01*
X115725000Y-121476190D01*
X115629761Y-121523809D01*
X115439285Y-121571428D01*
X115248809Y-121571428D01*
X115058333Y-121523809D01*
X114963095Y-121476190D01*
X114867857Y-121380952D01*
X114867857Y-121047619D01*
X113820238Y-122190476D02*
X113915476Y-122095238D01*
X114010714Y-122047619D01*
X114201190Y-122000000D01*
X114772619Y-122000000D01*
X114963095Y-122047619D01*
X115058333Y-122095238D01*
X115153571Y-122190476D01*
X115153571Y-122333333D01*
X115058333Y-122428571D01*
X114963095Y-122476190D01*
X114772619Y-122523809D01*
X114201190Y-122523809D01*
X114010714Y-122476190D01*
X113915476Y-122428571D01*
X113820238Y-122333333D01*
X113820238Y-122190476D01*
X113820238Y-123380952D02*
X114867857Y-123380952D01*
X115058333Y-123333333D01*
X115153571Y-123238095D01*
X115153571Y-123047619D01*
X115058333Y-122952380D01*
X113915476Y-123380952D02*
X113820238Y-123285714D01*
X113820238Y-123047619D01*
X113915476Y-122952380D01*
X114105952Y-122904761D01*
X114296428Y-122904761D01*
X114486904Y-122952380D01*
X114582142Y-123047619D01*
X114582142Y-123285714D01*
X114677380Y-123380952D01*
X113820238Y-123857142D02*
X115153571Y-123857142D01*
X114772619Y-123857142D02*
X114963095Y-123904761D01*
X115058333Y-123952380D01*
X115153571Y-124047619D01*
X115153571Y-124142857D01*
X113820238Y-124904761D02*
X115820238Y-124904761D01*
X113915476Y-124904761D02*
X113820238Y-124809523D01*
X113820238Y-124619047D01*
X113915476Y-124523809D01*
X114010714Y-124476190D01*
X114201190Y-124428571D01*
X114772619Y-124428571D01*
X114963095Y-124476190D01*
X115058333Y-124523809D01*
X115153571Y-124619047D01*
X115153571Y-124809523D01*
X115058333Y-124904761D01*
X111717857Y-116190476D02*
X111622619Y-116333333D01*
X111527380Y-116380952D01*
X111336904Y-116428571D01*
X111051190Y-116428571D01*
X110860714Y-116380952D01*
X110765476Y-116333333D01*
X110670238Y-116238095D01*
X110670238Y-115857142D01*
X112670238Y-115857142D01*
X112670238Y-116190476D01*
X112575000Y-116285714D01*
X112479761Y-116333333D01*
X112289285Y-116380952D01*
X112098809Y-116380952D01*
X111908333Y-116333333D01*
X111813095Y-116285714D01*
X111717857Y-116190476D01*
X111717857Y-115857142D01*
X110670238Y-116857142D02*
X112670238Y-116857142D01*
X112670238Y-117190476D02*
X110670238Y-117523809D01*
X112670238Y-117857142D01*
X111241666Y-118142857D02*
X111241666Y-118619047D01*
X110670238Y-118047619D02*
X112670238Y-118380952D01*
X110670238Y-118714285D01*
X110670238Y-119619047D02*
X111622619Y-119285714D01*
X110670238Y-119047619D02*
X112670238Y-119047619D01*
X112670238Y-119428571D01*
X112575000Y-119523809D01*
X112479761Y-119571428D01*
X112289285Y-119619047D01*
X112003571Y-119619047D01*
X111813095Y-119571428D01*
X111717857Y-119523809D01*
X111622619Y-119428571D01*
X111622619Y-119047619D01*
X110670238Y-121333333D02*
X110670238Y-120761904D01*
X110670238Y-121047619D02*
X112670238Y-121047619D01*
X112384523Y-120952380D01*
X112194047Y-120857142D01*
X112098809Y-120761904D01*
X112479761Y-121714285D02*
X112575000Y-121761904D01*
X112670238Y-121857142D01*
X112670238Y-122095238D01*
X112575000Y-122190476D01*
X112479761Y-122238095D01*
X112289285Y-122285714D01*
X112098809Y-122285714D01*
X111813095Y-122238095D01*
X110670238Y-121666666D01*
X110670238Y-122285714D01*
X112670238Y-122904761D02*
X112670238Y-123000000D01*
X112575000Y-123095238D01*
X112479761Y-123142857D01*
X112289285Y-123190476D01*
X111908333Y-123238095D01*
X111432142Y-123238095D01*
X111051190Y-123190476D01*
X110860714Y-123142857D01*
X110765476Y-123095238D01*
X110670238Y-123000000D01*
X110670238Y-122904761D01*
X110765476Y-122809523D01*
X110860714Y-122761904D01*
X111051190Y-122714285D01*
X111432142Y-122666666D01*
X111908333Y-122666666D01*
X112289285Y-122714285D01*
X112479761Y-122761904D01*
X112575000Y-122809523D01*
X112670238Y-122904761D01*
X112670238Y-124095238D02*
X112670238Y-123904761D01*
X112575000Y-123809523D01*
X112479761Y-123761904D01*
X112194047Y-123666666D01*
X111813095Y-123619047D01*
X111051190Y-123619047D01*
X110860714Y-123666666D01*
X110765476Y-123714285D01*
X110670238Y-123809523D01*
X110670238Y-124000000D01*
X110765476Y-124095238D01*
X110860714Y-124142857D01*
X111051190Y-124190476D01*
X111527380Y-124190476D01*
X111717857Y-124142857D01*
X111813095Y-124095238D01*
X111908333Y-124000000D01*
X111908333Y-123809523D01*
X111813095Y-123714285D01*
X111717857Y-123666666D01*
X111527380Y-123619047D01*
X107520238Y-116809523D02*
X107520238Y-116238095D01*
X107520238Y-116523809D02*
X109520238Y-116523809D01*
X109234523Y-116428571D01*
X109044047Y-116333333D01*
X108948809Y-116238095D01*
X109520238Y-117142857D02*
X109520238Y-117809523D01*
X107520238Y-117380952D01*
X108853571Y-118619047D02*
X107520238Y-118619047D01*
X109615476Y-118380952D02*
X108186904Y-118142857D01*
X108186904Y-118761904D01*
X108282142Y-119142857D02*
X108282142Y-119904761D01*
X107520238Y-120428571D02*
X107520238Y-120619047D01*
X107615476Y-120714285D01*
X107710714Y-120761904D01*
X107996428Y-120857142D01*
X108377380Y-120904761D01*
X109139285Y-120904761D01*
X109329761Y-120857142D01*
X109425000Y-120809523D01*
X109520238Y-120714285D01*
X109520238Y-120523809D01*
X109425000Y-120428571D01*
X109329761Y-120380952D01*
X109139285Y-120333333D01*
X108663095Y-120333333D01*
X108472619Y-120380952D01*
X108377380Y-120428571D01*
X108282142Y-120523809D01*
X108282142Y-120714285D01*
X108377380Y-120809523D01*
X108472619Y-120857142D01*
X108663095Y-120904761D01*
X108663095Y-121476190D02*
X108758333Y-121380952D01*
X108853571Y-121333333D01*
X109044047Y-121285714D01*
X109139285Y-121285714D01*
X109329761Y-121333333D01*
X109425000Y-121380952D01*
X109520238Y-121476190D01*
X109520238Y-121666666D01*
X109425000Y-121761904D01*
X109329761Y-121809523D01*
X109139285Y-121857142D01*
X109044047Y-121857142D01*
X108853571Y-121809523D01*
X108758333Y-121761904D01*
X108663095Y-121666666D01*
X108663095Y-121476190D01*
X108567857Y-121380952D01*
X108472619Y-121333333D01*
X108282142Y-121285714D01*
X107901190Y-121285714D01*
X107710714Y-121333333D01*
X107615476Y-121380952D01*
X107520238Y-121476190D01*
X107520238Y-121666666D01*
X107615476Y-121761904D01*
X107710714Y-121809523D01*
X107901190Y-121857142D01*
X108282142Y-121857142D01*
X108472619Y-121809523D01*
X108567857Y-121761904D01*
X108663095Y-121666666D01*
X109520238Y-122714285D02*
X109520238Y-122523809D01*
X109425000Y-122428571D01*
X109329761Y-122380952D01*
X109044047Y-122285714D01*
X108663095Y-122238095D01*
X107901190Y-122238095D01*
X107710714Y-122285714D01*
X107615476Y-122333333D01*
X107520238Y-122428571D01*
X107520238Y-122619047D01*
X107615476Y-122714285D01*
X107710714Y-122761904D01*
X107901190Y-122809523D01*
X108377380Y-122809523D01*
X108567857Y-122761904D01*
X108663095Y-122714285D01*
X108758333Y-122619047D01*
X108758333Y-122428571D01*
X108663095Y-122333333D01*
X108567857Y-122285714D01*
X108377380Y-122238095D01*
X108853571Y-123666666D02*
X107520238Y-123666666D01*
X109615476Y-123428571D02*
X108186904Y-123190476D01*
X108186904Y-123809523D01*
X104370238Y-118333333D02*
X104370238Y-117761904D01*
X104370238Y-118047619D02*
X106370238Y-118047619D01*
X106084523Y-117952380D01*
X105894047Y-117857142D01*
X105798809Y-117761904D01*
X104560714Y-118761904D02*
X104465476Y-118809523D01*
X104370238Y-118761904D01*
X104465476Y-118714285D01*
X104560714Y-118761904D01*
X104370238Y-118761904D01*
X106179761Y-119190476D02*
X106275000Y-119238095D01*
X106370238Y-119333333D01*
X106370238Y-119571428D01*
X106275000Y-119666666D01*
X106179761Y-119714285D01*
X105989285Y-119761904D01*
X105798809Y-119761904D01*
X105513095Y-119714285D01*
X104370238Y-119142857D01*
X104370238Y-119761904D01*
X104370238Y-120190476D02*
X105703571Y-120190476D01*
X105513095Y-120190476D02*
X105608333Y-120238095D01*
X105703571Y-120333333D01*
X105703571Y-120476190D01*
X105608333Y-120571428D01*
X105417857Y-120619047D01*
X104370238Y-120619047D01*
X105417857Y-120619047D02*
X105608333Y-120666666D01*
X105703571Y-120761904D01*
X105703571Y-120904761D01*
X105608333Y-121000000D01*
X105417857Y-121047619D01*
X104370238Y-121047619D01*
X106370238Y-121428571D02*
X104370238Y-121666666D01*
X105798809Y-121857142D01*
X104370238Y-122047619D01*
X106370238Y-122285714D01*
X36179761Y-119428571D02*
X36179761Y-119904761D01*
X34179761Y-119904761D01*
X35132142Y-119095238D02*
X35132142Y-118761904D01*
X36179761Y-118619047D02*
X36179761Y-119095238D01*
X34179761Y-119095238D01*
X34179761Y-118619047D01*
X36179761Y-118190476D02*
X34179761Y-118190476D01*
X34179761Y-117952380D01*
X34275000Y-117809523D01*
X34465476Y-117714285D01*
X34655952Y-117666666D01*
X35036904Y-117619047D01*
X35322619Y-117619047D01*
X35703571Y-117666666D01*
X35894047Y-117714285D01*
X36084523Y-117809523D01*
X36179761Y-117952380D01*
X36179761Y-118190476D01*
X34179761Y-116571428D02*
X34179761Y-116000000D01*
X36179761Y-116285714D02*
X34179761Y-116285714D01*
X34179761Y-115761904D02*
X36179761Y-115095238D01*
X34179761Y-115095238D02*
X36179761Y-115761904D01*
X35132142Y-113619047D02*
X35227380Y-113476190D01*
X35322619Y-113428571D01*
X35513095Y-113380952D01*
X35798809Y-113380952D01*
X35989285Y-113428571D01*
X36084523Y-113476190D01*
X36179761Y-113571428D01*
X36179761Y-113952380D01*
X34179761Y-113952380D01*
X34179761Y-113619047D01*
X34275000Y-113523809D01*
X34370238Y-113476190D01*
X34560714Y-113428571D01*
X34751190Y-113428571D01*
X34941666Y-113476190D01*
X35036904Y-113523809D01*
X35132142Y-113619047D01*
X35132142Y-113952380D01*
X36179761Y-112809523D02*
X36084523Y-112904761D01*
X35989285Y-112952380D01*
X35798809Y-113000000D01*
X35227380Y-113000000D01*
X35036904Y-112952380D01*
X34941666Y-112904761D01*
X34846428Y-112809523D01*
X34846428Y-112666666D01*
X34941666Y-112571428D01*
X35036904Y-112523809D01*
X35227380Y-112476190D01*
X35798809Y-112476190D01*
X35989285Y-112523809D01*
X36084523Y-112571428D01*
X36179761Y-112666666D01*
X36179761Y-112809523D01*
X36179761Y-111619047D02*
X35132142Y-111619047D01*
X34941666Y-111666666D01*
X34846428Y-111761904D01*
X34846428Y-111952380D01*
X34941666Y-112047619D01*
X36084523Y-111619047D02*
X36179761Y-111714285D01*
X36179761Y-111952380D01*
X36084523Y-112047619D01*
X35894047Y-112095238D01*
X35703571Y-112095238D01*
X35513095Y-112047619D01*
X35417857Y-111952380D01*
X35417857Y-111714285D01*
X35322619Y-111619047D01*
X36179761Y-111142857D02*
X34846428Y-111142857D01*
X35227380Y-111142857D02*
X35036904Y-111095238D01*
X34941666Y-111047619D01*
X34846428Y-110952380D01*
X34846428Y-110857142D01*
X36179761Y-110095238D02*
X34179761Y-110095238D01*
X36084523Y-110095238D02*
X36179761Y-110190476D01*
X36179761Y-110380952D01*
X36084523Y-110476190D01*
X35989285Y-110523809D01*
X35798809Y-110571428D01*
X35227380Y-110571428D01*
X35036904Y-110523809D01*
X34941666Y-110476190D01*
X34846428Y-110380952D01*
X34846428Y-110190476D01*
X34941666Y-110095238D01*
X38282142Y-118809523D02*
X38377380Y-118666666D01*
X38472619Y-118619047D01*
X38663095Y-118571428D01*
X38948809Y-118571428D01*
X39139285Y-118619047D01*
X39234523Y-118666666D01*
X39329761Y-118761904D01*
X39329761Y-119142857D01*
X37329761Y-119142857D01*
X37329761Y-118809523D01*
X37425000Y-118714285D01*
X37520238Y-118666666D01*
X37710714Y-118619047D01*
X37901190Y-118619047D01*
X38091666Y-118666666D01*
X38186904Y-118714285D01*
X38282142Y-118809523D01*
X38282142Y-119142857D01*
X39329761Y-118142857D02*
X37329761Y-118142857D01*
X37329761Y-117809523D02*
X39329761Y-117476190D01*
X37329761Y-117142857D01*
X38758333Y-116857142D02*
X38758333Y-116380952D01*
X39329761Y-116952380D02*
X37329761Y-116619047D01*
X39329761Y-116285714D01*
X39329761Y-115380952D02*
X38377380Y-115714285D01*
X39329761Y-115952380D02*
X37329761Y-115952380D01*
X37329761Y-115571428D01*
X37425000Y-115476190D01*
X37520238Y-115428571D01*
X37710714Y-115380952D01*
X37996428Y-115380952D01*
X38186904Y-115428571D01*
X38282142Y-115476190D01*
X38377380Y-115571428D01*
X38377380Y-115952380D01*
X37329761Y-114000000D02*
X37329761Y-113904761D01*
X37425000Y-113809523D01*
X37520238Y-113761904D01*
X37710714Y-113714285D01*
X38091666Y-113666666D01*
X38567857Y-113666666D01*
X38948809Y-113714285D01*
X39139285Y-113761904D01*
X39234523Y-113809523D01*
X39329761Y-113904761D01*
X39329761Y-114000000D01*
X39234523Y-114095238D01*
X39139285Y-114142857D01*
X38948809Y-114190476D01*
X38567857Y-114238095D01*
X38091666Y-114238095D01*
X37710714Y-114190476D01*
X37520238Y-114142857D01*
X37425000Y-114095238D01*
X37329761Y-114000000D01*
X37329761Y-112809523D02*
X37329761Y-113000000D01*
X37425000Y-113095238D01*
X37520238Y-113142857D01*
X37805952Y-113238095D01*
X38186904Y-113285714D01*
X38948809Y-113285714D01*
X39139285Y-113238095D01*
X39234523Y-113190476D01*
X39329761Y-113095238D01*
X39329761Y-112904761D01*
X39234523Y-112809523D01*
X39139285Y-112761904D01*
X38948809Y-112714285D01*
X38472619Y-112714285D01*
X38282142Y-112761904D01*
X38186904Y-112809523D01*
X38091666Y-112904761D01*
X38091666Y-113095238D01*
X38186904Y-113190476D01*
X38282142Y-113238095D01*
X38472619Y-113285714D01*
X37329761Y-112095238D02*
X37329761Y-112000000D01*
X37425000Y-111904761D01*
X37520238Y-111857142D01*
X37710714Y-111809523D01*
X38091666Y-111761904D01*
X38567857Y-111761904D01*
X38948809Y-111809523D01*
X39139285Y-111857142D01*
X39234523Y-111904761D01*
X39329761Y-112000000D01*
X39329761Y-112095238D01*
X39234523Y-112190476D01*
X39139285Y-112238095D01*
X38948809Y-112285714D01*
X38567857Y-112333333D01*
X38091666Y-112333333D01*
X37710714Y-112285714D01*
X37520238Y-112238095D01*
X37425000Y-112190476D01*
X37329761Y-112095238D01*
X37329761Y-111428571D02*
X37329761Y-110809523D01*
X38091666Y-111142857D01*
X38091666Y-111000000D01*
X38186904Y-110904761D01*
X38282142Y-110857142D01*
X38472619Y-110809523D01*
X38948809Y-110809523D01*
X39139285Y-110857142D01*
X39234523Y-110904761D01*
X39329761Y-111000000D01*
X39329761Y-111285714D01*
X39234523Y-111380952D01*
X39139285Y-111428571D01*
X42479761Y-118190476D02*
X42479761Y-118761904D01*
X42479761Y-118476190D02*
X40479761Y-118476190D01*
X40765476Y-118571428D01*
X40955952Y-118666666D01*
X41051190Y-118761904D01*
X40479761Y-117857142D02*
X40479761Y-117190476D01*
X42479761Y-117619047D01*
X41146428Y-116380952D02*
X42479761Y-116380952D01*
X40384523Y-116619047D02*
X41813095Y-116857142D01*
X41813095Y-116238095D01*
X41717857Y-115857142D02*
X41717857Y-115095238D01*
X42479761Y-114571428D02*
X42479761Y-114380952D01*
X42384523Y-114285714D01*
X42289285Y-114238095D01*
X42003571Y-114142857D01*
X41622619Y-114095238D01*
X40860714Y-114095238D01*
X40670238Y-114142857D01*
X40575000Y-114190476D01*
X40479761Y-114285714D01*
X40479761Y-114476190D01*
X40575000Y-114571428D01*
X40670238Y-114619047D01*
X40860714Y-114666666D01*
X41336904Y-114666666D01*
X41527380Y-114619047D01*
X41622619Y-114571428D01*
X41717857Y-114476190D01*
X41717857Y-114285714D01*
X41622619Y-114190476D01*
X41527380Y-114142857D01*
X41336904Y-114095238D01*
X41336904Y-113523809D02*
X41241666Y-113619047D01*
X41146428Y-113666666D01*
X40955952Y-113714285D01*
X40860714Y-113714285D01*
X40670238Y-113666666D01*
X40575000Y-113619047D01*
X40479761Y-113523809D01*
X40479761Y-113333333D01*
X40575000Y-113238095D01*
X40670238Y-113190476D01*
X40860714Y-113142857D01*
X40955952Y-113142857D01*
X41146428Y-113190476D01*
X41241666Y-113238095D01*
X41336904Y-113333333D01*
X41336904Y-113523809D01*
X41432142Y-113619047D01*
X41527380Y-113666666D01*
X41717857Y-113714285D01*
X42098809Y-113714285D01*
X42289285Y-113666666D01*
X42384523Y-113619047D01*
X42479761Y-113523809D01*
X42479761Y-113333333D01*
X42384523Y-113238095D01*
X42289285Y-113190476D01*
X42098809Y-113142857D01*
X41717857Y-113142857D01*
X41527380Y-113190476D01*
X41432142Y-113238095D01*
X41336904Y-113333333D01*
X40670238Y-112761904D02*
X40575000Y-112714285D01*
X40479761Y-112619047D01*
X40479761Y-112380952D01*
X40575000Y-112285714D01*
X40670238Y-112238095D01*
X40860714Y-112190476D01*
X41051190Y-112190476D01*
X41336904Y-112238095D01*
X42479761Y-112809523D01*
X42479761Y-112190476D01*
X41146428Y-111333333D02*
X42479761Y-111333333D01*
X40384523Y-111571428D02*
X41813095Y-111809523D01*
X41813095Y-111190476D01*
X45629761Y-116428571D02*
X45629761Y-117000000D01*
X45629761Y-116714285D02*
X43629761Y-116714285D01*
X43915476Y-116809523D01*
X44105952Y-116904761D01*
X44201190Y-117000000D01*
X43629761Y-115809523D02*
X43629761Y-115714285D01*
X43725000Y-115619047D01*
X43820238Y-115571428D01*
X44010714Y-115523809D01*
X44391666Y-115476190D01*
X44867857Y-115476190D01*
X45248809Y-115523809D01*
X45439285Y-115571428D01*
X45534523Y-115619047D01*
X45629761Y-115714285D01*
X45629761Y-115809523D01*
X45534523Y-115904761D01*
X45439285Y-115952380D01*
X45248809Y-116000000D01*
X44867857Y-116047619D01*
X44391666Y-116047619D01*
X44010714Y-116000000D01*
X43820238Y-115952380D01*
X43725000Y-115904761D01*
X43629761Y-115809523D01*
X45629761Y-115047619D02*
X44296428Y-115047619D01*
X44486904Y-115047619D02*
X44391666Y-115000000D01*
X44296428Y-114904761D01*
X44296428Y-114761904D01*
X44391666Y-114666666D01*
X44582142Y-114619047D01*
X45629761Y-114619047D01*
X44582142Y-114619047D02*
X44391666Y-114571428D01*
X44296428Y-114476190D01*
X44296428Y-114333333D01*
X44391666Y-114238095D01*
X44582142Y-114190476D01*
X45629761Y-114190476D01*
X43629761Y-113809523D02*
X45629761Y-113571428D01*
X44201190Y-113380952D01*
X45629761Y-113190476D01*
X43629761Y-112952380D01*
D11*
X54895000Y-55725000D02*
X57000000Y-55725000D01*
D10*
X49357142Y-108357142D02*
X49357142Y-110357142D01*
X48642857Y-107214285D02*
X47928571Y-109357142D01*
X49785714Y-109357142D01*
X51500000Y-107357142D02*
X51785714Y-107357142D01*
X52071428Y-107500000D01*
X52214285Y-107642857D01*
X52357142Y-107928571D01*
X52500000Y-108500000D01*
X52500000Y-109214285D01*
X52357142Y-109785714D01*
X52214285Y-110071428D01*
X52071428Y-110214285D01*
X51785714Y-110357142D01*
X51500000Y-110357142D01*
X51214285Y-110214285D01*
X51071428Y-110071428D01*
X50928571Y-109785714D01*
X50785714Y-109214285D01*
X50785714Y-108500000D01*
X50928571Y-107928571D01*
X51071428Y-107642857D01*
X51214285Y-107500000D01*
X51500000Y-107357142D01*
X55214285Y-107357142D02*
X53785714Y-107357142D01*
X53642857Y-108785714D01*
X53785714Y-108642857D01*
X54071428Y-108500000D01*
X54785714Y-108500000D01*
X55071428Y-108642857D01*
X55214285Y-108785714D01*
X55357142Y-109071428D01*
X55357142Y-109785714D01*
X55214285Y-110071428D01*
X55071428Y-110214285D01*
X54785714Y-110357142D01*
X54071428Y-110357142D01*
X53785714Y-110214285D01*
X53642857Y-110071428D01*
X56642857Y-108357142D02*
X56642857Y-110357142D01*
X56642857Y-108642857D02*
X56785714Y-108500000D01*
X57071428Y-108357142D01*
X57500000Y-108357142D01*
X57785714Y-108500000D01*
X57928571Y-108785714D01*
X57928571Y-110357142D01*
X59357142Y-110357142D02*
X59357142Y-108357142D01*
X59357142Y-108642857D02*
X59500000Y-108500000D01*
X59785714Y-108357142D01*
X60214285Y-108357142D01*
X60500000Y-108500000D01*
X60642857Y-108785714D01*
X60642857Y-110357142D01*
X60642857Y-108785714D02*
X60785714Y-108500000D01*
X61071428Y-108357142D01*
X61500000Y-108357142D01*
X61785714Y-108500000D01*
X61928571Y-108785714D01*
X61928571Y-110357142D01*
X100642857Y-126642857D02*
X100642857Y-124642857D01*
X101357142Y-127785714D02*
X102071428Y-125642857D01*
X100214285Y-125642857D01*
X98500000Y-127642857D02*
X98214285Y-127642857D01*
X97928571Y-127500000D01*
X97785714Y-127357142D01*
X97642857Y-127071428D01*
X97500000Y-126500000D01*
X97500000Y-125785714D01*
X97642857Y-125214285D01*
X97785714Y-124928571D01*
X97928571Y-124785714D01*
X98214285Y-124642857D01*
X98500000Y-124642857D01*
X98785714Y-124785714D01*
X98928571Y-124928571D01*
X99071428Y-125214285D01*
X99214285Y-125785714D01*
X99214285Y-126500000D01*
X99071428Y-127071428D01*
X98928571Y-127357142D01*
X98785714Y-127500000D01*
X98500000Y-127642857D01*
X94785714Y-127642857D02*
X96214285Y-127642857D01*
X96357142Y-126214285D01*
X96214285Y-126357142D01*
X95928571Y-126500000D01*
X95214285Y-126500000D01*
X94928571Y-126357142D01*
X94785714Y-126214285D01*
X94642857Y-125928571D01*
X94642857Y-125214285D01*
X94785714Y-124928571D01*
X94928571Y-124785714D01*
X95214285Y-124642857D01*
X95928571Y-124642857D01*
X96214285Y-124785714D01*
X96357142Y-124928571D01*
X93357142Y-126642857D02*
X93357142Y-124642857D01*
X93357142Y-126357142D02*
X93214285Y-126500000D01*
X92928571Y-126642857D01*
X92500000Y-126642857D01*
X92214285Y-126500000D01*
X92071428Y-126214285D01*
X92071428Y-124642857D01*
X90642857Y-124642857D02*
X90642857Y-126642857D01*
X90642857Y-126357142D02*
X90500000Y-126500000D01*
X90214285Y-126642857D01*
X89785714Y-126642857D01*
X89500000Y-126500000D01*
X89357142Y-126214285D01*
X89357142Y-124642857D01*
X89357142Y-126214285D02*
X89214285Y-126500000D01*
X88928571Y-126642857D01*
X88500000Y-126642857D01*
X88214285Y-126500000D01*
X88071428Y-126214285D01*
X88071428Y-124642857D01*
D12*
X131179761Y-59428571D02*
X131179761Y-59904761D01*
X129179761Y-59904761D01*
X130132142Y-59095238D02*
X130132142Y-58761904D01*
X131179761Y-58619047D02*
X131179761Y-59095238D01*
X129179761Y-59095238D01*
X129179761Y-58619047D01*
X131179761Y-58190476D02*
X129179761Y-58190476D01*
X129179761Y-57952380D01*
X129275000Y-57809523D01*
X129465476Y-57714285D01*
X129655952Y-57666666D01*
X130036904Y-57619047D01*
X130322619Y-57619047D01*
X130703571Y-57666666D01*
X130894047Y-57714285D01*
X131084523Y-57809523D01*
X131179761Y-57952380D01*
X131179761Y-58190476D01*
X129179761Y-56571428D02*
X129179761Y-56000000D01*
X131179761Y-56285714D02*
X129179761Y-56285714D01*
X129179761Y-55761904D02*
X131179761Y-55095238D01*
X129179761Y-55095238D02*
X131179761Y-55761904D01*
X130132142Y-53619047D02*
X130227380Y-53476190D01*
X130322619Y-53428571D01*
X130513095Y-53380952D01*
X130798809Y-53380952D01*
X130989285Y-53428571D01*
X131084523Y-53476190D01*
X131179761Y-53571428D01*
X131179761Y-53952380D01*
X129179761Y-53952380D01*
X129179761Y-53619047D01*
X129275000Y-53523809D01*
X129370238Y-53476190D01*
X129560714Y-53428571D01*
X129751190Y-53428571D01*
X129941666Y-53476190D01*
X130036904Y-53523809D01*
X130132142Y-53619047D01*
X130132142Y-53952380D01*
X131179761Y-52809523D02*
X131084523Y-52904761D01*
X130989285Y-52952380D01*
X130798809Y-53000000D01*
X130227380Y-53000000D01*
X130036904Y-52952380D01*
X129941666Y-52904761D01*
X129846428Y-52809523D01*
X129846428Y-52666666D01*
X129941666Y-52571428D01*
X130036904Y-52523809D01*
X130227380Y-52476190D01*
X130798809Y-52476190D01*
X130989285Y-52523809D01*
X131084523Y-52571428D01*
X131179761Y-52666666D01*
X131179761Y-52809523D01*
X131179761Y-51619047D02*
X130132142Y-51619047D01*
X129941666Y-51666666D01*
X129846428Y-51761904D01*
X129846428Y-51952380D01*
X129941666Y-52047619D01*
X131084523Y-51619047D02*
X131179761Y-51714285D01*
X131179761Y-51952380D01*
X131084523Y-52047619D01*
X130894047Y-52095238D01*
X130703571Y-52095238D01*
X130513095Y-52047619D01*
X130417857Y-51952380D01*
X130417857Y-51714285D01*
X130322619Y-51619047D01*
X131179761Y-51142857D02*
X129846428Y-51142857D01*
X130227380Y-51142857D02*
X130036904Y-51095238D01*
X129941666Y-51047619D01*
X129846428Y-50952380D01*
X129846428Y-50857142D01*
X131179761Y-50095238D02*
X129179761Y-50095238D01*
X131084523Y-50095238D02*
X131179761Y-50190476D01*
X131179761Y-50380952D01*
X131084523Y-50476190D01*
X130989285Y-50523809D01*
X130798809Y-50571428D01*
X130227380Y-50571428D01*
X130036904Y-50523809D01*
X129941666Y-50476190D01*
X129846428Y-50380952D01*
X129846428Y-50190476D01*
X129941666Y-50095238D01*
X134329761Y-58595238D02*
X132329761Y-58595238D01*
X134329761Y-58023809D02*
X133186904Y-58452380D01*
X132329761Y-58023809D02*
X133472619Y-58595238D01*
X134329761Y-57595238D02*
X132996428Y-57595238D01*
X132329761Y-57595238D02*
X132425000Y-57642857D01*
X132520238Y-57595238D01*
X132425000Y-57547619D01*
X132329761Y-57595238D01*
X132520238Y-57595238D01*
X132996428Y-57119047D02*
X134329761Y-57119047D01*
X133186904Y-57119047D02*
X133091666Y-57071428D01*
X132996428Y-56976190D01*
X132996428Y-56833333D01*
X133091666Y-56738095D01*
X133282142Y-56690476D01*
X134329761Y-56690476D01*
X132996428Y-55785714D02*
X134615476Y-55785714D01*
X134805952Y-55833333D01*
X134901190Y-55880952D01*
X134996428Y-55976190D01*
X134996428Y-56119047D01*
X134901190Y-56214285D01*
X134234523Y-55785714D02*
X134329761Y-55880952D01*
X134329761Y-56071428D01*
X134234523Y-56166666D01*
X134139285Y-56214285D01*
X133948809Y-56261904D01*
X133377380Y-56261904D01*
X133186904Y-56214285D01*
X133091666Y-56166666D01*
X132996428Y-56071428D01*
X132996428Y-55880952D01*
X133091666Y-55785714D01*
X134329761Y-55309523D02*
X132329761Y-55309523D01*
X133091666Y-55309523D02*
X132996428Y-55214285D01*
X132996428Y-55023809D01*
X133091666Y-54928571D01*
X133186904Y-54880952D01*
X133377380Y-54833333D01*
X133948809Y-54833333D01*
X134139285Y-54880952D01*
X134234523Y-54928571D01*
X134329761Y-55023809D01*
X134329761Y-55214285D01*
X134234523Y-55309523D01*
X134329761Y-54404761D02*
X132996428Y-54404761D01*
X133377380Y-54404761D02*
X133186904Y-54357142D01*
X133091666Y-54309523D01*
X132996428Y-54214285D01*
X132996428Y-54119047D01*
X134329761Y-53785714D02*
X132996428Y-53785714D01*
X132329761Y-53785714D02*
X132425000Y-53833333D01*
X132520238Y-53785714D01*
X132425000Y-53738095D01*
X132329761Y-53785714D01*
X132520238Y-53785714D01*
X132996428Y-52880952D02*
X134615476Y-52880952D01*
X134805952Y-52928571D01*
X134901190Y-52976190D01*
X134996428Y-53071428D01*
X134996428Y-53214285D01*
X134901190Y-53309523D01*
X134234523Y-52880952D02*
X134329761Y-52976190D01*
X134329761Y-53166666D01*
X134234523Y-53261904D01*
X134139285Y-53309523D01*
X133948809Y-53357142D01*
X133377380Y-53357142D01*
X133186904Y-53309523D01*
X133091666Y-53261904D01*
X132996428Y-53166666D01*
X132996428Y-52976190D01*
X133091666Y-52880952D01*
X134329761Y-52404761D02*
X132329761Y-52404761D01*
X134329761Y-51976190D02*
X133282142Y-51976190D01*
X133091666Y-52023809D01*
X132996428Y-52119047D01*
X132996428Y-52261904D01*
X133091666Y-52357142D01*
X133186904Y-52404761D01*
X132996428Y-51642857D02*
X132996428Y-51261904D01*
X132329761Y-51500000D02*
X134044047Y-51500000D01*
X134234523Y-51452380D01*
X134329761Y-51357142D01*
X134329761Y-51261904D01*
X137479761Y-58190476D02*
X137479761Y-58761904D01*
X137479761Y-58476190D02*
X135479761Y-58476190D01*
X135765476Y-58571428D01*
X135955952Y-58666666D01*
X136051190Y-58761904D01*
X135479761Y-57857142D02*
X135479761Y-57190476D01*
X137479761Y-57619047D01*
X135479761Y-56380952D02*
X135479761Y-56571428D01*
X135575000Y-56666666D01*
X135670238Y-56714285D01*
X135955952Y-56809523D01*
X136336904Y-56857142D01*
X137098809Y-56857142D01*
X137289285Y-56809523D01*
X137384523Y-56761904D01*
X137479761Y-56666666D01*
X137479761Y-56476190D01*
X137384523Y-56380952D01*
X137289285Y-56333333D01*
X137098809Y-56285714D01*
X136622619Y-56285714D01*
X136432142Y-56333333D01*
X136336904Y-56380952D01*
X136241666Y-56476190D01*
X136241666Y-56666666D01*
X136336904Y-56761904D01*
X136432142Y-56809523D01*
X136622619Y-56857142D01*
X136717857Y-55857142D02*
X136717857Y-55095238D01*
X135479761Y-54714285D02*
X135479761Y-54095238D01*
X136241666Y-54428571D01*
X136241666Y-54285714D01*
X136336904Y-54190476D01*
X136432142Y-54142857D01*
X136622619Y-54095238D01*
X137098809Y-54095238D01*
X137289285Y-54142857D01*
X137384523Y-54190476D01*
X137479761Y-54285714D01*
X137479761Y-54571428D01*
X137384523Y-54666666D01*
X137289285Y-54714285D01*
X135479761Y-53761904D02*
X135479761Y-53142857D01*
X136241666Y-53476190D01*
X136241666Y-53333333D01*
X136336904Y-53238095D01*
X136432142Y-53190476D01*
X136622619Y-53142857D01*
X137098809Y-53142857D01*
X137289285Y-53190476D01*
X137384523Y-53238095D01*
X137479761Y-53333333D01*
X137479761Y-53619047D01*
X137384523Y-53714285D01*
X137289285Y-53761904D01*
X135670238Y-52761904D02*
X135575000Y-52714285D01*
X135479761Y-52619047D01*
X135479761Y-52380952D01*
X135575000Y-52285714D01*
X135670238Y-52238095D01*
X135860714Y-52190476D01*
X136051190Y-52190476D01*
X136336904Y-52238095D01*
X137479761Y-52809523D01*
X137479761Y-52190476D01*
X135479761Y-51857142D02*
X135479761Y-51238095D01*
X136241666Y-51571428D01*
X136241666Y-51428571D01*
X136336904Y-51333333D01*
X136432142Y-51285714D01*
X136622619Y-51238095D01*
X137098809Y-51238095D01*
X137289285Y-51285714D01*
X137384523Y-51333333D01*
X137479761Y-51428571D01*
X137479761Y-51714285D01*
X137384523Y-51809523D01*
X137289285Y-51857142D01*
X140629761Y-59571428D02*
X140629761Y-60142857D01*
X140629761Y-59857142D02*
X138629761Y-59857142D01*
X138915476Y-59952380D01*
X139105952Y-60047619D01*
X139201190Y-60142857D01*
X138629761Y-59238095D02*
X138629761Y-58619047D01*
X139391666Y-58952380D01*
X139391666Y-58809523D01*
X139486904Y-58714285D01*
X139582142Y-58666666D01*
X139772619Y-58619047D01*
X140248809Y-58619047D01*
X140439285Y-58666666D01*
X140534523Y-58714285D01*
X140629761Y-58809523D01*
X140629761Y-59095238D01*
X140534523Y-59190476D01*
X140439285Y-59238095D01*
X140629761Y-58190476D02*
X139296428Y-58190476D01*
X139486904Y-58190476D02*
X139391666Y-58142857D01*
X139296428Y-58047619D01*
X139296428Y-57904761D01*
X139391666Y-57809523D01*
X139582142Y-57761904D01*
X140629761Y-57761904D01*
X139582142Y-57761904D02*
X139391666Y-57714285D01*
X139296428Y-57619047D01*
X139296428Y-57476190D01*
X139391666Y-57380952D01*
X139582142Y-57333333D01*
X140629761Y-57333333D01*
X138629761Y-56952380D02*
X140629761Y-56714285D01*
X139201190Y-56523809D01*
X140629761Y-56333333D01*
X138629761Y-56095238D01*
X140629761Y-54428571D02*
X140629761Y-55000000D01*
X140629761Y-54714285D02*
X138629761Y-54714285D01*
X138915476Y-54809523D01*
X139105952Y-54904761D01*
X139201190Y-55000000D01*
X138629761Y-53523809D02*
X138629761Y-54000000D01*
X139582142Y-54047619D01*
X139486904Y-54000000D01*
X139391666Y-53904761D01*
X139391666Y-53666666D01*
X139486904Y-53571428D01*
X139582142Y-53523809D01*
X139772619Y-53476190D01*
X140248809Y-53476190D01*
X140439285Y-53523809D01*
X140534523Y-53571428D01*
X140629761Y-53666666D01*
X140629761Y-53904761D01*
X140534523Y-54000000D01*
X140439285Y-54047619D01*
X138629761Y-52857142D02*
X138629761Y-52761904D01*
X138725000Y-52666666D01*
X138820238Y-52619047D01*
X139010714Y-52571428D01*
X139391666Y-52523809D01*
X139867857Y-52523809D01*
X140248809Y-52571428D01*
X140439285Y-52619047D01*
X140534523Y-52666666D01*
X140629761Y-52761904D01*
X140629761Y-52857142D01*
X140534523Y-52952380D01*
X140439285Y-53000000D01*
X140248809Y-53047619D01*
X139867857Y-53095238D01*
X139391666Y-53095238D01*
X139010714Y-53047619D01*
X138820238Y-53000000D01*
X138725000Y-52952380D01*
X138629761Y-52857142D01*
X140629761Y-51666666D02*
X138629761Y-51666666D01*
X140534523Y-51666666D02*
X140629761Y-51761904D01*
X140629761Y-51952380D01*
X140534523Y-52047619D01*
X140439285Y-52095238D01*
X140248809Y-52142857D01*
X139677380Y-52142857D01*
X139486904Y-52095238D01*
X139391666Y-52047619D01*
X139296428Y-51952380D01*
X139296428Y-51761904D01*
X139391666Y-51666666D01*
X140534523Y-50809523D02*
X140629761Y-50904761D01*
X140629761Y-51095238D01*
X140534523Y-51190476D01*
X140344047Y-51238095D01*
X139582142Y-51238095D01*
X139391666Y-51190476D01*
X139296428Y-51095238D01*
X139296428Y-50904761D01*
X139391666Y-50809523D01*
X139582142Y-50761904D01*
X139772619Y-50761904D01*
X139963095Y-51238095D01*
X139296428Y-49904761D02*
X140915476Y-49904761D01*
X141105952Y-49952380D01*
X141201190Y-50000000D01*
X141296428Y-50095238D01*
X141296428Y-50238095D01*
X141201190Y-50333333D01*
X140534523Y-49904761D02*
X140629761Y-50000000D01*
X140629761Y-50190476D01*
X140534523Y-50285714D01*
X140439285Y-50333333D01*
X140248809Y-50380952D01*
X139677380Y-50380952D01*
X139486904Y-50333333D01*
X139391666Y-50285714D01*
X139296428Y-50190476D01*
X139296428Y-50000000D01*
X139391666Y-49904761D01*
X208820238Y-115571428D02*
X208820238Y-115095238D01*
X210820238Y-115095238D01*
X209867857Y-115904761D02*
X209867857Y-116238095D01*
X208820238Y-116380952D02*
X208820238Y-115904761D01*
X210820238Y-115904761D01*
X210820238Y-116380952D01*
X208820238Y-116809523D02*
X210820238Y-116809523D01*
X210820238Y-117047619D01*
X210725000Y-117190476D01*
X210534523Y-117285714D01*
X210344047Y-117333333D01*
X209963095Y-117380952D01*
X209677380Y-117380952D01*
X209296428Y-117333333D01*
X209105952Y-117285714D01*
X208915476Y-117190476D01*
X208820238Y-117047619D01*
X208820238Y-116809523D01*
X210820238Y-118428571D02*
X210820238Y-119000000D01*
X208820238Y-118714285D02*
X210820238Y-118714285D01*
X210820238Y-119238095D02*
X208820238Y-119904761D01*
X210820238Y-119904761D02*
X208820238Y-119238095D01*
X209867857Y-121380952D02*
X209772619Y-121523809D01*
X209677380Y-121571428D01*
X209486904Y-121619047D01*
X209201190Y-121619047D01*
X209010714Y-121571428D01*
X208915476Y-121523809D01*
X208820238Y-121428571D01*
X208820238Y-121047619D01*
X210820238Y-121047619D01*
X210820238Y-121380952D01*
X210725000Y-121476190D01*
X210629761Y-121523809D01*
X210439285Y-121571428D01*
X210248809Y-121571428D01*
X210058333Y-121523809D01*
X209963095Y-121476190D01*
X209867857Y-121380952D01*
X209867857Y-121047619D01*
X208820238Y-122190476D02*
X208915476Y-122095238D01*
X209010714Y-122047619D01*
X209201190Y-122000000D01*
X209772619Y-122000000D01*
X209963095Y-122047619D01*
X210058333Y-122095238D01*
X210153571Y-122190476D01*
X210153571Y-122333333D01*
X210058333Y-122428571D01*
X209963095Y-122476190D01*
X209772619Y-122523809D01*
X209201190Y-122523809D01*
X209010714Y-122476190D01*
X208915476Y-122428571D01*
X208820238Y-122333333D01*
X208820238Y-122190476D01*
X208820238Y-123380952D02*
X209867857Y-123380952D01*
X210058333Y-123333333D01*
X210153571Y-123238095D01*
X210153571Y-123047619D01*
X210058333Y-122952380D01*
X208915476Y-123380952D02*
X208820238Y-123285714D01*
X208820238Y-123047619D01*
X208915476Y-122952380D01*
X209105952Y-122904761D01*
X209296428Y-122904761D01*
X209486904Y-122952380D01*
X209582142Y-123047619D01*
X209582142Y-123285714D01*
X209677380Y-123380952D01*
X208820238Y-123857142D02*
X210153571Y-123857142D01*
X209772619Y-123857142D02*
X209963095Y-123904761D01*
X210058333Y-123952380D01*
X210153571Y-124047619D01*
X210153571Y-124142857D01*
X208820238Y-124904761D02*
X210820238Y-124904761D01*
X208915476Y-124904761D02*
X208820238Y-124809523D01*
X208820238Y-124619047D01*
X208915476Y-124523809D01*
X209010714Y-124476190D01*
X209201190Y-124428571D01*
X209772619Y-124428571D01*
X209963095Y-124476190D01*
X210058333Y-124523809D01*
X210153571Y-124619047D01*
X210153571Y-124809523D01*
X210058333Y-124904761D01*
X207670238Y-114571428D02*
X205670238Y-114904761D01*
X207670238Y-115238095D01*
X205670238Y-115571428D02*
X207003571Y-115571428D01*
X207670238Y-115571428D02*
X207575000Y-115523809D01*
X207479761Y-115571428D01*
X207575000Y-115619047D01*
X207670238Y-115571428D01*
X207479761Y-115571428D01*
X205765476Y-116000000D02*
X205670238Y-116095238D01*
X205670238Y-116285714D01*
X205765476Y-116380952D01*
X205955952Y-116428571D01*
X206051190Y-116428571D01*
X206241666Y-116380952D01*
X206336904Y-116285714D01*
X206336904Y-116142857D01*
X206432142Y-116047619D01*
X206622619Y-116000000D01*
X206717857Y-116000000D01*
X206908333Y-116047619D01*
X207003571Y-116142857D01*
X207003571Y-116285714D01*
X206908333Y-116380952D01*
X205670238Y-116857142D02*
X207670238Y-116857142D01*
X205670238Y-117285714D02*
X206717857Y-117285714D01*
X206908333Y-117238095D01*
X207003571Y-117142857D01*
X207003571Y-117000000D01*
X206908333Y-116904761D01*
X206813095Y-116857142D01*
X205670238Y-118190476D02*
X206717857Y-118190476D01*
X206908333Y-118142857D01*
X207003571Y-118047619D01*
X207003571Y-117857142D01*
X206908333Y-117761904D01*
X205765476Y-118190476D02*
X205670238Y-118095238D01*
X205670238Y-117857142D01*
X205765476Y-117761904D01*
X205955952Y-117714285D01*
X206146428Y-117714285D01*
X206336904Y-117761904D01*
X206432142Y-117857142D01*
X206432142Y-118095238D01*
X206527380Y-118190476D01*
X207003571Y-118571428D02*
X205670238Y-118809523D01*
X207003571Y-119047619D02*
X205670238Y-118809523D01*
X205194047Y-118714285D01*
X205098809Y-118666666D01*
X205003571Y-118571428D01*
X205670238Y-120714285D02*
X205670238Y-120142857D01*
X205670238Y-120428571D02*
X207670238Y-120428571D01*
X207384523Y-120333333D01*
X207194047Y-120238095D01*
X207098809Y-120142857D01*
X205860714Y-121142857D02*
X205765476Y-121190476D01*
X205670238Y-121142857D01*
X205765476Y-121095238D01*
X205860714Y-121142857D01*
X205670238Y-121142857D01*
X207670238Y-122047619D02*
X207670238Y-121857142D01*
X207575000Y-121761904D01*
X207479761Y-121714285D01*
X207194047Y-121619047D01*
X206813095Y-121571428D01*
X206051190Y-121571428D01*
X205860714Y-121619047D01*
X205765476Y-121666666D01*
X205670238Y-121761904D01*
X205670238Y-121952380D01*
X205765476Y-122047619D01*
X205860714Y-122095238D01*
X206051190Y-122142857D01*
X206527380Y-122142857D01*
X206717857Y-122095238D01*
X206813095Y-122047619D01*
X206908333Y-121952380D01*
X206908333Y-121761904D01*
X206813095Y-121666666D01*
X206717857Y-121619047D01*
X206527380Y-121571428D01*
X205670238Y-122476190D02*
X207003571Y-123000000D01*
X207003571Y-122476190D02*
X205670238Y-123000000D01*
X205670238Y-123904761D02*
X205670238Y-123333333D01*
X205670238Y-123619047D02*
X207670238Y-123619047D01*
X207384523Y-123523809D01*
X207194047Y-123428571D01*
X207098809Y-123333333D01*
X205860714Y-124333333D02*
X205765476Y-124380952D01*
X205670238Y-124333333D01*
X205765476Y-124285714D01*
X205860714Y-124333333D01*
X205670238Y-124333333D01*
X207670238Y-125238095D02*
X207670238Y-125047619D01*
X207575000Y-124952380D01*
X207479761Y-124904761D01*
X207194047Y-124809523D01*
X206813095Y-124761904D01*
X206051190Y-124761904D01*
X205860714Y-124809523D01*
X205765476Y-124857142D01*
X205670238Y-124952380D01*
X205670238Y-125142857D01*
X205765476Y-125238095D01*
X205860714Y-125285714D01*
X206051190Y-125333333D01*
X206527380Y-125333333D01*
X206717857Y-125285714D01*
X206813095Y-125238095D01*
X206908333Y-125142857D01*
X206908333Y-124952380D01*
X206813095Y-124857142D01*
X206717857Y-124809523D01*
X206527380Y-124761904D01*
X202520238Y-116809523D02*
X202520238Y-116238095D01*
X202520238Y-116523809D02*
X204520238Y-116523809D01*
X204234523Y-116428571D01*
X204044047Y-116333333D01*
X203948809Y-116238095D01*
X204520238Y-117142857D02*
X204520238Y-117761904D01*
X203758333Y-117428571D01*
X203758333Y-117571428D01*
X203663095Y-117666666D01*
X203567857Y-117714285D01*
X203377380Y-117761904D01*
X202901190Y-117761904D01*
X202710714Y-117714285D01*
X202615476Y-117666666D01*
X202520238Y-117571428D01*
X202520238Y-117285714D01*
X202615476Y-117190476D01*
X202710714Y-117142857D01*
X204520238Y-118095238D02*
X204520238Y-118714285D01*
X203758333Y-118380952D01*
X203758333Y-118523809D01*
X203663095Y-118619047D01*
X203567857Y-118666666D01*
X203377380Y-118714285D01*
X202901190Y-118714285D01*
X202710714Y-118666666D01*
X202615476Y-118619047D01*
X202520238Y-118523809D01*
X202520238Y-118238095D01*
X202615476Y-118142857D01*
X202710714Y-118095238D01*
X203282142Y-119142857D02*
X203282142Y-119904761D01*
X204520238Y-120809523D02*
X204520238Y-120619047D01*
X204425000Y-120523809D01*
X204329761Y-120476190D01*
X204044047Y-120380952D01*
X203663095Y-120333333D01*
X202901190Y-120333333D01*
X202710714Y-120380952D01*
X202615476Y-120428571D01*
X202520238Y-120523809D01*
X202520238Y-120714285D01*
X202615476Y-120809523D01*
X202710714Y-120857142D01*
X202901190Y-120904761D01*
X203377380Y-120904761D01*
X203567857Y-120857142D01*
X203663095Y-120809523D01*
X203758333Y-120714285D01*
X203758333Y-120523809D01*
X203663095Y-120428571D01*
X203567857Y-120380952D01*
X203377380Y-120333333D01*
X204329761Y-121285714D02*
X204425000Y-121333333D01*
X204520238Y-121428571D01*
X204520238Y-121666666D01*
X204425000Y-121761904D01*
X204329761Y-121809523D01*
X204139285Y-121857142D01*
X203948809Y-121857142D01*
X203663095Y-121809523D01*
X202520238Y-121238095D01*
X202520238Y-121857142D01*
X204520238Y-122714285D02*
X204520238Y-122523809D01*
X204425000Y-122428571D01*
X204329761Y-122380952D01*
X204044047Y-122285714D01*
X203663095Y-122238095D01*
X202901190Y-122238095D01*
X202710714Y-122285714D01*
X202615476Y-122333333D01*
X202520238Y-122428571D01*
X202520238Y-122619047D01*
X202615476Y-122714285D01*
X202710714Y-122761904D01*
X202901190Y-122809523D01*
X203377380Y-122809523D01*
X203567857Y-122761904D01*
X203663095Y-122714285D01*
X203758333Y-122619047D01*
X203758333Y-122428571D01*
X203663095Y-122333333D01*
X203567857Y-122285714D01*
X203377380Y-122238095D01*
X204520238Y-123142857D02*
X204520238Y-123809523D01*
X202520238Y-123380952D01*
X201370238Y-118523809D02*
X201370238Y-118047619D01*
X200417857Y-118000000D01*
X200513095Y-118047619D01*
X200608333Y-118142857D01*
X200608333Y-118380952D01*
X200513095Y-118476190D01*
X200417857Y-118523809D01*
X200227380Y-118571428D01*
X199751190Y-118571428D01*
X199560714Y-118523809D01*
X199465476Y-118476190D01*
X199370238Y-118380952D01*
X199370238Y-118142857D01*
X199465476Y-118047619D01*
X199560714Y-118000000D01*
X201370238Y-119190476D02*
X201370238Y-119285714D01*
X201275000Y-119380952D01*
X201179761Y-119428571D01*
X200989285Y-119476190D01*
X200608333Y-119523809D01*
X200132142Y-119523809D01*
X199751190Y-119476190D01*
X199560714Y-119428571D01*
X199465476Y-119380952D01*
X199370238Y-119285714D01*
X199370238Y-119190476D01*
X199465476Y-119095238D01*
X199560714Y-119047619D01*
X199751190Y-119000000D01*
X200132142Y-118952380D01*
X200608333Y-118952380D01*
X200989285Y-119000000D01*
X201179761Y-119047619D01*
X201275000Y-119095238D01*
X201370238Y-119190476D01*
X199370238Y-119952380D02*
X200703571Y-119952380D01*
X200513095Y-119952380D02*
X200608333Y-120000000D01*
X200703571Y-120095238D01*
X200703571Y-120238095D01*
X200608333Y-120333333D01*
X200417857Y-120380952D01*
X199370238Y-120380952D01*
X200417857Y-120380952D02*
X200608333Y-120428571D01*
X200703571Y-120523809D01*
X200703571Y-120666666D01*
X200608333Y-120761904D01*
X200417857Y-120809523D01*
X199370238Y-120809523D01*
X201370238Y-121190476D02*
X199370238Y-121428571D01*
X200798809Y-121619047D01*
X199370238Y-121809523D01*
X201370238Y-122047619D01*
X208820238Y-55571428D02*
X208820238Y-55095238D01*
X210820238Y-55095238D01*
X209867857Y-55904761D02*
X209867857Y-56238095D01*
X208820238Y-56380952D02*
X208820238Y-55904761D01*
X210820238Y-55904761D01*
X210820238Y-56380952D01*
X208820238Y-56809523D02*
X210820238Y-56809523D01*
X210820238Y-57047619D01*
X210725000Y-57190476D01*
X210534523Y-57285714D01*
X210344047Y-57333333D01*
X209963095Y-57380952D01*
X209677380Y-57380952D01*
X209296428Y-57333333D01*
X209105952Y-57285714D01*
X208915476Y-57190476D01*
X208820238Y-57047619D01*
X208820238Y-56809523D01*
X210820238Y-58428571D02*
X210820238Y-59000000D01*
X208820238Y-58714285D02*
X210820238Y-58714285D01*
X210820238Y-59238095D02*
X208820238Y-59904761D01*
X210820238Y-59904761D02*
X208820238Y-59238095D01*
X209867857Y-61380952D02*
X209772619Y-61523809D01*
X209677380Y-61571428D01*
X209486904Y-61619047D01*
X209201190Y-61619047D01*
X209010714Y-61571428D01*
X208915476Y-61523809D01*
X208820238Y-61428571D01*
X208820238Y-61047619D01*
X210820238Y-61047619D01*
X210820238Y-61380952D01*
X210725000Y-61476190D01*
X210629761Y-61523809D01*
X210439285Y-61571428D01*
X210248809Y-61571428D01*
X210058333Y-61523809D01*
X209963095Y-61476190D01*
X209867857Y-61380952D01*
X209867857Y-61047619D01*
X208820238Y-62190476D02*
X208915476Y-62095238D01*
X209010714Y-62047619D01*
X209201190Y-62000000D01*
X209772619Y-62000000D01*
X209963095Y-62047619D01*
X210058333Y-62095238D01*
X210153571Y-62190476D01*
X210153571Y-62333333D01*
X210058333Y-62428571D01*
X209963095Y-62476190D01*
X209772619Y-62523809D01*
X209201190Y-62523809D01*
X209010714Y-62476190D01*
X208915476Y-62428571D01*
X208820238Y-62333333D01*
X208820238Y-62190476D01*
X208820238Y-63380952D02*
X209867857Y-63380952D01*
X210058333Y-63333333D01*
X210153571Y-63238095D01*
X210153571Y-63047619D01*
X210058333Y-62952380D01*
X208915476Y-63380952D02*
X208820238Y-63285714D01*
X208820238Y-63047619D01*
X208915476Y-62952380D01*
X209105952Y-62904761D01*
X209296428Y-62904761D01*
X209486904Y-62952380D01*
X209582142Y-63047619D01*
X209582142Y-63285714D01*
X209677380Y-63380952D01*
X208820238Y-63857142D02*
X210153571Y-63857142D01*
X209772619Y-63857142D02*
X209963095Y-63904761D01*
X210058333Y-63952380D01*
X210153571Y-64047619D01*
X210153571Y-64142857D01*
X208820238Y-64904761D02*
X210820238Y-64904761D01*
X208915476Y-64904761D02*
X208820238Y-64809523D01*
X208820238Y-64619047D01*
X208915476Y-64523809D01*
X209010714Y-64476190D01*
X209201190Y-64428571D01*
X209772619Y-64428571D01*
X209963095Y-64476190D01*
X210058333Y-64523809D01*
X210153571Y-64619047D01*
X210153571Y-64809523D01*
X210058333Y-64904761D01*
X207670238Y-54571428D02*
X205670238Y-54904761D01*
X207670238Y-55238095D01*
X205670238Y-55571428D02*
X207003571Y-55571428D01*
X207670238Y-55571428D02*
X207575000Y-55523809D01*
X207479761Y-55571428D01*
X207575000Y-55619047D01*
X207670238Y-55571428D01*
X207479761Y-55571428D01*
X205765476Y-56000000D02*
X205670238Y-56095238D01*
X205670238Y-56285714D01*
X205765476Y-56380952D01*
X205955952Y-56428571D01*
X206051190Y-56428571D01*
X206241666Y-56380952D01*
X206336904Y-56285714D01*
X206336904Y-56142857D01*
X206432142Y-56047619D01*
X206622619Y-56000000D01*
X206717857Y-56000000D01*
X206908333Y-56047619D01*
X207003571Y-56142857D01*
X207003571Y-56285714D01*
X206908333Y-56380952D01*
X205670238Y-56857142D02*
X207670238Y-56857142D01*
X205670238Y-57285714D02*
X206717857Y-57285714D01*
X206908333Y-57238095D01*
X207003571Y-57142857D01*
X207003571Y-57000000D01*
X206908333Y-56904761D01*
X206813095Y-56857142D01*
X205670238Y-58190476D02*
X206717857Y-58190476D01*
X206908333Y-58142857D01*
X207003571Y-58047619D01*
X207003571Y-57857142D01*
X206908333Y-57761904D01*
X205765476Y-58190476D02*
X205670238Y-58095238D01*
X205670238Y-57857142D01*
X205765476Y-57761904D01*
X205955952Y-57714285D01*
X206146428Y-57714285D01*
X206336904Y-57761904D01*
X206432142Y-57857142D01*
X206432142Y-58095238D01*
X206527380Y-58190476D01*
X207003571Y-58571428D02*
X205670238Y-58809523D01*
X207003571Y-59047619D02*
X205670238Y-58809523D01*
X205194047Y-58714285D01*
X205098809Y-58666666D01*
X205003571Y-58571428D01*
X205670238Y-60714285D02*
X205670238Y-60142857D01*
X205670238Y-60428571D02*
X207670238Y-60428571D01*
X207384523Y-60333333D01*
X207194047Y-60238095D01*
X207098809Y-60142857D01*
X205860714Y-61142857D02*
X205765476Y-61190476D01*
X205670238Y-61142857D01*
X205765476Y-61095238D01*
X205860714Y-61142857D01*
X205670238Y-61142857D01*
X207670238Y-62047619D02*
X207670238Y-61857142D01*
X207575000Y-61761904D01*
X207479761Y-61714285D01*
X207194047Y-61619047D01*
X206813095Y-61571428D01*
X206051190Y-61571428D01*
X205860714Y-61619047D01*
X205765476Y-61666666D01*
X205670238Y-61761904D01*
X205670238Y-61952380D01*
X205765476Y-62047619D01*
X205860714Y-62095238D01*
X206051190Y-62142857D01*
X206527380Y-62142857D01*
X206717857Y-62095238D01*
X206813095Y-62047619D01*
X206908333Y-61952380D01*
X206908333Y-61761904D01*
X206813095Y-61666666D01*
X206717857Y-61619047D01*
X206527380Y-61571428D01*
X205670238Y-62476190D02*
X207003571Y-63000000D01*
X207003571Y-62476190D02*
X205670238Y-63000000D01*
X205670238Y-63904761D02*
X205670238Y-63333333D01*
X205670238Y-63619047D02*
X207670238Y-63619047D01*
X207384523Y-63523809D01*
X207194047Y-63428571D01*
X207098809Y-63333333D01*
X205860714Y-64333333D02*
X205765476Y-64380952D01*
X205670238Y-64333333D01*
X205765476Y-64285714D01*
X205860714Y-64333333D01*
X205670238Y-64333333D01*
X207670238Y-65238095D02*
X207670238Y-65047619D01*
X207575000Y-64952380D01*
X207479761Y-64904761D01*
X207194047Y-64809523D01*
X206813095Y-64761904D01*
X206051190Y-64761904D01*
X205860714Y-64809523D01*
X205765476Y-64857142D01*
X205670238Y-64952380D01*
X205670238Y-65142857D01*
X205765476Y-65238095D01*
X205860714Y-65285714D01*
X206051190Y-65333333D01*
X206527380Y-65333333D01*
X206717857Y-65285714D01*
X206813095Y-65238095D01*
X206908333Y-65142857D01*
X206908333Y-64952380D01*
X206813095Y-64857142D01*
X206717857Y-64809523D01*
X206527380Y-64761904D01*
X202520238Y-56809523D02*
X202520238Y-56238095D01*
X202520238Y-56523809D02*
X204520238Y-56523809D01*
X204234523Y-56428571D01*
X204044047Y-56333333D01*
X203948809Y-56238095D01*
X204520238Y-57142857D02*
X204520238Y-57761904D01*
X203758333Y-57428571D01*
X203758333Y-57571428D01*
X203663095Y-57666666D01*
X203567857Y-57714285D01*
X203377380Y-57761904D01*
X202901190Y-57761904D01*
X202710714Y-57714285D01*
X202615476Y-57666666D01*
X202520238Y-57571428D01*
X202520238Y-57285714D01*
X202615476Y-57190476D01*
X202710714Y-57142857D01*
X204520238Y-58095238D02*
X204520238Y-58714285D01*
X203758333Y-58380952D01*
X203758333Y-58523809D01*
X203663095Y-58619047D01*
X203567857Y-58666666D01*
X203377380Y-58714285D01*
X202901190Y-58714285D01*
X202710714Y-58666666D01*
X202615476Y-58619047D01*
X202520238Y-58523809D01*
X202520238Y-58238095D01*
X202615476Y-58142857D01*
X202710714Y-58095238D01*
X203282142Y-59142857D02*
X203282142Y-59904761D01*
X204520238Y-60809523D02*
X204520238Y-60619047D01*
X204425000Y-60523809D01*
X204329761Y-60476190D01*
X204044047Y-60380952D01*
X203663095Y-60333333D01*
X202901190Y-60333333D01*
X202710714Y-60380952D01*
X202615476Y-60428571D01*
X202520238Y-60523809D01*
X202520238Y-60714285D01*
X202615476Y-60809523D01*
X202710714Y-60857142D01*
X202901190Y-60904761D01*
X203377380Y-60904761D01*
X203567857Y-60857142D01*
X203663095Y-60809523D01*
X203758333Y-60714285D01*
X203758333Y-60523809D01*
X203663095Y-60428571D01*
X203567857Y-60380952D01*
X203377380Y-60333333D01*
X204329761Y-61285714D02*
X204425000Y-61333333D01*
X204520238Y-61428571D01*
X204520238Y-61666666D01*
X204425000Y-61761904D01*
X204329761Y-61809523D01*
X204139285Y-61857142D01*
X203948809Y-61857142D01*
X203663095Y-61809523D01*
X202520238Y-61238095D01*
X202520238Y-61857142D01*
X204520238Y-62714285D02*
X204520238Y-62523809D01*
X204425000Y-62428571D01*
X204329761Y-62380952D01*
X204044047Y-62285714D01*
X203663095Y-62238095D01*
X202901190Y-62238095D01*
X202710714Y-62285714D01*
X202615476Y-62333333D01*
X202520238Y-62428571D01*
X202520238Y-62619047D01*
X202615476Y-62714285D01*
X202710714Y-62761904D01*
X202901190Y-62809523D01*
X203377380Y-62809523D01*
X203567857Y-62761904D01*
X203663095Y-62714285D01*
X203758333Y-62619047D01*
X203758333Y-62428571D01*
X203663095Y-62333333D01*
X203567857Y-62285714D01*
X203377380Y-62238095D01*
X204520238Y-63142857D02*
X204520238Y-63809523D01*
X202520238Y-63380952D01*
X201370238Y-58523809D02*
X201370238Y-58047619D01*
X200417857Y-58000000D01*
X200513095Y-58047619D01*
X200608333Y-58142857D01*
X200608333Y-58380952D01*
X200513095Y-58476190D01*
X200417857Y-58523809D01*
X200227380Y-58571428D01*
X199751190Y-58571428D01*
X199560714Y-58523809D01*
X199465476Y-58476190D01*
X199370238Y-58380952D01*
X199370238Y-58142857D01*
X199465476Y-58047619D01*
X199560714Y-58000000D01*
X201370238Y-59190476D02*
X201370238Y-59285714D01*
X201275000Y-59380952D01*
X201179761Y-59428571D01*
X200989285Y-59476190D01*
X200608333Y-59523809D01*
X200132142Y-59523809D01*
X199751190Y-59476190D01*
X199560714Y-59428571D01*
X199465476Y-59380952D01*
X199370238Y-59285714D01*
X199370238Y-59190476D01*
X199465476Y-59095238D01*
X199560714Y-59047619D01*
X199751190Y-59000000D01*
X200132142Y-58952380D01*
X200608333Y-58952380D01*
X200989285Y-59000000D01*
X201179761Y-59047619D01*
X201275000Y-59095238D01*
X201370238Y-59190476D01*
X199370238Y-59952380D02*
X200703571Y-59952380D01*
X200513095Y-59952380D02*
X200608333Y-60000000D01*
X200703571Y-60095238D01*
X200703571Y-60238095D01*
X200608333Y-60333333D01*
X200417857Y-60380952D01*
X199370238Y-60380952D01*
X200417857Y-60380952D02*
X200608333Y-60428571D01*
X200703571Y-60523809D01*
X200703571Y-60666666D01*
X200608333Y-60761904D01*
X200417857Y-60809523D01*
X199370238Y-60809523D01*
X201370238Y-61190476D02*
X199370238Y-61428571D01*
X200798809Y-61619047D01*
X199370238Y-61809523D01*
X201370238Y-62047619D01*
X113820238Y-55571428D02*
X113820238Y-55095238D01*
X115820238Y-55095238D01*
X114867857Y-55904761D02*
X114867857Y-56238095D01*
X113820238Y-56380952D02*
X113820238Y-55904761D01*
X115820238Y-55904761D01*
X115820238Y-56380952D01*
X113820238Y-56809523D02*
X115820238Y-56809523D01*
X115820238Y-57047619D01*
X115725000Y-57190476D01*
X115534523Y-57285714D01*
X115344047Y-57333333D01*
X114963095Y-57380952D01*
X114677380Y-57380952D01*
X114296428Y-57333333D01*
X114105952Y-57285714D01*
X113915476Y-57190476D01*
X113820238Y-57047619D01*
X113820238Y-56809523D01*
X115820238Y-58428571D02*
X115820238Y-59000000D01*
X113820238Y-58714285D02*
X115820238Y-58714285D01*
X115820238Y-59238095D02*
X113820238Y-59904761D01*
X115820238Y-59904761D02*
X113820238Y-59238095D01*
X114867857Y-61380952D02*
X114772619Y-61523809D01*
X114677380Y-61571428D01*
X114486904Y-61619047D01*
X114201190Y-61619047D01*
X114010714Y-61571428D01*
X113915476Y-61523809D01*
X113820238Y-61428571D01*
X113820238Y-61047619D01*
X115820238Y-61047619D01*
X115820238Y-61380952D01*
X115725000Y-61476190D01*
X115629761Y-61523809D01*
X115439285Y-61571428D01*
X115248809Y-61571428D01*
X115058333Y-61523809D01*
X114963095Y-61476190D01*
X114867857Y-61380952D01*
X114867857Y-61047619D01*
X113820238Y-62190476D02*
X113915476Y-62095238D01*
X114010714Y-62047619D01*
X114201190Y-62000000D01*
X114772619Y-62000000D01*
X114963095Y-62047619D01*
X115058333Y-62095238D01*
X115153571Y-62190476D01*
X115153571Y-62333333D01*
X115058333Y-62428571D01*
X114963095Y-62476190D01*
X114772619Y-62523809D01*
X114201190Y-62523809D01*
X114010714Y-62476190D01*
X113915476Y-62428571D01*
X113820238Y-62333333D01*
X113820238Y-62190476D01*
X113820238Y-63380952D02*
X114867857Y-63380952D01*
X115058333Y-63333333D01*
X115153571Y-63238095D01*
X115153571Y-63047619D01*
X115058333Y-62952380D01*
X113915476Y-63380952D02*
X113820238Y-63285714D01*
X113820238Y-63047619D01*
X113915476Y-62952380D01*
X114105952Y-62904761D01*
X114296428Y-62904761D01*
X114486904Y-62952380D01*
X114582142Y-63047619D01*
X114582142Y-63285714D01*
X114677380Y-63380952D01*
X113820238Y-63857142D02*
X115153571Y-63857142D01*
X114772619Y-63857142D02*
X114963095Y-63904761D01*
X115058333Y-63952380D01*
X115153571Y-64047619D01*
X115153571Y-64142857D01*
X113820238Y-64904761D02*
X115820238Y-64904761D01*
X113915476Y-64904761D02*
X113820238Y-64809523D01*
X113820238Y-64619047D01*
X113915476Y-64523809D01*
X114010714Y-64476190D01*
X114201190Y-64428571D01*
X114772619Y-64428571D01*
X114963095Y-64476190D01*
X115058333Y-64523809D01*
X115153571Y-64619047D01*
X115153571Y-64809523D01*
X115058333Y-64904761D01*
X111717857Y-56190476D02*
X111622619Y-56333333D01*
X111527380Y-56380952D01*
X111336904Y-56428571D01*
X111051190Y-56428571D01*
X110860714Y-56380952D01*
X110765476Y-56333333D01*
X110670238Y-56238095D01*
X110670238Y-55857142D01*
X112670238Y-55857142D01*
X112670238Y-56190476D01*
X112575000Y-56285714D01*
X112479761Y-56333333D01*
X112289285Y-56380952D01*
X112098809Y-56380952D01*
X111908333Y-56333333D01*
X111813095Y-56285714D01*
X111717857Y-56190476D01*
X111717857Y-55857142D01*
X110670238Y-56857142D02*
X112670238Y-56857142D01*
X112670238Y-57190476D02*
X110670238Y-57523809D01*
X112670238Y-57857142D01*
X111241666Y-58142857D02*
X111241666Y-58619047D01*
X110670238Y-58047619D02*
X112670238Y-58380952D01*
X110670238Y-58714285D01*
X110670238Y-59619047D02*
X111622619Y-59285714D01*
X110670238Y-59047619D02*
X112670238Y-59047619D01*
X112670238Y-59428571D01*
X112575000Y-59523809D01*
X112479761Y-59571428D01*
X112289285Y-59619047D01*
X112003571Y-59619047D01*
X111813095Y-59571428D01*
X111717857Y-59523809D01*
X111622619Y-59428571D01*
X111622619Y-59047619D01*
X110670238Y-61333333D02*
X110670238Y-60761904D01*
X110670238Y-61047619D02*
X112670238Y-61047619D01*
X112384523Y-60952380D01*
X112194047Y-60857142D01*
X112098809Y-60761904D01*
X112479761Y-61714285D02*
X112575000Y-61761904D01*
X112670238Y-61857142D01*
X112670238Y-62095238D01*
X112575000Y-62190476D01*
X112479761Y-62238095D01*
X112289285Y-62285714D01*
X112098809Y-62285714D01*
X111813095Y-62238095D01*
X110670238Y-61666666D01*
X110670238Y-62285714D01*
X112670238Y-62904761D02*
X112670238Y-63000000D01*
X112575000Y-63095238D01*
X112479761Y-63142857D01*
X112289285Y-63190476D01*
X111908333Y-63238095D01*
X111432142Y-63238095D01*
X111051190Y-63190476D01*
X110860714Y-63142857D01*
X110765476Y-63095238D01*
X110670238Y-63000000D01*
X110670238Y-62904761D01*
X110765476Y-62809523D01*
X110860714Y-62761904D01*
X111051190Y-62714285D01*
X111432142Y-62666666D01*
X111908333Y-62666666D01*
X112289285Y-62714285D01*
X112479761Y-62761904D01*
X112575000Y-62809523D01*
X112670238Y-62904761D01*
X112670238Y-64095238D02*
X112670238Y-63904761D01*
X112575000Y-63809523D01*
X112479761Y-63761904D01*
X112194047Y-63666666D01*
X111813095Y-63619047D01*
X111051190Y-63619047D01*
X110860714Y-63666666D01*
X110765476Y-63714285D01*
X110670238Y-63809523D01*
X110670238Y-64000000D01*
X110765476Y-64095238D01*
X110860714Y-64142857D01*
X111051190Y-64190476D01*
X111527380Y-64190476D01*
X111717857Y-64142857D01*
X111813095Y-64095238D01*
X111908333Y-64000000D01*
X111908333Y-63809523D01*
X111813095Y-63714285D01*
X111717857Y-63666666D01*
X111527380Y-63619047D01*
X107520238Y-56809523D02*
X107520238Y-56238095D01*
X107520238Y-56523809D02*
X109520238Y-56523809D01*
X109234523Y-56428571D01*
X109044047Y-56333333D01*
X108948809Y-56238095D01*
X109520238Y-57142857D02*
X109520238Y-57809523D01*
X107520238Y-57380952D01*
X108853571Y-58619047D02*
X107520238Y-58619047D01*
X109615476Y-58380952D02*
X108186904Y-58142857D01*
X108186904Y-58761904D01*
X108282142Y-59142857D02*
X108282142Y-59904761D01*
X107520238Y-60428571D02*
X107520238Y-60619047D01*
X107615476Y-60714285D01*
X107710714Y-60761904D01*
X107996428Y-60857142D01*
X108377380Y-60904761D01*
X109139285Y-60904761D01*
X109329761Y-60857142D01*
X109425000Y-60809523D01*
X109520238Y-60714285D01*
X109520238Y-60523809D01*
X109425000Y-60428571D01*
X109329761Y-60380952D01*
X109139285Y-60333333D01*
X108663095Y-60333333D01*
X108472619Y-60380952D01*
X108377380Y-60428571D01*
X108282142Y-60523809D01*
X108282142Y-60714285D01*
X108377380Y-60809523D01*
X108472619Y-60857142D01*
X108663095Y-60904761D01*
X108663095Y-61476190D02*
X108758333Y-61380952D01*
X108853571Y-61333333D01*
X109044047Y-61285714D01*
X109139285Y-61285714D01*
X109329761Y-61333333D01*
X109425000Y-61380952D01*
X109520238Y-61476190D01*
X109520238Y-61666666D01*
X109425000Y-61761904D01*
X109329761Y-61809523D01*
X109139285Y-61857142D01*
X109044047Y-61857142D01*
X108853571Y-61809523D01*
X108758333Y-61761904D01*
X108663095Y-61666666D01*
X108663095Y-61476190D01*
X108567857Y-61380952D01*
X108472619Y-61333333D01*
X108282142Y-61285714D01*
X107901190Y-61285714D01*
X107710714Y-61333333D01*
X107615476Y-61380952D01*
X107520238Y-61476190D01*
X107520238Y-61666666D01*
X107615476Y-61761904D01*
X107710714Y-61809523D01*
X107901190Y-61857142D01*
X108282142Y-61857142D01*
X108472619Y-61809523D01*
X108567857Y-61761904D01*
X108663095Y-61666666D01*
X109520238Y-62714285D02*
X109520238Y-62523809D01*
X109425000Y-62428571D01*
X109329761Y-62380952D01*
X109044047Y-62285714D01*
X108663095Y-62238095D01*
X107901190Y-62238095D01*
X107710714Y-62285714D01*
X107615476Y-62333333D01*
X107520238Y-62428571D01*
X107520238Y-62619047D01*
X107615476Y-62714285D01*
X107710714Y-62761904D01*
X107901190Y-62809523D01*
X108377380Y-62809523D01*
X108567857Y-62761904D01*
X108663095Y-62714285D01*
X108758333Y-62619047D01*
X108758333Y-62428571D01*
X108663095Y-62333333D01*
X108567857Y-62285714D01*
X108377380Y-62238095D01*
X108853571Y-63666666D02*
X107520238Y-63666666D01*
X109615476Y-63428571D02*
X108186904Y-63190476D01*
X108186904Y-63809523D01*
X104370238Y-58333333D02*
X104370238Y-57761904D01*
X104370238Y-58047619D02*
X106370238Y-58047619D01*
X106084523Y-57952380D01*
X105894047Y-57857142D01*
X105798809Y-57761904D01*
X104560714Y-58761904D02*
X104465476Y-58809523D01*
X104370238Y-58761904D01*
X104465476Y-58714285D01*
X104560714Y-58761904D01*
X104370238Y-58761904D01*
X106179761Y-59190476D02*
X106275000Y-59238095D01*
X106370238Y-59333333D01*
X106370238Y-59571428D01*
X106275000Y-59666666D01*
X106179761Y-59714285D01*
X105989285Y-59761904D01*
X105798809Y-59761904D01*
X105513095Y-59714285D01*
X104370238Y-59142857D01*
X104370238Y-59761904D01*
X104370238Y-60190476D02*
X105703571Y-60190476D01*
X105513095Y-60190476D02*
X105608333Y-60238095D01*
X105703571Y-60333333D01*
X105703571Y-60476190D01*
X105608333Y-60571428D01*
X105417857Y-60619047D01*
X104370238Y-60619047D01*
X105417857Y-60619047D02*
X105608333Y-60666666D01*
X105703571Y-60761904D01*
X105703571Y-60904761D01*
X105608333Y-61000000D01*
X105417857Y-61047619D01*
X104370238Y-61047619D01*
X106370238Y-61428571D02*
X104370238Y-61666666D01*
X105798809Y-61857142D01*
X104370238Y-62047619D01*
X106370238Y-62285714D01*
X36179761Y-59428571D02*
X36179761Y-59904761D01*
X34179761Y-59904761D01*
X35132142Y-59095238D02*
X35132142Y-58761904D01*
X36179761Y-58619047D02*
X36179761Y-59095238D01*
X34179761Y-59095238D01*
X34179761Y-58619047D01*
X36179761Y-58190476D02*
X34179761Y-58190476D01*
X34179761Y-57952380D01*
X34275000Y-57809523D01*
X34465476Y-57714285D01*
X34655952Y-57666666D01*
X35036904Y-57619047D01*
X35322619Y-57619047D01*
X35703571Y-57666666D01*
X35894047Y-57714285D01*
X36084523Y-57809523D01*
X36179761Y-57952380D01*
X36179761Y-58190476D01*
X34179761Y-56571428D02*
X34179761Y-56000000D01*
X36179761Y-56285714D02*
X34179761Y-56285714D01*
X34179761Y-55761904D02*
X36179761Y-55095238D01*
X34179761Y-55095238D02*
X36179761Y-55761904D01*
X35132142Y-53619047D02*
X35227380Y-53476190D01*
X35322619Y-53428571D01*
X35513095Y-53380952D01*
X35798809Y-53380952D01*
X35989285Y-53428571D01*
X36084523Y-53476190D01*
X36179761Y-53571428D01*
X36179761Y-53952380D01*
X34179761Y-53952380D01*
X34179761Y-53619047D01*
X34275000Y-53523809D01*
X34370238Y-53476190D01*
X34560714Y-53428571D01*
X34751190Y-53428571D01*
X34941666Y-53476190D01*
X35036904Y-53523809D01*
X35132142Y-53619047D01*
X35132142Y-53952380D01*
X36179761Y-52809523D02*
X36084523Y-52904761D01*
X35989285Y-52952380D01*
X35798809Y-53000000D01*
X35227380Y-53000000D01*
X35036904Y-52952380D01*
X34941666Y-52904761D01*
X34846428Y-52809523D01*
X34846428Y-52666666D01*
X34941666Y-52571428D01*
X35036904Y-52523809D01*
X35227380Y-52476190D01*
X35798809Y-52476190D01*
X35989285Y-52523809D01*
X36084523Y-52571428D01*
X36179761Y-52666666D01*
X36179761Y-52809523D01*
X36179761Y-51619047D02*
X35132142Y-51619047D01*
X34941666Y-51666666D01*
X34846428Y-51761904D01*
X34846428Y-51952380D01*
X34941666Y-52047619D01*
X36084523Y-51619047D02*
X36179761Y-51714285D01*
X36179761Y-51952380D01*
X36084523Y-52047619D01*
X35894047Y-52095238D01*
X35703571Y-52095238D01*
X35513095Y-52047619D01*
X35417857Y-51952380D01*
X35417857Y-51714285D01*
X35322619Y-51619047D01*
X36179761Y-51142857D02*
X34846428Y-51142857D01*
X35227380Y-51142857D02*
X35036904Y-51095238D01*
X34941666Y-51047619D01*
X34846428Y-50952380D01*
X34846428Y-50857142D01*
X36179761Y-50095238D02*
X34179761Y-50095238D01*
X36084523Y-50095238D02*
X36179761Y-50190476D01*
X36179761Y-50380952D01*
X36084523Y-50476190D01*
X35989285Y-50523809D01*
X35798809Y-50571428D01*
X35227380Y-50571428D01*
X35036904Y-50523809D01*
X34941666Y-50476190D01*
X34846428Y-50380952D01*
X34846428Y-50190476D01*
X34941666Y-50095238D01*
X38282142Y-58809523D02*
X38377380Y-58666666D01*
X38472619Y-58619047D01*
X38663095Y-58571428D01*
X38948809Y-58571428D01*
X39139285Y-58619047D01*
X39234523Y-58666666D01*
X39329761Y-58761904D01*
X39329761Y-59142857D01*
X37329761Y-59142857D01*
X37329761Y-58809523D01*
X37425000Y-58714285D01*
X37520238Y-58666666D01*
X37710714Y-58619047D01*
X37901190Y-58619047D01*
X38091666Y-58666666D01*
X38186904Y-58714285D01*
X38282142Y-58809523D01*
X38282142Y-59142857D01*
X39329761Y-58142857D02*
X37329761Y-58142857D01*
X37329761Y-57809523D02*
X39329761Y-57476190D01*
X37329761Y-57142857D01*
X38758333Y-56857142D02*
X38758333Y-56380952D01*
X39329761Y-56952380D02*
X37329761Y-56619047D01*
X39329761Y-56285714D01*
X39329761Y-55380952D02*
X38377380Y-55714285D01*
X39329761Y-55952380D02*
X37329761Y-55952380D01*
X37329761Y-55571428D01*
X37425000Y-55476190D01*
X37520238Y-55428571D01*
X37710714Y-55380952D01*
X37996428Y-55380952D01*
X38186904Y-55428571D01*
X38282142Y-55476190D01*
X38377380Y-55571428D01*
X38377380Y-55952380D01*
X37329761Y-54000000D02*
X37329761Y-53904761D01*
X37425000Y-53809523D01*
X37520238Y-53761904D01*
X37710714Y-53714285D01*
X38091666Y-53666666D01*
X38567857Y-53666666D01*
X38948809Y-53714285D01*
X39139285Y-53761904D01*
X39234523Y-53809523D01*
X39329761Y-53904761D01*
X39329761Y-54000000D01*
X39234523Y-54095238D01*
X39139285Y-54142857D01*
X38948809Y-54190476D01*
X38567857Y-54238095D01*
X38091666Y-54238095D01*
X37710714Y-54190476D01*
X37520238Y-54142857D01*
X37425000Y-54095238D01*
X37329761Y-54000000D01*
X37329761Y-52809523D02*
X37329761Y-53000000D01*
X37425000Y-53095238D01*
X37520238Y-53142857D01*
X37805952Y-53238095D01*
X38186904Y-53285714D01*
X38948809Y-53285714D01*
X39139285Y-53238095D01*
X39234523Y-53190476D01*
X39329761Y-53095238D01*
X39329761Y-52904761D01*
X39234523Y-52809523D01*
X39139285Y-52761904D01*
X38948809Y-52714285D01*
X38472619Y-52714285D01*
X38282142Y-52761904D01*
X38186904Y-52809523D01*
X38091666Y-52904761D01*
X38091666Y-53095238D01*
X38186904Y-53190476D01*
X38282142Y-53238095D01*
X38472619Y-53285714D01*
X37329761Y-52095238D02*
X37329761Y-52000000D01*
X37425000Y-51904761D01*
X37520238Y-51857142D01*
X37710714Y-51809523D01*
X38091666Y-51761904D01*
X38567857Y-51761904D01*
X38948809Y-51809523D01*
X39139285Y-51857142D01*
X39234523Y-51904761D01*
X39329761Y-52000000D01*
X39329761Y-52095238D01*
X39234523Y-52190476D01*
X39139285Y-52238095D01*
X38948809Y-52285714D01*
X38567857Y-52333333D01*
X38091666Y-52333333D01*
X37710714Y-52285714D01*
X37520238Y-52238095D01*
X37425000Y-52190476D01*
X37329761Y-52095238D01*
X37329761Y-51428571D02*
X37329761Y-50809523D01*
X38091666Y-51142857D01*
X38091666Y-51000000D01*
X38186904Y-50904761D01*
X38282142Y-50857142D01*
X38472619Y-50809523D01*
X38948809Y-50809523D01*
X39139285Y-50857142D01*
X39234523Y-50904761D01*
X39329761Y-51000000D01*
X39329761Y-51285714D01*
X39234523Y-51380952D01*
X39139285Y-51428571D01*
X42479761Y-58190476D02*
X42479761Y-58761904D01*
X42479761Y-58476190D02*
X40479761Y-58476190D01*
X40765476Y-58571428D01*
X40955952Y-58666666D01*
X41051190Y-58761904D01*
X40479761Y-57857142D02*
X40479761Y-57190476D01*
X42479761Y-57619047D01*
X41146428Y-56380952D02*
X42479761Y-56380952D01*
X40384523Y-56619047D02*
X41813095Y-56857142D01*
X41813095Y-56238095D01*
X41717857Y-55857142D02*
X41717857Y-55095238D01*
X42479761Y-54571428D02*
X42479761Y-54380952D01*
X42384523Y-54285714D01*
X42289285Y-54238095D01*
X42003571Y-54142857D01*
X41622619Y-54095238D01*
X40860714Y-54095238D01*
X40670238Y-54142857D01*
X40575000Y-54190476D01*
X40479761Y-54285714D01*
X40479761Y-54476190D01*
X40575000Y-54571428D01*
X40670238Y-54619047D01*
X40860714Y-54666666D01*
X41336904Y-54666666D01*
X41527380Y-54619047D01*
X41622619Y-54571428D01*
X41717857Y-54476190D01*
X41717857Y-54285714D01*
X41622619Y-54190476D01*
X41527380Y-54142857D01*
X41336904Y-54095238D01*
X41336904Y-53523809D02*
X41241666Y-53619047D01*
X41146428Y-53666666D01*
X40955952Y-53714285D01*
X40860714Y-53714285D01*
X40670238Y-53666666D01*
X40575000Y-53619047D01*
X40479761Y-53523809D01*
X40479761Y-53333333D01*
X40575000Y-53238095D01*
X40670238Y-53190476D01*
X40860714Y-53142857D01*
X40955952Y-53142857D01*
X41146428Y-53190476D01*
X41241666Y-53238095D01*
X41336904Y-53333333D01*
X41336904Y-53523809D01*
X41432142Y-53619047D01*
X41527380Y-53666666D01*
X41717857Y-53714285D01*
X42098809Y-53714285D01*
X42289285Y-53666666D01*
X42384523Y-53619047D01*
X42479761Y-53523809D01*
X42479761Y-53333333D01*
X42384523Y-53238095D01*
X42289285Y-53190476D01*
X42098809Y-53142857D01*
X41717857Y-53142857D01*
X41527380Y-53190476D01*
X41432142Y-53238095D01*
X41336904Y-53333333D01*
X40670238Y-52761904D02*
X40575000Y-52714285D01*
X40479761Y-52619047D01*
X40479761Y-52380952D01*
X40575000Y-52285714D01*
X40670238Y-52238095D01*
X40860714Y-52190476D01*
X41051190Y-52190476D01*
X41336904Y-52238095D01*
X42479761Y-52809523D01*
X42479761Y-52190476D01*
X41146428Y-51333333D02*
X42479761Y-51333333D01*
X40384523Y-51571428D02*
X41813095Y-51809523D01*
X41813095Y-51190476D01*
X45629761Y-56428571D02*
X45629761Y-57000000D01*
X45629761Y-56714285D02*
X43629761Y-56714285D01*
X43915476Y-56809523D01*
X44105952Y-56904761D01*
X44201190Y-57000000D01*
X43629761Y-55809523D02*
X43629761Y-55714285D01*
X43725000Y-55619047D01*
X43820238Y-55571428D01*
X44010714Y-55523809D01*
X44391666Y-55476190D01*
X44867857Y-55476190D01*
X45248809Y-55523809D01*
X45439285Y-55571428D01*
X45534523Y-55619047D01*
X45629761Y-55714285D01*
X45629761Y-55809523D01*
X45534523Y-55904761D01*
X45439285Y-55952380D01*
X45248809Y-56000000D01*
X44867857Y-56047619D01*
X44391666Y-56047619D01*
X44010714Y-56000000D01*
X43820238Y-55952380D01*
X43725000Y-55904761D01*
X43629761Y-55809523D01*
X45629761Y-55047619D02*
X44296428Y-55047619D01*
X44486904Y-55047619D02*
X44391666Y-55000000D01*
X44296428Y-54904761D01*
X44296428Y-54761904D01*
X44391666Y-54666666D01*
X44582142Y-54619047D01*
X45629761Y-54619047D01*
X44582142Y-54619047D02*
X44391666Y-54571428D01*
X44296428Y-54476190D01*
X44296428Y-54333333D01*
X44391666Y-54238095D01*
X44582142Y-54190476D01*
X45629761Y-54190476D01*
X43629761Y-53809523D02*
X45629761Y-53571428D01*
X44201190Y-53380952D01*
X45629761Y-53190476D01*
X43629761Y-52952380D01*
D13*
X48904761Y-97652380D02*
X48904761Y-96652380D01*
X49142857Y-96652380D01*
X49285714Y-96700000D01*
X49380952Y-96795238D01*
X49428571Y-96890476D01*
X49476190Y-97080952D01*
X49476190Y-97223809D01*
X49428571Y-97414285D01*
X49380952Y-97509523D01*
X49285714Y-97604761D01*
X49142857Y-97652380D01*
X48904761Y-97652380D01*
X49857142Y-97604761D02*
X49952380Y-97652380D01*
X50142857Y-97652380D01*
X50238095Y-97604761D01*
X50285714Y-97509523D01*
X50285714Y-97461904D01*
X50238095Y-97366666D01*
X50142857Y-97319047D01*
X50000000Y-97319047D01*
X49904761Y-97271428D01*
X49857142Y-97176190D01*
X49857142Y-97128571D01*
X49904761Y-97033333D01*
X50000000Y-96985714D01*
X50142857Y-96985714D01*
X50238095Y-97033333D01*
X51142857Y-96985714D02*
X51142857Y-97795238D01*
X51095238Y-97890476D01*
X51047619Y-97938095D01*
X50952380Y-97985714D01*
X50809523Y-97985714D01*
X50714285Y-97938095D01*
X51142857Y-97604761D02*
X51047619Y-97652380D01*
X50857142Y-97652380D01*
X50761904Y-97604761D01*
X50714285Y-97557142D01*
X50666666Y-97461904D01*
X50666666Y-97176190D01*
X50714285Y-97080952D01*
X50761904Y-97033333D01*
X50857142Y-96985714D01*
X51047619Y-96985714D01*
X51142857Y-97033333D01*
X51619047Y-97557142D02*
X51666666Y-97604761D01*
X51619047Y-97652380D01*
X51571428Y-97604761D01*
X51619047Y-97557142D01*
X51619047Y-97652380D01*
X51619047Y-97033333D02*
X51666666Y-97080952D01*
X51619047Y-97128571D01*
X51571428Y-97080952D01*
X51619047Y-97033333D01*
X51619047Y-97128571D01*
X52761904Y-96652380D02*
X53000000Y-97652380D01*
X53190476Y-96938095D01*
X53380952Y-97652380D01*
X53619047Y-96652380D01*
X54761904Y-97652380D02*
X54761904Y-96652380D01*
X55095238Y-97366666D01*
X55428571Y-96652380D01*
X55428571Y-97652380D01*
X56333333Y-97652380D02*
X56333333Y-97128571D01*
X56285714Y-97033333D01*
X56190476Y-96985714D01*
X56000000Y-96985714D01*
X55904761Y-97033333D01*
X56333333Y-97604761D02*
X56238095Y-97652380D01*
X56000000Y-97652380D01*
X55904761Y-97604761D01*
X55857142Y-97509523D01*
X55857142Y-97414285D01*
X55904761Y-97319047D01*
X56000000Y-97271428D01*
X56238095Y-97271428D01*
X56333333Y-97223809D01*
X56666666Y-96985714D02*
X57047619Y-96985714D01*
X56809523Y-96652380D02*
X56809523Y-97509523D01*
X56857142Y-97604761D01*
X56952380Y-97652380D01*
X57047619Y-97652380D01*
X57238095Y-96985714D02*
X57619047Y-96985714D01*
X57380952Y-96652380D02*
X57380952Y-97509523D01*
X57428571Y-97604761D01*
X57523809Y-97652380D01*
X57619047Y-97652380D01*
X57952380Y-97652380D02*
X57952380Y-96652380D01*
X58380952Y-97652380D02*
X58380952Y-97128571D01*
X58333333Y-97033333D01*
X58238095Y-96985714D01*
X58095238Y-96985714D01*
X58000000Y-97033333D01*
X57952380Y-97080952D01*
X59238095Y-97604761D02*
X59142857Y-97652380D01*
X58952380Y-97652380D01*
X58857142Y-97604761D01*
X58809523Y-97509523D01*
X58809523Y-97128571D01*
X58857142Y-97033333D01*
X58952380Y-96985714D01*
X59142857Y-96985714D01*
X59238095Y-97033333D01*
X59285714Y-97128571D01*
X59285714Y-97223809D01*
X58809523Y-97319047D01*
X59619047Y-96985714D02*
X59809523Y-97652380D01*
X60000000Y-97176190D01*
X60190476Y-97652380D01*
X60380952Y-96985714D01*
X60714285Y-97604761D02*
X60809523Y-97652380D01*
X60999999Y-97652380D01*
X61095238Y-97604761D01*
X61142857Y-97509523D01*
X61142857Y-97461904D01*
X61095238Y-97366666D01*
X60999999Y-97319047D01*
X60857142Y-97319047D01*
X60761904Y-97271428D01*
X60714285Y-97176190D01*
X60714285Y-97128571D01*
X60761904Y-97033333D01*
X60857142Y-96985714D01*
X60999999Y-96985714D01*
X61095238Y-97033333D01*
X49761904Y-99157142D02*
X49714285Y-99204761D01*
X49571428Y-99252380D01*
X49476190Y-99252380D01*
X49333333Y-99204761D01*
X49238095Y-99109523D01*
X49190476Y-99014285D01*
X49142857Y-98823809D01*
X49142857Y-98680952D01*
X49190476Y-98490476D01*
X49238095Y-98395238D01*
X49333333Y-98300000D01*
X49476190Y-98252380D01*
X49571428Y-98252380D01*
X49714285Y-98300000D01*
X49761904Y-98347619D01*
X50190476Y-99252380D02*
X50190476Y-98252380D01*
X50619047Y-99252380D02*
X50619047Y-98728571D01*
X50571428Y-98633333D01*
X50476190Y-98585714D01*
X50333333Y-98585714D01*
X50238095Y-98633333D01*
X50190476Y-98680952D01*
X51095238Y-99252380D02*
X51095238Y-98252380D01*
X51190476Y-98871428D02*
X51476190Y-99252380D01*
X51476190Y-98585714D02*
X51095238Y-98966666D01*
X51904761Y-99157142D02*
X51952380Y-99204761D01*
X51904761Y-99252380D01*
X51857142Y-99204761D01*
X51904761Y-99157142D01*
X51904761Y-99252380D01*
X51904761Y-98633333D02*
X51952380Y-98680952D01*
X51904761Y-98728571D01*
X51857142Y-98680952D01*
X51904761Y-98633333D01*
X51904761Y-98728571D01*
X53666666Y-98300000D02*
X53571428Y-98252380D01*
X53428571Y-98252380D01*
X53285714Y-98300000D01*
X53190476Y-98395238D01*
X53142857Y-98490476D01*
X53095238Y-98680952D01*
X53095238Y-98823809D01*
X53142857Y-99014285D01*
X53190476Y-99109523D01*
X53285714Y-99204761D01*
X53428571Y-99252380D01*
X53523809Y-99252380D01*
X53666666Y-99204761D01*
X53714285Y-99157142D01*
X53714285Y-98823809D01*
X53523809Y-98823809D01*
X55238095Y-98728571D02*
X54904761Y-98728571D01*
X54904761Y-99252380D02*
X54904761Y-98252380D01*
X55380952Y-98252380D01*
X56190476Y-99252380D02*
X56190476Y-98728571D01*
X56142857Y-98633333D01*
X56047619Y-98585714D01*
X55857142Y-98585714D01*
X55761904Y-98633333D01*
X56190476Y-99204761D02*
X56095238Y-99252380D01*
X55857142Y-99252380D01*
X55761904Y-99204761D01*
X55714285Y-99109523D01*
X55714285Y-99014285D01*
X55761904Y-98919047D01*
X55857142Y-98871428D01*
X56095238Y-98871428D01*
X56190476Y-98823809D01*
X57095238Y-98585714D02*
X57095238Y-99252380D01*
X56666666Y-98585714D02*
X56666666Y-99109523D01*
X56714285Y-99204761D01*
X56809523Y-99252380D01*
X56952380Y-99252380D01*
X57047619Y-99204761D01*
X57095238Y-99157142D01*
X57714285Y-99252380D02*
X57619047Y-99204761D01*
X57571428Y-99109523D01*
X57571428Y-98252380D01*
X58095238Y-99252380D02*
X58095238Y-98252380D01*
X58190476Y-98871428D02*
X58476190Y-99252380D01*
X58476190Y-98585714D02*
X58095238Y-98966666D01*
X58904761Y-98585714D02*
X58904761Y-99252380D01*
X58904761Y-98680952D02*
X58952380Y-98633333D01*
X59047619Y-98585714D01*
X59190476Y-98585714D01*
X59285714Y-98633333D01*
X59333333Y-98728571D01*
X59333333Y-99252380D01*
X60190476Y-99204761D02*
X60095238Y-99252380D01*
X59904761Y-99252380D01*
X59809523Y-99204761D01*
X59761904Y-99109523D01*
X59761904Y-98728571D01*
X59809523Y-98633333D01*
X59904761Y-98585714D01*
X60095238Y-98585714D01*
X60190476Y-98633333D01*
X60238095Y-98728571D01*
X60238095Y-98823809D01*
X59761904Y-98919047D01*
X60666666Y-99252380D02*
X60666666Y-98585714D01*
X60666666Y-98776190D02*
X60714285Y-98680952D01*
X60761904Y-98633333D01*
X60857142Y-98585714D01*
X60952380Y-98585714D01*
X101095238Y-137347619D02*
X101095238Y-138347619D01*
X100857142Y-138347619D01*
X100714285Y-138300000D01*
X100619047Y-138204761D01*
X100571428Y-138109523D01*
X100523809Y-137919047D01*
X100523809Y-137776190D01*
X100571428Y-137585714D01*
X100619047Y-137490476D01*
X100714285Y-137395238D01*
X100857142Y-137347619D01*
X101095238Y-137347619D01*
X100142857Y-137395238D02*
X100047619Y-137347619D01*
X99857142Y-137347619D01*
X99761904Y-137395238D01*
X99714285Y-137490476D01*
X99714285Y-137538095D01*
X99761904Y-137633333D01*
X99857142Y-137680952D01*
X100000000Y-137680952D01*
X100095238Y-137728571D01*
X100142857Y-137823809D01*
X100142857Y-137871428D01*
X100095238Y-137966666D01*
X100000000Y-138014285D01*
X99857142Y-138014285D01*
X99761904Y-137966666D01*
X98857142Y-138014285D02*
X98857142Y-137204761D01*
X98904761Y-137109523D01*
X98952380Y-137061904D01*
X99047619Y-137014285D01*
X99190476Y-137014285D01*
X99285714Y-137061904D01*
X98857142Y-137395238D02*
X98952380Y-137347619D01*
X99142857Y-137347619D01*
X99238095Y-137395238D01*
X99285714Y-137442857D01*
X99333333Y-137538095D01*
X99333333Y-137823809D01*
X99285714Y-137919047D01*
X99238095Y-137966666D01*
X99142857Y-138014285D01*
X98952380Y-138014285D01*
X98857142Y-137966666D01*
X98380952Y-137442857D02*
X98333333Y-137395238D01*
X98380952Y-137347619D01*
X98428571Y-137395238D01*
X98380952Y-137442857D01*
X98380952Y-137347619D01*
X98380952Y-137966666D02*
X98333333Y-137919047D01*
X98380952Y-137871428D01*
X98428571Y-137919047D01*
X98380952Y-137966666D01*
X98380952Y-137871428D01*
X97238095Y-138347619D02*
X97000000Y-137347619D01*
X96809523Y-138061904D01*
X96619047Y-137347619D01*
X96380952Y-138347619D01*
X95238095Y-137347619D02*
X95238095Y-138347619D01*
X94904761Y-137633333D01*
X94571428Y-138347619D01*
X94571428Y-137347619D01*
X93666666Y-137347619D02*
X93666666Y-137871428D01*
X93714285Y-137966666D01*
X93809523Y-138014285D01*
X94000000Y-138014285D01*
X94095238Y-137966666D01*
X93666666Y-137395238D02*
X93761904Y-137347619D01*
X94000000Y-137347619D01*
X94095238Y-137395238D01*
X94142857Y-137490476D01*
X94142857Y-137585714D01*
X94095238Y-137680952D01*
X94000000Y-137728571D01*
X93761904Y-137728571D01*
X93666666Y-137776190D01*
X93333333Y-138014285D02*
X92952380Y-138014285D01*
X93190476Y-138347619D02*
X93190476Y-137490476D01*
X93142857Y-137395238D01*
X93047619Y-137347619D01*
X92952380Y-137347619D01*
X92761904Y-138014285D02*
X92380952Y-138014285D01*
X92619047Y-138347619D02*
X92619047Y-137490476D01*
X92571428Y-137395238D01*
X92476190Y-137347619D01*
X92380952Y-137347619D01*
X92047619Y-137347619D02*
X92047619Y-138347619D01*
X91619047Y-137347619D02*
X91619047Y-137871428D01*
X91666666Y-137966666D01*
X91761904Y-138014285D01*
X91904761Y-138014285D01*
X92000000Y-137966666D01*
X92047619Y-137919047D01*
X90761904Y-137395238D02*
X90857142Y-137347619D01*
X91047619Y-137347619D01*
X91142857Y-137395238D01*
X91190476Y-137490476D01*
X91190476Y-137871428D01*
X91142857Y-137966666D01*
X91047619Y-138014285D01*
X90857142Y-138014285D01*
X90761904Y-137966666D01*
X90714285Y-137871428D01*
X90714285Y-137776190D01*
X91190476Y-137680952D01*
X90380952Y-138014285D02*
X90190476Y-137347619D01*
X90000000Y-137823809D01*
X89809523Y-137347619D01*
X89619047Y-138014285D01*
X89285714Y-137395238D02*
X89190476Y-137347619D01*
X89000000Y-137347619D01*
X88904761Y-137395238D01*
X88857142Y-137490476D01*
X88857142Y-137538095D01*
X88904761Y-137633333D01*
X89000000Y-137680952D01*
X89142857Y-137680952D01*
X89238095Y-137728571D01*
X89285714Y-137823809D01*
X89285714Y-137871428D01*
X89238095Y-137966666D01*
X89142857Y-138014285D01*
X89000000Y-138014285D01*
X88904761Y-137966666D01*
X100238095Y-135842857D02*
X100285714Y-135795238D01*
X100428571Y-135747619D01*
X100523809Y-135747619D01*
X100666666Y-135795238D01*
X100761904Y-135890476D01*
X100809523Y-135985714D01*
X100857142Y-136176190D01*
X100857142Y-136319047D01*
X100809523Y-136509523D01*
X100761904Y-136604761D01*
X100666666Y-136700000D01*
X100523809Y-136747619D01*
X100428571Y-136747619D01*
X100285714Y-136700000D01*
X100238095Y-136652380D01*
X99809523Y-135747619D02*
X99809523Y-136747619D01*
X99380952Y-135747619D02*
X99380952Y-136271428D01*
X99428571Y-136366666D01*
X99523809Y-136414285D01*
X99666666Y-136414285D01*
X99761904Y-136366666D01*
X99809523Y-136319047D01*
X98904761Y-135747619D02*
X98904761Y-136747619D01*
X98809523Y-136128571D02*
X98523809Y-135747619D01*
X98523809Y-136414285D02*
X98904761Y-136033333D01*
X98095238Y-135842857D02*
X98047619Y-135795238D01*
X98095238Y-135747619D01*
X98142857Y-135795238D01*
X98095238Y-135842857D01*
X98095238Y-135747619D01*
X98095238Y-136366666D02*
X98047619Y-136319047D01*
X98095238Y-136271428D01*
X98142857Y-136319047D01*
X98095238Y-136366666D01*
X98095238Y-136271428D01*
X96333333Y-136700000D02*
X96428571Y-136747619D01*
X96571428Y-136747619D01*
X96714285Y-136700000D01*
X96809523Y-136604761D01*
X96857142Y-136509523D01*
X96904761Y-136319047D01*
X96904761Y-136176190D01*
X96857142Y-135985714D01*
X96809523Y-135890476D01*
X96714285Y-135795238D01*
X96571428Y-135747619D01*
X96476190Y-135747619D01*
X96333333Y-135795238D01*
X96285714Y-135842857D01*
X96285714Y-136176190D01*
X96476190Y-136176190D01*
X94761904Y-136271428D02*
X95095238Y-136271428D01*
X95095238Y-135747619D02*
X95095238Y-136747619D01*
X94619047Y-136747619D01*
X93809523Y-135747619D02*
X93809523Y-136271428D01*
X93857142Y-136366666D01*
X93952380Y-136414285D01*
X94142857Y-136414285D01*
X94238095Y-136366666D01*
X93809523Y-135795238D02*
X93904761Y-135747619D01*
X94142857Y-135747619D01*
X94238095Y-135795238D01*
X94285714Y-135890476D01*
X94285714Y-135985714D01*
X94238095Y-136080952D01*
X94142857Y-136128571D01*
X93904761Y-136128571D01*
X93809523Y-136176190D01*
X92904761Y-136414285D02*
X92904761Y-135747619D01*
X93333333Y-136414285D02*
X93333333Y-135890476D01*
X93285714Y-135795238D01*
X93190476Y-135747619D01*
X93047619Y-135747619D01*
X92952380Y-135795238D01*
X92904761Y-135842857D01*
X92285714Y-135747619D02*
X92380952Y-135795238D01*
X92428571Y-135890476D01*
X92428571Y-136747619D01*
X91904761Y-135747619D02*
X91904761Y-136747619D01*
X91809523Y-136128571D02*
X91523809Y-135747619D01*
X91523809Y-136414285D02*
X91904761Y-136033333D01*
X91095238Y-136414285D02*
X91095238Y-135747619D01*
X91095238Y-136319047D02*
X91047619Y-136366666D01*
X90952380Y-136414285D01*
X90809523Y-136414285D01*
X90714285Y-136366666D01*
X90666666Y-136271428D01*
X90666666Y-135747619D01*
X89809523Y-135795238D02*
X89904761Y-135747619D01*
X90095238Y-135747619D01*
X90190476Y-135795238D01*
X90238095Y-135890476D01*
X90238095Y-136271428D01*
X90190476Y-136366666D01*
X90095238Y-136414285D01*
X89904761Y-136414285D01*
X89809523Y-136366666D01*
X89761904Y-136271428D01*
X89761904Y-136176190D01*
X90238095Y-136080952D01*
X89333333Y-135747619D02*
X89333333Y-136414285D01*
X89333333Y-136223809D02*
X89285714Y-136319047D01*
X89238095Y-136366666D01*
X89142857Y-136414285D01*
X89047619Y-136414285D01*
X143904761Y-97652380D02*
X143904761Y-96652380D01*
X144142857Y-96652380D01*
X144285714Y-96700000D01*
X144380952Y-96795238D01*
X144428571Y-96890476D01*
X144476190Y-97080952D01*
X144476190Y-97223809D01*
X144428571Y-97414285D01*
X144380952Y-97509523D01*
X144285714Y-97604761D01*
X144142857Y-97652380D01*
X143904761Y-97652380D01*
X144857142Y-97604761D02*
X144952380Y-97652380D01*
X145142857Y-97652380D01*
X145238095Y-97604761D01*
X145285714Y-97509523D01*
X145285714Y-97461904D01*
X145238095Y-97366666D01*
X145142857Y-97319047D01*
X145000000Y-97319047D01*
X144904761Y-97271428D01*
X144857142Y-97176190D01*
X144857142Y-97128571D01*
X144904761Y-97033333D01*
X145000000Y-96985714D01*
X145142857Y-96985714D01*
X145238095Y-97033333D01*
X146142857Y-96985714D02*
X146142857Y-97795238D01*
X146095238Y-97890476D01*
X146047619Y-97938095D01*
X145952380Y-97985714D01*
X145809523Y-97985714D01*
X145714285Y-97938095D01*
X146142857Y-97604761D02*
X146047619Y-97652380D01*
X145857142Y-97652380D01*
X145761904Y-97604761D01*
X145714285Y-97557142D01*
X145666666Y-97461904D01*
X145666666Y-97176190D01*
X145714285Y-97080952D01*
X145761904Y-97033333D01*
X145857142Y-96985714D01*
X146047619Y-96985714D01*
X146142857Y-97033333D01*
X146619047Y-97557142D02*
X146666666Y-97604761D01*
X146619047Y-97652380D01*
X146571428Y-97604761D01*
X146619047Y-97557142D01*
X146619047Y-97652380D01*
X146619047Y-97033333D02*
X146666666Y-97080952D01*
X146619047Y-97128571D01*
X146571428Y-97080952D01*
X146619047Y-97033333D01*
X146619047Y-97128571D01*
X147761904Y-96652380D02*
X148000000Y-97652380D01*
X148190476Y-96938095D01*
X148380952Y-97652380D01*
X148619047Y-96652380D01*
X149761904Y-97652380D02*
X149761904Y-96652380D01*
X150095238Y-97366666D01*
X150428571Y-96652380D01*
X150428571Y-97652380D01*
X151333333Y-97652380D02*
X151333333Y-97128571D01*
X151285714Y-97033333D01*
X151190476Y-96985714D01*
X151000000Y-96985714D01*
X150904761Y-97033333D01*
X151333333Y-97604761D02*
X151238095Y-97652380D01*
X151000000Y-97652380D01*
X150904761Y-97604761D01*
X150857142Y-97509523D01*
X150857142Y-97414285D01*
X150904761Y-97319047D01*
X151000000Y-97271428D01*
X151238095Y-97271428D01*
X151333333Y-97223809D01*
X151666666Y-96985714D02*
X152047619Y-96985714D01*
X151809523Y-96652380D02*
X151809523Y-97509523D01*
X151857142Y-97604761D01*
X151952380Y-97652380D01*
X152047619Y-97652380D01*
X152238095Y-96985714D02*
X152619047Y-96985714D01*
X152380952Y-96652380D02*
X152380952Y-97509523D01*
X152428571Y-97604761D01*
X152523809Y-97652380D01*
X152619047Y-97652380D01*
X152952380Y-97652380D02*
X152952380Y-96652380D01*
X153380952Y-97652380D02*
X153380952Y-97128571D01*
X153333333Y-97033333D01*
X153238095Y-96985714D01*
X153095238Y-96985714D01*
X153000000Y-97033333D01*
X152952380Y-97080952D01*
X154238095Y-97604761D02*
X154142857Y-97652380D01*
X153952380Y-97652380D01*
X153857142Y-97604761D01*
X153809523Y-97509523D01*
X153809523Y-97128571D01*
X153857142Y-97033333D01*
X153952380Y-96985714D01*
X154142857Y-96985714D01*
X154238095Y-97033333D01*
X154285714Y-97128571D01*
X154285714Y-97223809D01*
X153809523Y-97319047D01*
X154619047Y-96985714D02*
X154809523Y-97652380D01*
X155000000Y-97176190D01*
X155190476Y-97652380D01*
X155380952Y-96985714D01*
X155714285Y-97604761D02*
X155809523Y-97652380D01*
X156000000Y-97652380D01*
X156095238Y-97604761D01*
X156142857Y-97509523D01*
X156142857Y-97461904D01*
X156095238Y-97366666D01*
X156000000Y-97319047D01*
X155857142Y-97319047D01*
X155761904Y-97271428D01*
X155714285Y-97176190D01*
X155714285Y-97128571D01*
X155761904Y-97033333D01*
X155857142Y-96985714D01*
X156000000Y-96985714D01*
X156095238Y-97033333D01*
X144761904Y-99157142D02*
X144714285Y-99204761D01*
X144571428Y-99252380D01*
X144476190Y-99252380D01*
X144333333Y-99204761D01*
X144238095Y-99109523D01*
X144190476Y-99014285D01*
X144142857Y-98823809D01*
X144142857Y-98680952D01*
X144190476Y-98490476D01*
X144238095Y-98395238D01*
X144333333Y-98300000D01*
X144476190Y-98252380D01*
X144571428Y-98252380D01*
X144714285Y-98300000D01*
X144761904Y-98347619D01*
X145190476Y-99252380D02*
X145190476Y-98252380D01*
X145619047Y-99252380D02*
X145619047Y-98728571D01*
X145571428Y-98633333D01*
X145476190Y-98585714D01*
X145333333Y-98585714D01*
X145238095Y-98633333D01*
X145190476Y-98680952D01*
X146095238Y-99252380D02*
X146095238Y-98252380D01*
X146190476Y-98871428D02*
X146476190Y-99252380D01*
X146476190Y-98585714D02*
X146095238Y-98966666D01*
X146904761Y-99157142D02*
X146952380Y-99204761D01*
X146904761Y-99252380D01*
X146857142Y-99204761D01*
X146904761Y-99157142D01*
X146904761Y-99252380D01*
X146904761Y-98633333D02*
X146952380Y-98680952D01*
X146904761Y-98728571D01*
X146857142Y-98680952D01*
X146904761Y-98633333D01*
X146904761Y-98728571D01*
X148666666Y-98300000D02*
X148571428Y-98252380D01*
X148428571Y-98252380D01*
X148285714Y-98300000D01*
X148190476Y-98395238D01*
X148142857Y-98490476D01*
X148095238Y-98680952D01*
X148095238Y-98823809D01*
X148142857Y-99014285D01*
X148190476Y-99109523D01*
X148285714Y-99204761D01*
X148428571Y-99252380D01*
X148523809Y-99252380D01*
X148666666Y-99204761D01*
X148714285Y-99157142D01*
X148714285Y-98823809D01*
X148523809Y-98823809D01*
X150238095Y-98728571D02*
X149904761Y-98728571D01*
X149904761Y-99252380D02*
X149904761Y-98252380D01*
X150380952Y-98252380D01*
X151190476Y-99252380D02*
X151190476Y-98728571D01*
X151142857Y-98633333D01*
X151047619Y-98585714D01*
X150857142Y-98585714D01*
X150761904Y-98633333D01*
X151190476Y-99204761D02*
X151095238Y-99252380D01*
X150857142Y-99252380D01*
X150761904Y-99204761D01*
X150714285Y-99109523D01*
X150714285Y-99014285D01*
X150761904Y-98919047D01*
X150857142Y-98871428D01*
X151095238Y-98871428D01*
X151190476Y-98823809D01*
X152095238Y-98585714D02*
X152095238Y-99252380D01*
X151666666Y-98585714D02*
X151666666Y-99109523D01*
X151714285Y-99204761D01*
X151809523Y-99252380D01*
X151952380Y-99252380D01*
X152047619Y-99204761D01*
X152095238Y-99157142D01*
X152714285Y-99252380D02*
X152619047Y-99204761D01*
X152571428Y-99109523D01*
X152571428Y-98252380D01*
X153095238Y-99252380D02*
X153095238Y-98252380D01*
X153190476Y-98871428D02*
X153476190Y-99252380D01*
X153476190Y-98585714D02*
X153095238Y-98966666D01*
X153904761Y-98585714D02*
X153904761Y-99252380D01*
X153904761Y-98680952D02*
X153952380Y-98633333D01*
X154047619Y-98585714D01*
X154190476Y-98585714D01*
X154285714Y-98633333D01*
X154333333Y-98728571D01*
X154333333Y-99252380D01*
X155190476Y-99204761D02*
X155095238Y-99252380D01*
X154904761Y-99252380D01*
X154809523Y-99204761D01*
X154761904Y-99109523D01*
X154761904Y-98728571D01*
X154809523Y-98633333D01*
X154904761Y-98585714D01*
X155095238Y-98585714D01*
X155190476Y-98633333D01*
X155238095Y-98728571D01*
X155238095Y-98823809D01*
X154761904Y-98919047D01*
X155666666Y-99252380D02*
X155666666Y-98585714D01*
X155666666Y-98776190D02*
X155714285Y-98680952D01*
X155761904Y-98633333D01*
X155857142Y-98585714D01*
X155952380Y-98585714D01*
X196095238Y-137347619D02*
X196095238Y-138347619D01*
X195857142Y-138347619D01*
X195714285Y-138300000D01*
X195619047Y-138204761D01*
X195571428Y-138109523D01*
X195523809Y-137919047D01*
X195523809Y-137776190D01*
X195571428Y-137585714D01*
X195619047Y-137490476D01*
X195714285Y-137395238D01*
X195857142Y-137347619D01*
X196095238Y-137347619D01*
X195142857Y-137395238D02*
X195047619Y-137347619D01*
X194857142Y-137347619D01*
X194761904Y-137395238D01*
X194714285Y-137490476D01*
X194714285Y-137538095D01*
X194761904Y-137633333D01*
X194857142Y-137680952D01*
X195000000Y-137680952D01*
X195095238Y-137728571D01*
X195142857Y-137823809D01*
X195142857Y-137871428D01*
X195095238Y-137966666D01*
X195000000Y-138014285D01*
X194857142Y-138014285D01*
X194761904Y-137966666D01*
X193857142Y-138014285D02*
X193857142Y-137204761D01*
X193904761Y-137109523D01*
X193952380Y-137061904D01*
X194047619Y-137014285D01*
X194190476Y-137014285D01*
X194285714Y-137061904D01*
X193857142Y-137395238D02*
X193952380Y-137347619D01*
X194142857Y-137347619D01*
X194238095Y-137395238D01*
X194285714Y-137442857D01*
X194333333Y-137538095D01*
X194333333Y-137823809D01*
X194285714Y-137919047D01*
X194238095Y-137966666D01*
X194142857Y-138014285D01*
X193952380Y-138014285D01*
X193857142Y-137966666D01*
X193380952Y-137442857D02*
X193333333Y-137395238D01*
X193380952Y-137347619D01*
X193428571Y-137395238D01*
X193380952Y-137442857D01*
X193380952Y-137347619D01*
X193380952Y-137966666D02*
X193333333Y-137919047D01*
X193380952Y-137871428D01*
X193428571Y-137919047D01*
X193380952Y-137966666D01*
X193380952Y-137871428D01*
X192238095Y-138347619D02*
X192000000Y-137347619D01*
X191809523Y-138061904D01*
X191619047Y-137347619D01*
X191380952Y-138347619D01*
X190238095Y-137347619D02*
X190238095Y-138347619D01*
X189904761Y-137633333D01*
X189571428Y-138347619D01*
X189571428Y-137347619D01*
X188666666Y-137347619D02*
X188666666Y-137871428D01*
X188714285Y-137966666D01*
X188809523Y-138014285D01*
X189000000Y-138014285D01*
X189095238Y-137966666D01*
X188666666Y-137395238D02*
X188761904Y-137347619D01*
X189000000Y-137347619D01*
X189095238Y-137395238D01*
X189142857Y-137490476D01*
X189142857Y-137585714D01*
X189095238Y-137680952D01*
X189000000Y-137728571D01*
X188761904Y-137728571D01*
X188666666Y-137776190D01*
X188333333Y-138014285D02*
X187952380Y-138014285D01*
X188190476Y-138347619D02*
X188190476Y-137490476D01*
X188142857Y-137395238D01*
X188047619Y-137347619D01*
X187952380Y-137347619D01*
X187761904Y-138014285D02*
X187380952Y-138014285D01*
X187619047Y-138347619D02*
X187619047Y-137490476D01*
X187571428Y-137395238D01*
X187476190Y-137347619D01*
X187380952Y-137347619D01*
X187047619Y-137347619D02*
X187047619Y-138347619D01*
X186619047Y-137347619D02*
X186619047Y-137871428D01*
X186666666Y-137966666D01*
X186761904Y-138014285D01*
X186904761Y-138014285D01*
X187000000Y-137966666D01*
X187047619Y-137919047D01*
X185761904Y-137395238D02*
X185857142Y-137347619D01*
X186047619Y-137347619D01*
X186142857Y-137395238D01*
X186190476Y-137490476D01*
X186190476Y-137871428D01*
X186142857Y-137966666D01*
X186047619Y-138014285D01*
X185857142Y-138014285D01*
X185761904Y-137966666D01*
X185714285Y-137871428D01*
X185714285Y-137776190D01*
X186190476Y-137680952D01*
X185380952Y-138014285D02*
X185190476Y-137347619D01*
X185000000Y-137823809D01*
X184809523Y-137347619D01*
X184619047Y-138014285D01*
X184285714Y-137395238D02*
X184190476Y-137347619D01*
X184000000Y-137347619D01*
X183904761Y-137395238D01*
X183857142Y-137490476D01*
X183857142Y-137538095D01*
X183904761Y-137633333D01*
X184000000Y-137680952D01*
X184142857Y-137680952D01*
X184238095Y-137728571D01*
X184285714Y-137823809D01*
X184285714Y-137871428D01*
X184238095Y-137966666D01*
X184142857Y-138014285D01*
X184000000Y-138014285D01*
X183904761Y-137966666D01*
X195238095Y-135842857D02*
X195285714Y-135795238D01*
X195428571Y-135747619D01*
X195523809Y-135747619D01*
X195666666Y-135795238D01*
X195761904Y-135890476D01*
X195809523Y-135985714D01*
X195857142Y-136176190D01*
X195857142Y-136319047D01*
X195809523Y-136509523D01*
X195761904Y-136604761D01*
X195666666Y-136700000D01*
X195523809Y-136747619D01*
X195428571Y-136747619D01*
X195285714Y-136700000D01*
X195238095Y-136652380D01*
X194809523Y-135747619D02*
X194809523Y-136747619D01*
X194380952Y-135747619D02*
X194380952Y-136271428D01*
X194428571Y-136366666D01*
X194523809Y-136414285D01*
X194666666Y-136414285D01*
X194761904Y-136366666D01*
X194809523Y-136319047D01*
X193904761Y-135747619D02*
X193904761Y-136747619D01*
X193809523Y-136128571D02*
X193523809Y-135747619D01*
X193523809Y-136414285D02*
X193904761Y-136033333D01*
X193095238Y-135842857D02*
X193047619Y-135795238D01*
X193095238Y-135747619D01*
X193142857Y-135795238D01*
X193095238Y-135842857D01*
X193095238Y-135747619D01*
X193095238Y-136366666D02*
X193047619Y-136319047D01*
X193095238Y-136271428D01*
X193142857Y-136319047D01*
X193095238Y-136366666D01*
X193095238Y-136271428D01*
X191333333Y-136700000D02*
X191428571Y-136747619D01*
X191571428Y-136747619D01*
X191714285Y-136700000D01*
X191809523Y-136604761D01*
X191857142Y-136509523D01*
X191904761Y-136319047D01*
X191904761Y-136176190D01*
X191857142Y-135985714D01*
X191809523Y-135890476D01*
X191714285Y-135795238D01*
X191571428Y-135747619D01*
X191476190Y-135747619D01*
X191333333Y-135795238D01*
X191285714Y-135842857D01*
X191285714Y-136176190D01*
X191476190Y-136176190D01*
X189761904Y-136271428D02*
X190095238Y-136271428D01*
X190095238Y-135747619D02*
X190095238Y-136747619D01*
X189619047Y-136747619D01*
X188809523Y-135747619D02*
X188809523Y-136271428D01*
X188857142Y-136366666D01*
X188952380Y-136414285D01*
X189142857Y-136414285D01*
X189238095Y-136366666D01*
X188809523Y-135795238D02*
X188904761Y-135747619D01*
X189142857Y-135747619D01*
X189238095Y-135795238D01*
X189285714Y-135890476D01*
X189285714Y-135985714D01*
X189238095Y-136080952D01*
X189142857Y-136128571D01*
X188904761Y-136128571D01*
X188809523Y-136176190D01*
X187904761Y-136414285D02*
X187904761Y-135747619D01*
X188333333Y-136414285D02*
X188333333Y-135890476D01*
X188285714Y-135795238D01*
X188190476Y-135747619D01*
X188047619Y-135747619D01*
X187952380Y-135795238D01*
X187904761Y-135842857D01*
X187285714Y-135747619D02*
X187380952Y-135795238D01*
X187428571Y-135890476D01*
X187428571Y-136747619D01*
X186904761Y-135747619D02*
X186904761Y-136747619D01*
X186809523Y-136128571D02*
X186523809Y-135747619D01*
X186523809Y-136414285D02*
X186904761Y-136033333D01*
X186095238Y-136414285D02*
X186095238Y-135747619D01*
X186095238Y-136319047D02*
X186047619Y-136366666D01*
X185952380Y-136414285D01*
X185809523Y-136414285D01*
X185714285Y-136366666D01*
X185666666Y-136271428D01*
X185666666Y-135747619D01*
X184809523Y-135795238D02*
X184904761Y-135747619D01*
X185095238Y-135747619D01*
X185190476Y-135795238D01*
X185238095Y-135890476D01*
X185238095Y-136271428D01*
X185190476Y-136366666D01*
X185095238Y-136414285D01*
X184904761Y-136414285D01*
X184809523Y-136366666D01*
X184761904Y-136271428D01*
X184761904Y-136176190D01*
X185238095Y-136080952D01*
X184333333Y-135747619D02*
X184333333Y-136414285D01*
X184333333Y-136223809D02*
X184285714Y-136319047D01*
X184238095Y-136366666D01*
X184142857Y-136414285D01*
X184047619Y-136414285D01*
X196095238Y-77347619D02*
X196095238Y-78347619D01*
X195857142Y-78347619D01*
X195714285Y-78300000D01*
X195619047Y-78204761D01*
X195571428Y-78109523D01*
X195523809Y-77919047D01*
X195523809Y-77776190D01*
X195571428Y-77585714D01*
X195619047Y-77490476D01*
X195714285Y-77395238D01*
X195857142Y-77347619D01*
X196095238Y-77347619D01*
X195142857Y-77395238D02*
X195047619Y-77347619D01*
X194857142Y-77347619D01*
X194761904Y-77395238D01*
X194714285Y-77490476D01*
X194714285Y-77538095D01*
X194761904Y-77633333D01*
X194857142Y-77680952D01*
X195000000Y-77680952D01*
X195095238Y-77728571D01*
X195142857Y-77823809D01*
X195142857Y-77871428D01*
X195095238Y-77966666D01*
X195000000Y-78014285D01*
X194857142Y-78014285D01*
X194761904Y-77966666D01*
X193857142Y-78014285D02*
X193857142Y-77204761D01*
X193904761Y-77109523D01*
X193952380Y-77061904D01*
X194047619Y-77014285D01*
X194190476Y-77014285D01*
X194285714Y-77061904D01*
X193857142Y-77395238D02*
X193952380Y-77347619D01*
X194142857Y-77347619D01*
X194238095Y-77395238D01*
X194285714Y-77442857D01*
X194333333Y-77538095D01*
X194333333Y-77823809D01*
X194285714Y-77919047D01*
X194238095Y-77966666D01*
X194142857Y-78014285D01*
X193952380Y-78014285D01*
X193857142Y-77966666D01*
X193380952Y-77442857D02*
X193333333Y-77395238D01*
X193380952Y-77347619D01*
X193428571Y-77395238D01*
X193380952Y-77442857D01*
X193380952Y-77347619D01*
X193380952Y-77966666D02*
X193333333Y-77919047D01*
X193380952Y-77871428D01*
X193428571Y-77919047D01*
X193380952Y-77966666D01*
X193380952Y-77871428D01*
X192238095Y-78347619D02*
X192000000Y-77347619D01*
X191809523Y-78061904D01*
X191619047Y-77347619D01*
X191380952Y-78347619D01*
X190238095Y-77347619D02*
X190238095Y-78347619D01*
X189904761Y-77633333D01*
X189571428Y-78347619D01*
X189571428Y-77347619D01*
X188666666Y-77347619D02*
X188666666Y-77871428D01*
X188714285Y-77966666D01*
X188809523Y-78014285D01*
X189000000Y-78014285D01*
X189095238Y-77966666D01*
X188666666Y-77395238D02*
X188761904Y-77347619D01*
X189000000Y-77347619D01*
X189095238Y-77395238D01*
X189142857Y-77490476D01*
X189142857Y-77585714D01*
X189095238Y-77680952D01*
X189000000Y-77728571D01*
X188761904Y-77728571D01*
X188666666Y-77776190D01*
X188333333Y-78014285D02*
X187952380Y-78014285D01*
X188190476Y-78347619D02*
X188190476Y-77490476D01*
X188142857Y-77395238D01*
X188047619Y-77347619D01*
X187952380Y-77347619D01*
X187761904Y-78014285D02*
X187380952Y-78014285D01*
X187619047Y-78347619D02*
X187619047Y-77490476D01*
X187571428Y-77395238D01*
X187476190Y-77347619D01*
X187380952Y-77347619D01*
X187047619Y-77347619D02*
X187047619Y-78347619D01*
X186619047Y-77347619D02*
X186619047Y-77871428D01*
X186666666Y-77966666D01*
X186761904Y-78014285D01*
X186904761Y-78014285D01*
X187000000Y-77966666D01*
X187047619Y-77919047D01*
X185761904Y-77395238D02*
X185857142Y-77347619D01*
X186047619Y-77347619D01*
X186142857Y-77395238D01*
X186190476Y-77490476D01*
X186190476Y-77871428D01*
X186142857Y-77966666D01*
X186047619Y-78014285D01*
X185857142Y-78014285D01*
X185761904Y-77966666D01*
X185714285Y-77871428D01*
X185714285Y-77776190D01*
X186190476Y-77680952D01*
X185380952Y-78014285D02*
X185190476Y-77347619D01*
X185000000Y-77823809D01*
X184809523Y-77347619D01*
X184619047Y-78014285D01*
X184285714Y-77395238D02*
X184190476Y-77347619D01*
X184000000Y-77347619D01*
X183904761Y-77395238D01*
X183857142Y-77490476D01*
X183857142Y-77538095D01*
X183904761Y-77633333D01*
X184000000Y-77680952D01*
X184142857Y-77680952D01*
X184238095Y-77728571D01*
X184285714Y-77823809D01*
X184285714Y-77871428D01*
X184238095Y-77966666D01*
X184142857Y-78014285D01*
X184000000Y-78014285D01*
X183904761Y-77966666D01*
X195238095Y-75842857D02*
X195285714Y-75795238D01*
X195428571Y-75747619D01*
X195523809Y-75747619D01*
X195666666Y-75795238D01*
X195761904Y-75890476D01*
X195809523Y-75985714D01*
X195857142Y-76176190D01*
X195857142Y-76319047D01*
X195809523Y-76509523D01*
X195761904Y-76604761D01*
X195666666Y-76700000D01*
X195523809Y-76747619D01*
X195428571Y-76747619D01*
X195285714Y-76700000D01*
X195238095Y-76652380D01*
X194809523Y-75747619D02*
X194809523Y-76747619D01*
X194380952Y-75747619D02*
X194380952Y-76271428D01*
X194428571Y-76366666D01*
X194523809Y-76414285D01*
X194666666Y-76414285D01*
X194761904Y-76366666D01*
X194809523Y-76319047D01*
X193904761Y-75747619D02*
X193904761Y-76747619D01*
X193809523Y-76128571D02*
X193523809Y-75747619D01*
X193523809Y-76414285D02*
X193904761Y-76033333D01*
X193095238Y-75842857D02*
X193047619Y-75795238D01*
X193095238Y-75747619D01*
X193142857Y-75795238D01*
X193095238Y-75842857D01*
X193095238Y-75747619D01*
X193095238Y-76366666D02*
X193047619Y-76319047D01*
X193095238Y-76271428D01*
X193142857Y-76319047D01*
X193095238Y-76366666D01*
X193095238Y-76271428D01*
X191333333Y-76700000D02*
X191428571Y-76747619D01*
X191571428Y-76747619D01*
X191714285Y-76700000D01*
X191809523Y-76604761D01*
X191857142Y-76509523D01*
X191904761Y-76319047D01*
X191904761Y-76176190D01*
X191857142Y-75985714D01*
X191809523Y-75890476D01*
X191714285Y-75795238D01*
X191571428Y-75747619D01*
X191476190Y-75747619D01*
X191333333Y-75795238D01*
X191285714Y-75842857D01*
X191285714Y-76176190D01*
X191476190Y-76176190D01*
X189761904Y-76271428D02*
X190095238Y-76271428D01*
X190095238Y-75747619D02*
X190095238Y-76747619D01*
X189619047Y-76747619D01*
X188809523Y-75747619D02*
X188809523Y-76271428D01*
X188857142Y-76366666D01*
X188952380Y-76414285D01*
X189142857Y-76414285D01*
X189238095Y-76366666D01*
X188809523Y-75795238D02*
X188904761Y-75747619D01*
X189142857Y-75747619D01*
X189238095Y-75795238D01*
X189285714Y-75890476D01*
X189285714Y-75985714D01*
X189238095Y-76080952D01*
X189142857Y-76128571D01*
X188904761Y-76128571D01*
X188809523Y-76176190D01*
X187904761Y-76414285D02*
X187904761Y-75747619D01*
X188333333Y-76414285D02*
X188333333Y-75890476D01*
X188285714Y-75795238D01*
X188190476Y-75747619D01*
X188047619Y-75747619D01*
X187952380Y-75795238D01*
X187904761Y-75842857D01*
X187285714Y-75747619D02*
X187380952Y-75795238D01*
X187428571Y-75890476D01*
X187428571Y-76747619D01*
X186904761Y-75747619D02*
X186904761Y-76747619D01*
X186809523Y-76128571D02*
X186523809Y-75747619D01*
X186523809Y-76414285D02*
X186904761Y-76033333D01*
X186095238Y-76414285D02*
X186095238Y-75747619D01*
X186095238Y-76319047D02*
X186047619Y-76366666D01*
X185952380Y-76414285D01*
X185809523Y-76414285D01*
X185714285Y-76366666D01*
X185666666Y-76271428D01*
X185666666Y-75747619D01*
X184809523Y-75795238D02*
X184904761Y-75747619D01*
X185095238Y-75747619D01*
X185190476Y-75795238D01*
X185238095Y-75890476D01*
X185238095Y-76271428D01*
X185190476Y-76366666D01*
X185095238Y-76414285D01*
X184904761Y-76414285D01*
X184809523Y-76366666D01*
X184761904Y-76271428D01*
X184761904Y-76176190D01*
X185238095Y-76080952D01*
X184333333Y-75747619D02*
X184333333Y-76414285D01*
X184333333Y-76223809D02*
X184285714Y-76319047D01*
X184238095Y-76366666D01*
X184142857Y-76414285D01*
X184047619Y-76414285D01*
X143904761Y-37652380D02*
X143904761Y-36652380D01*
X144142857Y-36652380D01*
X144285714Y-36700000D01*
X144380952Y-36795238D01*
X144428571Y-36890476D01*
X144476190Y-37080952D01*
X144476190Y-37223809D01*
X144428571Y-37414285D01*
X144380952Y-37509523D01*
X144285714Y-37604761D01*
X144142857Y-37652380D01*
X143904761Y-37652380D01*
X144857142Y-37604761D02*
X144952380Y-37652380D01*
X145142857Y-37652380D01*
X145238095Y-37604761D01*
X145285714Y-37509523D01*
X145285714Y-37461904D01*
X145238095Y-37366666D01*
X145142857Y-37319047D01*
X145000000Y-37319047D01*
X144904761Y-37271428D01*
X144857142Y-37176190D01*
X144857142Y-37128571D01*
X144904761Y-37033333D01*
X145000000Y-36985714D01*
X145142857Y-36985714D01*
X145238095Y-37033333D01*
X146142857Y-36985714D02*
X146142857Y-37795238D01*
X146095238Y-37890476D01*
X146047619Y-37938095D01*
X145952380Y-37985714D01*
X145809523Y-37985714D01*
X145714285Y-37938095D01*
X146142857Y-37604761D02*
X146047619Y-37652380D01*
X145857142Y-37652380D01*
X145761904Y-37604761D01*
X145714285Y-37557142D01*
X145666666Y-37461904D01*
X145666666Y-37176190D01*
X145714285Y-37080952D01*
X145761904Y-37033333D01*
X145857142Y-36985714D01*
X146047619Y-36985714D01*
X146142857Y-37033333D01*
X146619047Y-37557142D02*
X146666666Y-37604761D01*
X146619047Y-37652380D01*
X146571428Y-37604761D01*
X146619047Y-37557142D01*
X146619047Y-37652380D01*
X146619047Y-37033333D02*
X146666666Y-37080952D01*
X146619047Y-37128571D01*
X146571428Y-37080952D01*
X146619047Y-37033333D01*
X146619047Y-37128571D01*
X147761904Y-36652380D02*
X148000000Y-37652380D01*
X148190476Y-36938095D01*
X148380952Y-37652380D01*
X148619047Y-36652380D01*
X149761904Y-37652380D02*
X149761904Y-36652380D01*
X150095238Y-37366666D01*
X150428571Y-36652380D01*
X150428571Y-37652380D01*
X151333333Y-37652380D02*
X151333333Y-37128571D01*
X151285714Y-37033333D01*
X151190476Y-36985714D01*
X151000000Y-36985714D01*
X150904761Y-37033333D01*
X151333333Y-37604761D02*
X151238095Y-37652380D01*
X151000000Y-37652380D01*
X150904761Y-37604761D01*
X150857142Y-37509523D01*
X150857142Y-37414285D01*
X150904761Y-37319047D01*
X151000000Y-37271428D01*
X151238095Y-37271428D01*
X151333333Y-37223809D01*
X151666666Y-36985714D02*
X152047619Y-36985714D01*
X151809523Y-36652380D02*
X151809523Y-37509523D01*
X151857142Y-37604761D01*
X151952380Y-37652380D01*
X152047619Y-37652380D01*
X152238095Y-36985714D02*
X152619047Y-36985714D01*
X152380952Y-36652380D02*
X152380952Y-37509523D01*
X152428571Y-37604761D01*
X152523809Y-37652380D01*
X152619047Y-37652380D01*
X152952380Y-37652380D02*
X152952380Y-36652380D01*
X153380952Y-37652380D02*
X153380952Y-37128571D01*
X153333333Y-37033333D01*
X153238095Y-36985714D01*
X153095238Y-36985714D01*
X153000000Y-37033333D01*
X152952380Y-37080952D01*
X154238095Y-37604761D02*
X154142857Y-37652380D01*
X153952380Y-37652380D01*
X153857142Y-37604761D01*
X153809523Y-37509523D01*
X153809523Y-37128571D01*
X153857142Y-37033333D01*
X153952380Y-36985714D01*
X154142857Y-36985714D01*
X154238095Y-37033333D01*
X154285714Y-37128571D01*
X154285714Y-37223809D01*
X153809523Y-37319047D01*
X154619047Y-36985714D02*
X154809523Y-37652380D01*
X155000000Y-37176190D01*
X155190476Y-37652380D01*
X155380952Y-36985714D01*
X155714285Y-37604761D02*
X155809523Y-37652380D01*
X156000000Y-37652380D01*
X156095238Y-37604761D01*
X156142857Y-37509523D01*
X156142857Y-37461904D01*
X156095238Y-37366666D01*
X156000000Y-37319047D01*
X155857142Y-37319047D01*
X155761904Y-37271428D01*
X155714285Y-37176190D01*
X155714285Y-37128571D01*
X155761904Y-37033333D01*
X155857142Y-36985714D01*
X156000000Y-36985714D01*
X156095238Y-37033333D01*
X144380952Y-39157142D02*
X144333333Y-39204761D01*
X144190476Y-39252380D01*
X144095238Y-39252380D01*
X143952380Y-39204761D01*
X143857142Y-39109523D01*
X143809523Y-39014285D01*
X143761904Y-38823809D01*
X143761904Y-38680952D01*
X143809523Y-38490476D01*
X143857142Y-38395238D01*
X143952380Y-38300000D01*
X144095238Y-38252380D01*
X144190476Y-38252380D01*
X144333333Y-38300000D01*
X144380952Y-38347619D01*
X144809523Y-39252380D02*
X144809523Y-38252380D01*
X145238095Y-39252380D02*
X145238095Y-38728571D01*
X145190476Y-38633333D01*
X145095238Y-38585714D01*
X144952380Y-38585714D01*
X144857142Y-38633333D01*
X144809523Y-38680952D01*
X145714285Y-39252380D02*
X145714285Y-38252380D01*
X145809523Y-38871428D02*
X146095238Y-39252380D01*
X146095238Y-38585714D02*
X145714285Y-38966666D01*
X146523809Y-39157142D02*
X146571428Y-39204761D01*
X146523809Y-39252380D01*
X146476190Y-39204761D01*
X146523809Y-39157142D01*
X146523809Y-39252380D01*
X146523809Y-38633333D02*
X146571428Y-38680952D01*
X146523809Y-38728571D01*
X146476190Y-38680952D01*
X146523809Y-38633333D01*
X146523809Y-38728571D01*
X148285714Y-38300000D02*
X148190476Y-38252380D01*
X148047619Y-38252380D01*
X147904761Y-38300000D01*
X147809523Y-38395238D01*
X147761904Y-38490476D01*
X147714285Y-38680952D01*
X147714285Y-38823809D01*
X147761904Y-39014285D01*
X147809523Y-39109523D01*
X147904761Y-39204761D01*
X148047619Y-39252380D01*
X148142857Y-39252380D01*
X148285714Y-39204761D01*
X148333333Y-39157142D01*
X148333333Y-38823809D01*
X148142857Y-38823809D01*
X149857142Y-38728571D02*
X149523809Y-38728571D01*
X149523809Y-39252380D02*
X149523809Y-38252380D01*
X150000000Y-38252380D01*
X150809523Y-39252380D02*
X150809523Y-38728571D01*
X150761904Y-38633333D01*
X150666666Y-38585714D01*
X150476190Y-38585714D01*
X150380952Y-38633333D01*
X150809523Y-39204761D02*
X150714285Y-39252380D01*
X150476190Y-39252380D01*
X150380952Y-39204761D01*
X150333333Y-39109523D01*
X150333333Y-39014285D01*
X150380952Y-38919047D01*
X150476190Y-38871428D01*
X150714285Y-38871428D01*
X150809523Y-38823809D01*
X151714285Y-38585714D02*
X151714285Y-39252380D01*
X151285714Y-38585714D02*
X151285714Y-39109523D01*
X151333333Y-39204761D01*
X151428571Y-39252380D01*
X151571428Y-39252380D01*
X151666666Y-39204761D01*
X151714285Y-39157142D01*
X152333333Y-39252380D02*
X152238095Y-39204761D01*
X152190476Y-39109523D01*
X152190476Y-38252380D01*
X152714285Y-39252380D02*
X152714285Y-38252380D01*
X152809523Y-38871428D02*
X153095238Y-39252380D01*
X153095238Y-38585714D02*
X152714285Y-38966666D01*
X153523809Y-38585714D02*
X153523809Y-39252380D01*
X153523809Y-38680952D02*
X153571428Y-38633333D01*
X153666666Y-38585714D01*
X153809523Y-38585714D01*
X153904761Y-38633333D01*
X153952380Y-38728571D01*
X153952380Y-39252380D01*
X154809523Y-39204761D02*
X154714285Y-39252380D01*
X154523809Y-39252380D01*
X154428571Y-39204761D01*
X154380952Y-39109523D01*
X154380952Y-38728571D01*
X154428571Y-38633333D01*
X154523809Y-38585714D01*
X154714285Y-38585714D01*
X154809523Y-38633333D01*
X154857142Y-38728571D01*
X154857142Y-38823809D01*
X154380952Y-38919047D01*
X155285714Y-39252380D02*
X155285714Y-38585714D01*
X155285714Y-38776190D02*
X155333333Y-38680952D01*
X155380952Y-38633333D01*
X155476190Y-38585714D01*
X155571428Y-38585714D01*
X101095238Y-77347619D02*
X101095238Y-78347619D01*
X100857142Y-78347619D01*
X100714285Y-78300000D01*
X100619047Y-78204761D01*
X100571428Y-78109523D01*
X100523809Y-77919047D01*
X100523809Y-77776190D01*
X100571428Y-77585714D01*
X100619047Y-77490476D01*
X100714285Y-77395238D01*
X100857142Y-77347619D01*
X101095238Y-77347619D01*
X100142857Y-77395238D02*
X100047619Y-77347619D01*
X99857142Y-77347619D01*
X99761904Y-77395238D01*
X99714285Y-77490476D01*
X99714285Y-77538095D01*
X99761904Y-77633333D01*
X99857142Y-77680952D01*
X100000000Y-77680952D01*
X100095238Y-77728571D01*
X100142857Y-77823809D01*
X100142857Y-77871428D01*
X100095238Y-77966666D01*
X100000000Y-78014285D01*
X99857142Y-78014285D01*
X99761904Y-77966666D01*
X98857142Y-78014285D02*
X98857142Y-77204761D01*
X98904761Y-77109523D01*
X98952380Y-77061904D01*
X99047619Y-77014285D01*
X99190476Y-77014285D01*
X99285714Y-77061904D01*
X98857142Y-77395238D02*
X98952380Y-77347619D01*
X99142857Y-77347619D01*
X99238095Y-77395238D01*
X99285714Y-77442857D01*
X99333333Y-77538095D01*
X99333333Y-77823809D01*
X99285714Y-77919047D01*
X99238095Y-77966666D01*
X99142857Y-78014285D01*
X98952380Y-78014285D01*
X98857142Y-77966666D01*
X98380952Y-77442857D02*
X98333333Y-77395238D01*
X98380952Y-77347619D01*
X98428571Y-77395238D01*
X98380952Y-77442857D01*
X98380952Y-77347619D01*
X98380952Y-77966666D02*
X98333333Y-77919047D01*
X98380952Y-77871428D01*
X98428571Y-77919047D01*
X98380952Y-77966666D01*
X98380952Y-77871428D01*
X97238095Y-78347619D02*
X97000000Y-77347619D01*
X96809523Y-78061904D01*
X96619047Y-77347619D01*
X96380952Y-78347619D01*
X95238095Y-77347619D02*
X95238095Y-78347619D01*
X94904761Y-77633333D01*
X94571428Y-78347619D01*
X94571428Y-77347619D01*
X93666666Y-77347619D02*
X93666666Y-77871428D01*
X93714285Y-77966666D01*
X93809523Y-78014285D01*
X94000000Y-78014285D01*
X94095238Y-77966666D01*
X93666666Y-77395238D02*
X93761904Y-77347619D01*
X94000000Y-77347619D01*
X94095238Y-77395238D01*
X94142857Y-77490476D01*
X94142857Y-77585714D01*
X94095238Y-77680952D01*
X94000000Y-77728571D01*
X93761904Y-77728571D01*
X93666666Y-77776190D01*
X93333333Y-78014285D02*
X92952380Y-78014285D01*
X93190476Y-78347619D02*
X93190476Y-77490476D01*
X93142857Y-77395238D01*
X93047619Y-77347619D01*
X92952380Y-77347619D01*
X92761904Y-78014285D02*
X92380952Y-78014285D01*
X92619047Y-78347619D02*
X92619047Y-77490476D01*
X92571428Y-77395238D01*
X92476190Y-77347619D01*
X92380952Y-77347619D01*
X92047619Y-77347619D02*
X92047619Y-78347619D01*
X91619047Y-77347619D02*
X91619047Y-77871428D01*
X91666666Y-77966666D01*
X91761904Y-78014285D01*
X91904761Y-78014285D01*
X92000000Y-77966666D01*
X92047619Y-77919047D01*
X90761904Y-77395238D02*
X90857142Y-77347619D01*
X91047619Y-77347619D01*
X91142857Y-77395238D01*
X91190476Y-77490476D01*
X91190476Y-77871428D01*
X91142857Y-77966666D01*
X91047619Y-78014285D01*
X90857142Y-78014285D01*
X90761904Y-77966666D01*
X90714285Y-77871428D01*
X90714285Y-77776190D01*
X91190476Y-77680952D01*
X90380952Y-78014285D02*
X90190476Y-77347619D01*
X90000000Y-77823809D01*
X89809523Y-77347619D01*
X89619047Y-78014285D01*
X89285714Y-77395238D02*
X89190476Y-77347619D01*
X89000000Y-77347619D01*
X88904761Y-77395238D01*
X88857142Y-77490476D01*
X88857142Y-77538095D01*
X88904761Y-77633333D01*
X89000000Y-77680952D01*
X89142857Y-77680952D01*
X89238095Y-77728571D01*
X89285714Y-77823809D01*
X89285714Y-77871428D01*
X89238095Y-77966666D01*
X89142857Y-78014285D01*
X89000000Y-78014285D01*
X88904761Y-77966666D01*
X100238095Y-75842857D02*
X100285714Y-75795238D01*
X100428571Y-75747619D01*
X100523809Y-75747619D01*
X100666666Y-75795238D01*
X100761904Y-75890476D01*
X100809523Y-75985714D01*
X100857142Y-76176190D01*
X100857142Y-76319047D01*
X100809523Y-76509523D01*
X100761904Y-76604761D01*
X100666666Y-76700000D01*
X100523809Y-76747619D01*
X100428571Y-76747619D01*
X100285714Y-76700000D01*
X100238095Y-76652380D01*
X99809523Y-75747619D02*
X99809523Y-76747619D01*
X99380952Y-75747619D02*
X99380952Y-76271428D01*
X99428571Y-76366666D01*
X99523809Y-76414285D01*
X99666666Y-76414285D01*
X99761904Y-76366666D01*
X99809523Y-76319047D01*
X98904761Y-75747619D02*
X98904761Y-76747619D01*
X98809523Y-76128571D02*
X98523809Y-75747619D01*
X98523809Y-76414285D02*
X98904761Y-76033333D01*
X98095238Y-75842857D02*
X98047619Y-75795238D01*
X98095238Y-75747619D01*
X98142857Y-75795238D01*
X98095238Y-75842857D01*
X98095238Y-75747619D01*
X98095238Y-76366666D02*
X98047619Y-76319047D01*
X98095238Y-76271428D01*
X98142857Y-76319047D01*
X98095238Y-76366666D01*
X98095238Y-76271428D01*
X96333333Y-76700000D02*
X96428571Y-76747619D01*
X96571428Y-76747619D01*
X96714285Y-76700000D01*
X96809523Y-76604761D01*
X96857142Y-76509523D01*
X96904761Y-76319047D01*
X96904761Y-76176190D01*
X96857142Y-75985714D01*
X96809523Y-75890476D01*
X96714285Y-75795238D01*
X96571428Y-75747619D01*
X96476190Y-75747619D01*
X96333333Y-75795238D01*
X96285714Y-75842857D01*
X96285714Y-76176190D01*
X96476190Y-76176190D01*
X94761904Y-76271428D02*
X95095238Y-76271428D01*
X95095238Y-75747619D02*
X95095238Y-76747619D01*
X94619047Y-76747619D01*
X93809523Y-75747619D02*
X93809523Y-76271428D01*
X93857142Y-76366666D01*
X93952380Y-76414285D01*
X94142857Y-76414285D01*
X94238095Y-76366666D01*
X93809523Y-75795238D02*
X93904761Y-75747619D01*
X94142857Y-75747619D01*
X94238095Y-75795238D01*
X94285714Y-75890476D01*
X94285714Y-75985714D01*
X94238095Y-76080952D01*
X94142857Y-76128571D01*
X93904761Y-76128571D01*
X93809523Y-76176190D01*
X92904761Y-76414285D02*
X92904761Y-75747619D01*
X93333333Y-76414285D02*
X93333333Y-75890476D01*
X93285714Y-75795238D01*
X93190476Y-75747619D01*
X93047619Y-75747619D01*
X92952380Y-75795238D01*
X92904761Y-75842857D01*
X92285714Y-75747619D02*
X92380952Y-75795238D01*
X92428571Y-75890476D01*
X92428571Y-76747619D01*
X91904761Y-75747619D02*
X91904761Y-76747619D01*
X91809523Y-76128571D02*
X91523809Y-75747619D01*
X91523809Y-76414285D02*
X91904761Y-76033333D01*
X91095238Y-76414285D02*
X91095238Y-75747619D01*
X91095238Y-76319047D02*
X91047619Y-76366666D01*
X90952380Y-76414285D01*
X90809523Y-76414285D01*
X90714285Y-76366666D01*
X90666666Y-76271428D01*
X90666666Y-75747619D01*
X89809523Y-75795238D02*
X89904761Y-75747619D01*
X90095238Y-75747619D01*
X90190476Y-75795238D01*
X90238095Y-75890476D01*
X90238095Y-76271428D01*
X90190476Y-76366666D01*
X90095238Y-76414285D01*
X89904761Y-76414285D01*
X89809523Y-76366666D01*
X89761904Y-76271428D01*
X89761904Y-76176190D01*
X90238095Y-76080952D01*
X89333333Y-75747619D02*
X89333333Y-76414285D01*
X89333333Y-76223809D02*
X89285714Y-76319047D01*
X89238095Y-76366666D01*
X89142857Y-76414285D01*
X89047619Y-76414285D01*
X48904761Y-37652380D02*
X48904761Y-36652380D01*
X49142857Y-36652380D01*
X49285714Y-36700000D01*
X49380952Y-36795238D01*
X49428571Y-36890476D01*
X49476190Y-37080952D01*
X49476190Y-37223809D01*
X49428571Y-37414285D01*
X49380952Y-37509523D01*
X49285714Y-37604761D01*
X49142857Y-37652380D01*
X48904761Y-37652380D01*
X49857142Y-37604761D02*
X49952380Y-37652380D01*
X50142857Y-37652380D01*
X50238095Y-37604761D01*
X50285714Y-37509523D01*
X50285714Y-37461904D01*
X50238095Y-37366666D01*
X50142857Y-37319047D01*
X50000000Y-37319047D01*
X49904761Y-37271428D01*
X49857142Y-37176190D01*
X49857142Y-37128571D01*
X49904761Y-37033333D01*
X50000000Y-36985714D01*
X50142857Y-36985714D01*
X50238095Y-37033333D01*
X51142857Y-36985714D02*
X51142857Y-37795238D01*
X51095238Y-37890476D01*
X51047619Y-37938095D01*
X50952380Y-37985714D01*
X50809523Y-37985714D01*
X50714285Y-37938095D01*
X51142857Y-37604761D02*
X51047619Y-37652380D01*
X50857142Y-37652380D01*
X50761904Y-37604761D01*
X50714285Y-37557142D01*
X50666666Y-37461904D01*
X50666666Y-37176190D01*
X50714285Y-37080952D01*
X50761904Y-37033333D01*
X50857142Y-36985714D01*
X51047619Y-36985714D01*
X51142857Y-37033333D01*
X51619047Y-37557142D02*
X51666666Y-37604761D01*
X51619047Y-37652380D01*
X51571428Y-37604761D01*
X51619047Y-37557142D01*
X51619047Y-37652380D01*
X51619047Y-37033333D02*
X51666666Y-37080952D01*
X51619047Y-37128571D01*
X51571428Y-37080952D01*
X51619047Y-37033333D01*
X51619047Y-37128571D01*
X52761904Y-36652380D02*
X53000000Y-37652380D01*
X53190476Y-36938095D01*
X53380952Y-37652380D01*
X53619047Y-36652380D01*
X54761904Y-37652380D02*
X54761904Y-36652380D01*
X55095238Y-37366666D01*
X55428571Y-36652380D01*
X55428571Y-37652380D01*
X56333333Y-37652380D02*
X56333333Y-37128571D01*
X56285714Y-37033333D01*
X56190476Y-36985714D01*
X56000000Y-36985714D01*
X55904761Y-37033333D01*
X56333333Y-37604761D02*
X56238095Y-37652380D01*
X56000000Y-37652380D01*
X55904761Y-37604761D01*
X55857142Y-37509523D01*
X55857142Y-37414285D01*
X55904761Y-37319047D01*
X56000000Y-37271428D01*
X56238095Y-37271428D01*
X56333333Y-37223809D01*
X56666666Y-36985714D02*
X57047619Y-36985714D01*
X56809523Y-36652380D02*
X56809523Y-37509523D01*
X56857142Y-37604761D01*
X56952380Y-37652380D01*
X57047619Y-37652380D01*
X57238095Y-36985714D02*
X57619047Y-36985714D01*
X57380952Y-36652380D02*
X57380952Y-37509523D01*
X57428571Y-37604761D01*
X57523809Y-37652380D01*
X57619047Y-37652380D01*
X57952380Y-37652380D02*
X57952380Y-36652380D01*
X58380952Y-37652380D02*
X58380952Y-37128571D01*
X58333333Y-37033333D01*
X58238095Y-36985714D01*
X58095238Y-36985714D01*
X58000000Y-37033333D01*
X57952380Y-37080952D01*
X59238095Y-37604761D02*
X59142857Y-37652380D01*
X58952380Y-37652380D01*
X58857142Y-37604761D01*
X58809523Y-37509523D01*
X58809523Y-37128571D01*
X58857142Y-37033333D01*
X58952380Y-36985714D01*
X59142857Y-36985714D01*
X59238095Y-37033333D01*
X59285714Y-37128571D01*
X59285714Y-37223809D01*
X58809523Y-37319047D01*
X59619047Y-36985714D02*
X59809523Y-37652380D01*
X60000000Y-37176190D01*
X60190476Y-37652380D01*
X60380952Y-36985714D01*
X60714285Y-37604761D02*
X60809523Y-37652380D01*
X60999999Y-37652380D01*
X61095238Y-37604761D01*
X61142857Y-37509523D01*
X61142857Y-37461904D01*
X61095238Y-37366666D01*
X60999999Y-37319047D01*
X60857142Y-37319047D01*
X60761904Y-37271428D01*
X60714285Y-37176190D01*
X60714285Y-37128571D01*
X60761904Y-37033333D01*
X60857142Y-36985714D01*
X60999999Y-36985714D01*
X61095238Y-37033333D01*
X49761904Y-39157142D02*
X49714285Y-39204761D01*
X49571428Y-39252380D01*
X49476190Y-39252380D01*
X49333333Y-39204761D01*
X49238095Y-39109523D01*
X49190476Y-39014285D01*
X49142857Y-38823809D01*
X49142857Y-38680952D01*
X49190476Y-38490476D01*
X49238095Y-38395238D01*
X49333333Y-38300000D01*
X49476190Y-38252380D01*
X49571428Y-38252380D01*
X49714285Y-38300000D01*
X49761904Y-38347619D01*
X50190476Y-39252380D02*
X50190476Y-38252380D01*
X50619047Y-39252380D02*
X50619047Y-38728571D01*
X50571428Y-38633333D01*
X50476190Y-38585714D01*
X50333333Y-38585714D01*
X50238095Y-38633333D01*
X50190476Y-38680952D01*
X51095238Y-39252380D02*
X51095238Y-38252380D01*
X51190476Y-38871428D02*
X51476190Y-39252380D01*
X51476190Y-38585714D02*
X51095238Y-38966666D01*
X51904761Y-39157142D02*
X51952380Y-39204761D01*
X51904761Y-39252380D01*
X51857142Y-39204761D01*
X51904761Y-39157142D01*
X51904761Y-39252380D01*
X51904761Y-38633333D02*
X51952380Y-38680952D01*
X51904761Y-38728571D01*
X51857142Y-38680952D01*
X51904761Y-38633333D01*
X51904761Y-38728571D01*
X53666666Y-38300000D02*
X53571428Y-38252380D01*
X53428571Y-38252380D01*
X53285714Y-38300000D01*
X53190476Y-38395238D01*
X53142857Y-38490476D01*
X53095238Y-38680952D01*
X53095238Y-38823809D01*
X53142857Y-39014285D01*
X53190476Y-39109523D01*
X53285714Y-39204761D01*
X53428571Y-39252380D01*
X53523809Y-39252380D01*
X53666666Y-39204761D01*
X53714285Y-39157142D01*
X53714285Y-38823809D01*
X53523809Y-38823809D01*
X55238095Y-38728571D02*
X54904761Y-38728571D01*
X54904761Y-39252380D02*
X54904761Y-38252380D01*
X55380952Y-38252380D01*
X56190476Y-39252380D02*
X56190476Y-38728571D01*
X56142857Y-38633333D01*
X56047619Y-38585714D01*
X55857142Y-38585714D01*
X55761904Y-38633333D01*
X56190476Y-39204761D02*
X56095238Y-39252380D01*
X55857142Y-39252380D01*
X55761904Y-39204761D01*
X55714285Y-39109523D01*
X55714285Y-39014285D01*
X55761904Y-38919047D01*
X55857142Y-38871428D01*
X56095238Y-38871428D01*
X56190476Y-38823809D01*
X57095238Y-38585714D02*
X57095238Y-39252380D01*
X56666666Y-38585714D02*
X56666666Y-39109523D01*
X56714285Y-39204761D01*
X56809523Y-39252380D01*
X56952380Y-39252380D01*
X57047619Y-39204761D01*
X57095238Y-39157142D01*
X57714285Y-39252380D02*
X57619047Y-39204761D01*
X57571428Y-39109523D01*
X57571428Y-38252380D01*
X58095238Y-39252380D02*
X58095238Y-38252380D01*
X58190476Y-38871428D02*
X58476190Y-39252380D01*
X58476190Y-38585714D02*
X58095238Y-38966666D01*
X58904761Y-38585714D02*
X58904761Y-39252380D01*
X58904761Y-38680952D02*
X58952380Y-38633333D01*
X59047619Y-38585714D01*
X59190476Y-38585714D01*
X59285714Y-38633333D01*
X59333333Y-38728571D01*
X59333333Y-39252380D01*
X60190476Y-39204761D02*
X60095238Y-39252380D01*
X59904761Y-39252380D01*
X59809523Y-39204761D01*
X59761904Y-39109523D01*
X59761904Y-38728571D01*
X59809523Y-38633333D01*
X59904761Y-38585714D01*
X60095238Y-38585714D01*
X60190476Y-38633333D01*
X60238095Y-38728571D01*
X60238095Y-38823809D01*
X59761904Y-38919047D01*
X60666666Y-39252380D02*
X60666666Y-38585714D01*
X60666666Y-38776190D02*
X60714285Y-38680952D01*
X60761904Y-38633333D01*
X60857142Y-38585714D01*
X60952380Y-38585714D01*
D12*
X147857142Y-33452380D02*
X148476190Y-33452380D01*
X148142857Y-33833333D01*
X148285714Y-33833333D01*
X148380952Y-33880952D01*
X148428571Y-33928571D01*
X148476190Y-34023809D01*
X148476190Y-34261904D01*
X148428571Y-34357142D01*
X148380952Y-34404761D01*
X148285714Y-34452380D01*
X148000000Y-34452380D01*
X147904761Y-34404761D01*
X147857142Y-34357142D01*
X149095238Y-33452380D02*
X149190476Y-33452380D01*
X149285714Y-33500000D01*
X149333333Y-33547619D01*
X149380952Y-33642857D01*
X149428571Y-33833333D01*
X149428571Y-34071428D01*
X149380952Y-34261904D01*
X149333333Y-34357142D01*
X149285714Y-34404761D01*
X149190476Y-34452380D01*
X149095238Y-34452380D01*
X149000000Y-34404761D01*
X148952380Y-34357142D01*
X148904761Y-34261904D01*
X148857142Y-34071428D01*
X148857142Y-33833333D01*
X148904761Y-33642857D01*
X148952380Y-33547619D01*
X149000000Y-33500000D01*
X149095238Y-33452380D01*
X149857142Y-34452380D02*
X149857142Y-33785714D01*
X149857142Y-33880952D02*
X149904761Y-33833333D01*
X150000000Y-33785714D01*
X150142857Y-33785714D01*
X150238095Y-33833333D01*
X150285714Y-33928571D01*
X150285714Y-34452380D01*
X150285714Y-33928571D02*
X150333333Y-33833333D01*
X150428571Y-33785714D01*
X150571428Y-33785714D01*
X150666666Y-33833333D01*
X150714285Y-33928571D01*
X150714285Y-34452380D01*
X151190476Y-34452380D02*
X151190476Y-33785714D01*
X151190476Y-33880952D02*
X151238095Y-33833333D01*
X151333333Y-33785714D01*
X151476190Y-33785714D01*
X151571428Y-33833333D01*
X151619047Y-33928571D01*
X151619047Y-34452380D01*
X151619047Y-33928571D02*
X151666666Y-33833333D01*
X151761904Y-33785714D01*
X151904761Y-33785714D01*
X152000000Y-33833333D01*
X152047619Y-33928571D01*
X152047619Y-34452380D01*
D11*
X165000000Y-33000000D02*
X165000000Y-32000000D01*
X135000000Y-32500000D02*
X165000000Y-32500000D01*
X135000000Y-33000000D02*
X135000000Y-32000000D01*
D12*
X192142857Y-81547619D02*
X191523809Y-81547619D01*
X191857142Y-81166666D01*
X191714285Y-81166666D01*
X191619047Y-81119047D01*
X191571428Y-81071428D01*
X191523809Y-80976190D01*
X191523809Y-80738095D01*
X191571428Y-80642857D01*
X191619047Y-80595238D01*
X191714285Y-80547619D01*
X192000000Y-80547619D01*
X192095238Y-80595238D01*
X192142857Y-80642857D01*
X190904761Y-81547619D02*
X190809523Y-81547619D01*
X190714285Y-81500000D01*
X190666666Y-81452380D01*
X190619047Y-81357142D01*
X190571428Y-81166666D01*
X190571428Y-80928571D01*
X190619047Y-80738095D01*
X190666666Y-80642857D01*
X190714285Y-80595238D01*
X190809523Y-80547619D01*
X190904761Y-80547619D01*
X191000000Y-80595238D01*
X191047619Y-80642857D01*
X191095238Y-80738095D01*
X191142857Y-80928571D01*
X191142857Y-81166666D01*
X191095238Y-81357142D01*
X191047619Y-81452380D01*
X191000000Y-81500000D01*
X190904761Y-81547619D01*
X190142857Y-80547619D02*
X190142857Y-81214285D01*
X190142857Y-81119047D02*
X190095238Y-81166666D01*
X190000000Y-81214285D01*
X189857142Y-81214285D01*
X189761904Y-81166666D01*
X189714285Y-81071428D01*
X189714285Y-80547619D01*
X189714285Y-81071428D02*
X189666666Y-81166666D01*
X189571428Y-81214285D01*
X189428571Y-81214285D01*
X189333333Y-81166666D01*
X189285714Y-81071428D01*
X189285714Y-80547619D01*
X188809523Y-80547619D02*
X188809523Y-81214285D01*
X188809523Y-81119047D02*
X188761904Y-81166666D01*
X188666666Y-81214285D01*
X188523809Y-81214285D01*
X188428571Y-81166666D01*
X188380952Y-81071428D01*
X188380952Y-80547619D01*
X188380952Y-81071428D02*
X188333333Y-81166666D01*
X188238095Y-81214285D01*
X188095238Y-81214285D01*
X188000000Y-81166666D01*
X187952380Y-81071428D01*
X187952380Y-80547619D01*
D11*
X175000000Y-82000000D02*
X175000000Y-83000000D01*
X205000000Y-82500000D02*
X175000000Y-82500000D01*
X205000000Y-82000000D02*
X205000000Y-83000000D01*
D12*
X192142857Y-141547619D02*
X191523809Y-141547619D01*
X191857142Y-141166666D01*
X191714285Y-141166666D01*
X191619047Y-141119047D01*
X191571428Y-141071428D01*
X191523809Y-140976190D01*
X191523809Y-140738095D01*
X191571428Y-140642857D01*
X191619047Y-140595238D01*
X191714285Y-140547619D01*
X192000000Y-140547619D01*
X192095238Y-140595238D01*
X192142857Y-140642857D01*
X190904761Y-141547619D02*
X190809523Y-141547619D01*
X190714285Y-141500000D01*
X190666666Y-141452380D01*
X190619047Y-141357142D01*
X190571428Y-141166666D01*
X190571428Y-140928571D01*
X190619047Y-140738095D01*
X190666666Y-140642857D01*
X190714285Y-140595238D01*
X190809523Y-140547619D01*
X190904761Y-140547619D01*
X191000000Y-140595238D01*
X191047619Y-140642857D01*
X191095238Y-140738095D01*
X191142857Y-140928571D01*
X191142857Y-141166666D01*
X191095238Y-141357142D01*
X191047619Y-141452380D01*
X191000000Y-141500000D01*
X190904761Y-141547619D01*
X190142857Y-140547619D02*
X190142857Y-141214285D01*
X190142857Y-141119047D02*
X190095238Y-141166666D01*
X190000000Y-141214285D01*
X189857142Y-141214285D01*
X189761904Y-141166666D01*
X189714285Y-141071428D01*
X189714285Y-140547619D01*
X189714285Y-141071428D02*
X189666666Y-141166666D01*
X189571428Y-141214285D01*
X189428571Y-141214285D01*
X189333333Y-141166666D01*
X189285714Y-141071428D01*
X189285714Y-140547619D01*
X188809523Y-140547619D02*
X188809523Y-141214285D01*
X188809523Y-141119047D02*
X188761904Y-141166666D01*
X188666666Y-141214285D01*
X188523809Y-141214285D01*
X188428571Y-141166666D01*
X188380952Y-141071428D01*
X188380952Y-140547619D01*
X188380952Y-141071428D02*
X188333333Y-141166666D01*
X188238095Y-141214285D01*
X188095238Y-141214285D01*
X188000000Y-141166666D01*
X187952380Y-141071428D01*
X187952380Y-140547619D01*
D11*
X175000000Y-142000000D02*
X175000000Y-143000000D01*
X205000000Y-142500000D02*
X175000000Y-142500000D01*
X205000000Y-142000000D02*
X205000000Y-143000000D01*
D12*
X147857142Y-93452380D02*
X148476190Y-93452380D01*
X148142857Y-93833333D01*
X148285714Y-93833333D01*
X148380952Y-93880952D01*
X148428571Y-93928571D01*
X148476190Y-94023809D01*
X148476190Y-94261904D01*
X148428571Y-94357142D01*
X148380952Y-94404761D01*
X148285714Y-94452380D01*
X148000000Y-94452380D01*
X147904761Y-94404761D01*
X147857142Y-94357142D01*
X149095238Y-93452380D02*
X149190476Y-93452380D01*
X149285714Y-93500000D01*
X149333333Y-93547619D01*
X149380952Y-93642857D01*
X149428571Y-93833333D01*
X149428571Y-94071428D01*
X149380952Y-94261904D01*
X149333333Y-94357142D01*
X149285714Y-94404761D01*
X149190476Y-94452380D01*
X149095238Y-94452380D01*
X149000000Y-94404761D01*
X148952380Y-94357142D01*
X148904761Y-94261904D01*
X148857142Y-94071428D01*
X148857142Y-93833333D01*
X148904761Y-93642857D01*
X148952380Y-93547619D01*
X149000000Y-93500000D01*
X149095238Y-93452380D01*
X149857142Y-94452380D02*
X149857142Y-93785714D01*
X149857142Y-93880952D02*
X149904761Y-93833333D01*
X150000000Y-93785714D01*
X150142857Y-93785714D01*
X150238095Y-93833333D01*
X150285714Y-93928571D01*
X150285714Y-94452380D01*
X150285714Y-93928571D02*
X150333333Y-93833333D01*
X150428571Y-93785714D01*
X150571428Y-93785714D01*
X150666666Y-93833333D01*
X150714285Y-93928571D01*
X150714285Y-94452380D01*
X151190476Y-94452380D02*
X151190476Y-93785714D01*
X151190476Y-93880952D02*
X151238095Y-93833333D01*
X151333333Y-93785714D01*
X151476190Y-93785714D01*
X151571428Y-93833333D01*
X151619047Y-93928571D01*
X151619047Y-94452380D01*
X151619047Y-93928571D02*
X151666666Y-93833333D01*
X151761904Y-93785714D01*
X151904761Y-93785714D01*
X152000000Y-93833333D01*
X152047619Y-93928571D01*
X152047619Y-94452380D01*
D11*
X165000000Y-93000000D02*
X165000000Y-92000000D01*
X135000000Y-92500000D02*
X165000000Y-92500000D01*
X135000000Y-93000000D02*
X135000000Y-92000000D01*
D12*
X97142857Y-141547619D02*
X96523809Y-141547619D01*
X96857142Y-141166666D01*
X96714285Y-141166666D01*
X96619047Y-141119047D01*
X96571428Y-141071428D01*
X96523809Y-140976190D01*
X96523809Y-140738095D01*
X96571428Y-140642857D01*
X96619047Y-140595238D01*
X96714285Y-140547619D01*
X97000000Y-140547619D01*
X97095238Y-140595238D01*
X97142857Y-140642857D01*
X95904761Y-141547619D02*
X95809523Y-141547619D01*
X95714285Y-141500000D01*
X95666666Y-141452380D01*
X95619047Y-141357142D01*
X95571428Y-141166666D01*
X95571428Y-140928571D01*
X95619047Y-140738095D01*
X95666666Y-140642857D01*
X95714285Y-140595238D01*
X95809523Y-140547619D01*
X95904761Y-140547619D01*
X96000000Y-140595238D01*
X96047619Y-140642857D01*
X96095238Y-140738095D01*
X96142857Y-140928571D01*
X96142857Y-141166666D01*
X96095238Y-141357142D01*
X96047619Y-141452380D01*
X96000000Y-141500000D01*
X95904761Y-141547619D01*
X95142857Y-140547619D02*
X95142857Y-141214285D01*
X95142857Y-141119047D02*
X95095238Y-141166666D01*
X95000000Y-141214285D01*
X94857142Y-141214285D01*
X94761904Y-141166666D01*
X94714285Y-141071428D01*
X94714285Y-140547619D01*
X94714285Y-141071428D02*
X94666666Y-141166666D01*
X94571428Y-141214285D01*
X94428571Y-141214285D01*
X94333333Y-141166666D01*
X94285714Y-141071428D01*
X94285714Y-140547619D01*
X93809523Y-140547619D02*
X93809523Y-141214285D01*
X93809523Y-141119047D02*
X93761904Y-141166666D01*
X93666666Y-141214285D01*
X93523809Y-141214285D01*
X93428571Y-141166666D01*
X93380952Y-141071428D01*
X93380952Y-140547619D01*
X93380952Y-141071428D02*
X93333333Y-141166666D01*
X93238095Y-141214285D01*
X93095238Y-141214285D01*
X93000000Y-141166666D01*
X92952380Y-141071428D01*
X92952380Y-140547619D01*
D11*
X80000000Y-142000000D02*
X80000000Y-143000000D01*
X110000000Y-142500000D02*
X80000000Y-142500000D01*
X110000000Y-142000000D02*
X110000000Y-143000000D01*
D12*
X97142857Y-81547619D02*
X96523809Y-81547619D01*
X96857142Y-81166666D01*
X96714285Y-81166666D01*
X96619047Y-81119047D01*
X96571428Y-81071428D01*
X96523809Y-80976190D01*
X96523809Y-80738095D01*
X96571428Y-80642857D01*
X96619047Y-80595238D01*
X96714285Y-80547619D01*
X97000000Y-80547619D01*
X97095238Y-80595238D01*
X97142857Y-80642857D01*
X95904761Y-81547619D02*
X95809523Y-81547619D01*
X95714285Y-81500000D01*
X95666666Y-81452380D01*
X95619047Y-81357142D01*
X95571428Y-81166666D01*
X95571428Y-80928571D01*
X95619047Y-80738095D01*
X95666666Y-80642857D01*
X95714285Y-80595238D01*
X95809523Y-80547619D01*
X95904761Y-80547619D01*
X96000000Y-80595238D01*
X96047619Y-80642857D01*
X96095238Y-80738095D01*
X96142857Y-80928571D01*
X96142857Y-81166666D01*
X96095238Y-81357142D01*
X96047619Y-81452380D01*
X96000000Y-81500000D01*
X95904761Y-81547619D01*
X95142857Y-80547619D02*
X95142857Y-81214285D01*
X95142857Y-81119047D02*
X95095238Y-81166666D01*
X95000000Y-81214285D01*
X94857142Y-81214285D01*
X94761904Y-81166666D01*
X94714285Y-81071428D01*
X94714285Y-80547619D01*
X94714285Y-81071428D02*
X94666666Y-81166666D01*
X94571428Y-81214285D01*
X94428571Y-81214285D01*
X94333333Y-81166666D01*
X94285714Y-81071428D01*
X94285714Y-80547619D01*
X93809523Y-80547619D02*
X93809523Y-81214285D01*
X93809523Y-81119047D02*
X93761904Y-81166666D01*
X93666666Y-81214285D01*
X93523809Y-81214285D01*
X93428571Y-81166666D01*
X93380952Y-81071428D01*
X93380952Y-80547619D01*
X93380952Y-81071428D02*
X93333333Y-81166666D01*
X93238095Y-81214285D01*
X93095238Y-81214285D01*
X93000000Y-81166666D01*
X92952380Y-81071428D01*
X92952380Y-80547619D01*
D11*
X80000000Y-82000000D02*
X80000000Y-83000000D01*
X110000000Y-82500000D02*
X80000000Y-82500000D01*
X110000000Y-82000000D02*
X110000000Y-83000000D01*
D12*
X52857142Y-93452380D02*
X53476190Y-93452380D01*
X53142857Y-93833333D01*
X53285714Y-93833333D01*
X53380952Y-93880952D01*
X53428571Y-93928571D01*
X53476190Y-94023809D01*
X53476190Y-94261904D01*
X53428571Y-94357142D01*
X53380952Y-94404761D01*
X53285714Y-94452380D01*
X53000000Y-94452380D01*
X52904761Y-94404761D01*
X52857142Y-94357142D01*
X54095238Y-93452380D02*
X54190476Y-93452380D01*
X54285714Y-93500000D01*
X54333333Y-93547619D01*
X54380952Y-93642857D01*
X54428571Y-93833333D01*
X54428571Y-94071428D01*
X54380952Y-94261904D01*
X54333333Y-94357142D01*
X54285714Y-94404761D01*
X54190476Y-94452380D01*
X54095238Y-94452380D01*
X54000000Y-94404761D01*
X53952380Y-94357142D01*
X53904761Y-94261904D01*
X53857142Y-94071428D01*
X53857142Y-93833333D01*
X53904761Y-93642857D01*
X53952380Y-93547619D01*
X54000000Y-93500000D01*
X54095238Y-93452380D01*
X54857142Y-94452380D02*
X54857142Y-93785714D01*
X54857142Y-93880952D02*
X54904761Y-93833333D01*
X55000000Y-93785714D01*
X55142857Y-93785714D01*
X55238095Y-93833333D01*
X55285714Y-93928571D01*
X55285714Y-94452380D01*
X55285714Y-93928571D02*
X55333333Y-93833333D01*
X55428571Y-93785714D01*
X55571428Y-93785714D01*
X55666666Y-93833333D01*
X55714285Y-93928571D01*
X55714285Y-94452380D01*
X56190476Y-94452380D02*
X56190476Y-93785714D01*
X56190476Y-93880952D02*
X56238095Y-93833333D01*
X56333333Y-93785714D01*
X56476190Y-93785714D01*
X56571428Y-93833333D01*
X56619047Y-93928571D01*
X56619047Y-94452380D01*
X56619047Y-93928571D02*
X56666666Y-93833333D01*
X56761904Y-93785714D01*
X56904761Y-93785714D01*
X57000000Y-93833333D01*
X57047619Y-93928571D01*
X57047619Y-94452380D01*
D11*
X70000000Y-93000000D02*
X70000000Y-92000000D01*
X40000000Y-92500000D02*
X70000000Y-92500000D01*
X40000000Y-93000000D02*
X40000000Y-92000000D01*
D10*
X142785714Y-107357142D02*
X144642857Y-107357142D01*
X143642857Y-108500000D01*
X144071428Y-108500000D01*
X144357142Y-108642857D01*
X144500000Y-108785714D01*
X144642857Y-109071428D01*
X144642857Y-109785714D01*
X144500000Y-110071428D01*
X144357142Y-110214285D01*
X144071428Y-110357142D01*
X143214285Y-110357142D01*
X142928571Y-110214285D01*
X142785714Y-110071428D01*
X145642857Y-107357142D02*
X147642857Y-107357142D01*
X146357142Y-110357142D01*
X150214285Y-107357142D02*
X148785714Y-107357142D01*
X148642857Y-108785714D01*
X148785714Y-108642857D01*
X149071428Y-108500000D01*
X149785714Y-108500000D01*
X150071428Y-108642857D01*
X150214285Y-108785714D01*
X150357142Y-109071428D01*
X150357142Y-109785714D01*
X150214285Y-110071428D01*
X150071428Y-110214285D01*
X149785714Y-110357142D01*
X149071428Y-110357142D01*
X148785714Y-110214285D01*
X148642857Y-110071428D01*
X151642857Y-108357142D02*
X151642857Y-110357142D01*
X151642857Y-108642857D02*
X151785714Y-108500000D01*
X152071428Y-108357142D01*
X152500000Y-108357142D01*
X152785714Y-108500000D01*
X152928571Y-108785714D01*
X152928571Y-110357142D01*
X154357142Y-110357142D02*
X154357142Y-108357142D01*
X154357142Y-108642857D02*
X154500000Y-108500000D01*
X154785714Y-108357142D01*
X155214285Y-108357142D01*
X155500000Y-108500000D01*
X155642857Y-108785714D01*
X155642857Y-110357142D01*
X155642857Y-108785714D02*
X155785714Y-108500000D01*
X156071428Y-108357142D01*
X156500000Y-108357142D01*
X156785714Y-108500000D01*
X156928571Y-108785714D01*
X156928571Y-110357142D01*
X197214285Y-127642857D02*
X195357142Y-127642857D01*
X196357142Y-126500000D01*
X195928571Y-126500000D01*
X195642857Y-126357142D01*
X195500000Y-126214285D01*
X195357142Y-125928571D01*
X195357142Y-125214285D01*
X195500000Y-124928571D01*
X195642857Y-124785714D01*
X195928571Y-124642857D01*
X196785714Y-124642857D01*
X197071428Y-124785714D01*
X197214285Y-124928571D01*
X194357142Y-127642857D02*
X192357142Y-127642857D01*
X193642857Y-124642857D01*
X189785714Y-127642857D02*
X191214285Y-127642857D01*
X191357142Y-126214285D01*
X191214285Y-126357142D01*
X190928571Y-126500000D01*
X190214285Y-126500000D01*
X189928571Y-126357142D01*
X189785714Y-126214285D01*
X189642857Y-125928571D01*
X189642857Y-125214285D01*
X189785714Y-124928571D01*
X189928571Y-124785714D01*
X190214285Y-124642857D01*
X190928571Y-124642857D01*
X191214285Y-124785714D01*
X191357142Y-124928571D01*
X188357142Y-126642857D02*
X188357142Y-124642857D01*
X188357142Y-126357142D02*
X188214285Y-126500000D01*
X187928571Y-126642857D01*
X187500000Y-126642857D01*
X187214285Y-126500000D01*
X187071428Y-126214285D01*
X187071428Y-124642857D01*
X185642857Y-124642857D02*
X185642857Y-126642857D01*
X185642857Y-126357142D02*
X185500000Y-126500000D01*
X185214285Y-126642857D01*
X184785714Y-126642857D01*
X184500000Y-126500000D01*
X184357142Y-126214285D01*
X184357142Y-124642857D01*
X184357142Y-126214285D02*
X184214285Y-126500000D01*
X183928571Y-126642857D01*
X183500000Y-126642857D01*
X183214285Y-126500000D01*
X183071428Y-126214285D01*
X183071428Y-124642857D01*
X197214285Y-67642857D02*
X195357142Y-67642857D01*
X196357142Y-66500000D01*
X195928571Y-66500000D01*
X195642857Y-66357142D01*
X195500000Y-66214285D01*
X195357142Y-65928571D01*
X195357142Y-65214285D01*
X195500000Y-64928571D01*
X195642857Y-64785714D01*
X195928571Y-64642857D01*
X196785714Y-64642857D01*
X197071428Y-64785714D01*
X197214285Y-64928571D01*
X194357142Y-67642857D02*
X192357142Y-67642857D01*
X193642857Y-64642857D01*
X189785714Y-67642857D02*
X191214285Y-67642857D01*
X191357142Y-66214285D01*
X191214285Y-66357142D01*
X190928571Y-66500000D01*
X190214285Y-66500000D01*
X189928571Y-66357142D01*
X189785714Y-66214285D01*
X189642857Y-65928571D01*
X189642857Y-65214285D01*
X189785714Y-64928571D01*
X189928571Y-64785714D01*
X190214285Y-64642857D01*
X190928571Y-64642857D01*
X191214285Y-64785714D01*
X191357142Y-64928571D01*
X188357142Y-66642857D02*
X188357142Y-64642857D01*
X188357142Y-66357142D02*
X188214285Y-66500000D01*
X187928571Y-66642857D01*
X187500000Y-66642857D01*
X187214285Y-66500000D01*
X187071428Y-66214285D01*
X187071428Y-64642857D01*
X185642857Y-64642857D02*
X185642857Y-66642857D01*
X185642857Y-66357142D02*
X185500000Y-66500000D01*
X185214285Y-66642857D01*
X184785714Y-66642857D01*
X184500000Y-66500000D01*
X184357142Y-66214285D01*
X184357142Y-64642857D01*
X184357142Y-66214285D02*
X184214285Y-66500000D01*
X183928571Y-66642857D01*
X183500000Y-66642857D01*
X183214285Y-66500000D01*
X183071428Y-66214285D01*
X183071428Y-64642857D01*
X142785714Y-47357142D02*
X144642857Y-47357142D01*
X143642857Y-48500000D01*
X144071428Y-48500000D01*
X144357142Y-48642857D01*
X144500000Y-48785714D01*
X144642857Y-49071428D01*
X144642857Y-49785714D01*
X144500000Y-50071428D01*
X144357142Y-50214285D01*
X144071428Y-50357142D01*
X143214285Y-50357142D01*
X142928571Y-50214285D01*
X142785714Y-50071428D01*
X145642857Y-47357142D02*
X147642857Y-47357142D01*
X146357142Y-50357142D01*
X150214285Y-47357142D02*
X148785714Y-47357142D01*
X148642857Y-48785714D01*
X148785714Y-48642857D01*
X149071428Y-48500000D01*
X149785714Y-48500000D01*
X150071428Y-48642857D01*
X150214285Y-48785714D01*
X150357142Y-49071428D01*
X150357142Y-49785714D01*
X150214285Y-50071428D01*
X150071428Y-50214285D01*
X149785714Y-50357142D01*
X149071428Y-50357142D01*
X148785714Y-50214285D01*
X148642857Y-50071428D01*
X151642857Y-48357142D02*
X151642857Y-50357142D01*
X151642857Y-48642857D02*
X151785714Y-48500000D01*
X152071428Y-48357142D01*
X152500000Y-48357142D01*
X152785714Y-48500000D01*
X152928571Y-48785714D01*
X152928571Y-50357142D01*
X154357142Y-50357142D02*
X154357142Y-48357142D01*
X154357142Y-48642857D02*
X154500000Y-48500000D01*
X154785714Y-48357142D01*
X155214285Y-48357142D01*
X155500000Y-48500000D01*
X155642857Y-48785714D01*
X155642857Y-50357142D01*
X155642857Y-48785714D02*
X155785714Y-48500000D01*
X156071428Y-48357142D01*
X156500000Y-48357142D01*
X156785714Y-48500000D01*
X156928571Y-48785714D01*
X156928571Y-50357142D01*
X49357142Y-48357142D02*
X49357142Y-50357142D01*
X48642857Y-47214285D02*
X47928571Y-49357142D01*
X49785714Y-49357142D01*
X51500000Y-47357142D02*
X51785714Y-47357142D01*
X52071428Y-47500000D01*
X52214285Y-47642857D01*
X52357142Y-47928571D01*
X52500000Y-48500000D01*
X52500000Y-49214285D01*
X52357142Y-49785714D01*
X52214285Y-50071428D01*
X52071428Y-50214285D01*
X51785714Y-50357142D01*
X51500000Y-50357142D01*
X51214285Y-50214285D01*
X51071428Y-50071428D01*
X50928571Y-49785714D01*
X50785714Y-49214285D01*
X50785714Y-48500000D01*
X50928571Y-47928571D01*
X51071428Y-47642857D01*
X51214285Y-47500000D01*
X51500000Y-47357142D01*
X55214285Y-47357142D02*
X53785714Y-47357142D01*
X53642857Y-48785714D01*
X53785714Y-48642857D01*
X54071428Y-48500000D01*
X54785714Y-48500000D01*
X55071428Y-48642857D01*
X55214285Y-48785714D01*
X55357142Y-49071428D01*
X55357142Y-49785714D01*
X55214285Y-50071428D01*
X55071428Y-50214285D01*
X54785714Y-50357142D01*
X54071428Y-50357142D01*
X53785714Y-50214285D01*
X53642857Y-50071428D01*
X56642857Y-48357142D02*
X56642857Y-50357142D01*
X56642857Y-48642857D02*
X56785714Y-48500000D01*
X57071428Y-48357142D01*
X57500000Y-48357142D01*
X57785714Y-48500000D01*
X57928571Y-48785714D01*
X57928571Y-50357142D01*
X59357142Y-50357142D02*
X59357142Y-48357142D01*
X59357142Y-48642857D02*
X59500000Y-48500000D01*
X59785714Y-48357142D01*
X60214285Y-48357142D01*
X60500000Y-48500000D01*
X60642857Y-48785714D01*
X60642857Y-50357142D01*
X60642857Y-48785714D02*
X60785714Y-48500000D01*
X61071428Y-48357142D01*
X61500000Y-48357142D01*
X61785714Y-48500000D01*
X61928571Y-48785714D01*
X61928571Y-50357142D01*
D12*
X52857142Y-33452380D02*
X53476190Y-33452380D01*
X53142857Y-33833333D01*
X53285714Y-33833333D01*
X53380952Y-33880952D01*
X53428571Y-33928571D01*
X53476190Y-34023809D01*
X53476190Y-34261904D01*
X53428571Y-34357142D01*
X53380952Y-34404761D01*
X53285714Y-34452380D01*
X53000000Y-34452380D01*
X52904761Y-34404761D01*
X52857142Y-34357142D01*
X54095238Y-33452380D02*
X54190476Y-33452380D01*
X54285714Y-33500000D01*
X54333333Y-33547619D01*
X54380952Y-33642857D01*
X54428571Y-33833333D01*
X54428571Y-34071428D01*
X54380952Y-34261904D01*
X54333333Y-34357142D01*
X54285714Y-34404761D01*
X54190476Y-34452380D01*
X54095238Y-34452380D01*
X54000000Y-34404761D01*
X53952380Y-34357142D01*
X53904761Y-34261904D01*
X53857142Y-34071428D01*
X53857142Y-33833333D01*
X53904761Y-33642857D01*
X53952380Y-33547619D01*
X54000000Y-33500000D01*
X54095238Y-33452380D01*
X54857142Y-34452380D02*
X54857142Y-33785714D01*
X54857142Y-33880952D02*
X54904761Y-33833333D01*
X55000000Y-33785714D01*
X55142857Y-33785714D01*
X55238095Y-33833333D01*
X55285714Y-33928571D01*
X55285714Y-34452380D01*
X55285714Y-33928571D02*
X55333333Y-33833333D01*
X55428571Y-33785714D01*
X55571428Y-33785714D01*
X55666666Y-33833333D01*
X55714285Y-33928571D01*
X55714285Y-34452380D01*
X56190476Y-34452380D02*
X56190476Y-33785714D01*
X56190476Y-33880952D02*
X56238095Y-33833333D01*
X56333333Y-33785714D01*
X56476190Y-33785714D01*
X56571428Y-33833333D01*
X56619047Y-33928571D01*
X56619047Y-34452380D01*
X56619047Y-33928571D02*
X56666666Y-33833333D01*
X56761904Y-33785714D01*
X56904761Y-33785714D01*
X57000000Y-33833333D01*
X57047619Y-33928571D01*
X57047619Y-34452380D01*
D11*
X40000000Y-33000000D02*
X40000000Y-32000000D01*
X70000000Y-33000000D02*
X70000000Y-32000000D01*
X40000000Y-32500000D02*
X70000000Y-32500000D01*
X57500000Y-55000000D02*
G75*
G03X57500000Y-55000000I-2500000J0D01*
G01*
X97500000Y-60000000D02*
G75*
G03X97500000Y-60000000I-2500000J0D01*
G01*
X152500000Y-55000000D02*
G75*
G03X152500000Y-55000000I-2500000J0D01*
G01*
X192500000Y-60000000D02*
G75*
G03X192500000Y-60000000I-2500000J0D01*
G01*
X192500000Y-120000000D02*
G75*
G03X192500000Y-120000000I-2500000J0D01*
G01*
X152500000Y-115000000D02*
G75*
G03X152500000Y-115000000I-2500000J0D01*
G01*
X97500000Y-120000000D02*
G75*
G03X97500000Y-120000000I-2500000J0D01*
G01*
X57500000Y-55000000D02*
G75*
G03X57500000Y-55000000I-2500000J0D01*
G01*
X57500000Y-115000000D02*
G75*
G03X57500000Y-115000000I-2500000J0D01*
G01*
X51560000Y-56926267D02*
X51560000Y-56583733D01*
X52580000Y-56926267D02*
X52580000Y-56583733D01*
X187500000Y-93210000D02*
X187250000Y-93710000D01*
X187250000Y-93710000D02*
X187750000Y-93710000D01*
X187750000Y-93710000D02*
X187500000Y-93210000D01*
X152500000Y-141790000D02*
X152750000Y-141290000D01*
X152750000Y-141290000D02*
X152250000Y-141290000D01*
X152250000Y-141290000D02*
X152500000Y-141790000D01*
X92500000Y-93210000D02*
X92250000Y-93710000D01*
X92250000Y-93710000D02*
X92750000Y-93710000D01*
X92750000Y-93710000D02*
X92500000Y-93210000D01*
X57500000Y-141790000D02*
X57750000Y-141290000D01*
X57750000Y-141290000D02*
X57250000Y-141290000D01*
X57250000Y-141290000D02*
X57500000Y-141790000D01*
X187500000Y-33210000D02*
X187250000Y-33710000D01*
X187250000Y-33710000D02*
X187750000Y-33710000D01*
X187750000Y-33710000D02*
X187500000Y-33210000D01*
X152500000Y-81790000D02*
X152750000Y-81290000D01*
X152750000Y-81290000D02*
X152250000Y-81290000D01*
X152250000Y-81290000D02*
X152500000Y-81790000D01*
X92500000Y-33210000D02*
X92250000Y-33710000D01*
X92250000Y-33710000D02*
X92750000Y-33710000D01*
X92750000Y-33710000D02*
X92500000Y-33210000D01*
X57500000Y-81790000D02*
X57750000Y-81290000D01*
X57750000Y-81290000D02*
X57250000Y-81290000D01*
X57250000Y-81290000D02*
X57500000Y-81790000D01*
X189125000Y-120900000D02*
X190925000Y-120900000D01*
X189125000Y-119100000D02*
X189125000Y-120900000D01*
X190925000Y-119100000D02*
X189125000Y-119100000D01*
X190925000Y-120900000D02*
X190925000Y-119100000D01*
X97460000Y-118865000D02*
X93400000Y-118865000D01*
X97460000Y-121135000D02*
X97460000Y-118865000D01*
X93400000Y-121135000D02*
X97460000Y-121135000D01*
X53340000Y-115735000D02*
X55800000Y-115735000D01*
X53340000Y-114265000D02*
X53340000Y-115735000D01*
X55800000Y-114265000D02*
X53340000Y-114265000D01*
X55800000Y-54265000D02*
X53340000Y-54265000D01*
X53340000Y-54265000D02*
X53340000Y-55735000D01*
X53340000Y-55735000D02*
X55800000Y-55735000D01*
X95990000Y-55328733D02*
X95990000Y-55671267D01*
X97010000Y-55328733D02*
X97010000Y-55671267D01*
X192490000Y-58828733D02*
X192490000Y-59171267D01*
X193510000Y-58828733D02*
X193510000Y-59171267D01*
X147510000Y-58171267D02*
X147510000Y-57828733D01*
X146490000Y-58171267D02*
X146490000Y-57828733D01*
X191075000Y-59100000D02*
X189275000Y-59100000D01*
X191075000Y-60900000D02*
X191075000Y-59100000D01*
X189275000Y-60900000D02*
X191075000Y-60900000D01*
X189275000Y-59100000D02*
X189275000Y-60900000D01*
X97436000Y-58865000D02*
X93376000Y-58865000D01*
X97436000Y-61135000D02*
X97436000Y-58865000D01*
X93376000Y-61135000D02*
X97436000Y-61135000D01*
D12*
X51092380Y-56921666D02*
X50616190Y-57255000D01*
X51092380Y-57493095D02*
X50092380Y-57493095D01*
X50092380Y-57112142D01*
X50140000Y-57016904D01*
X50187619Y-56969285D01*
X50282857Y-56921666D01*
X50425714Y-56921666D01*
X50520952Y-56969285D01*
X50568571Y-57016904D01*
X50616190Y-57112142D01*
X50616190Y-57493095D01*
X51092380Y-55969285D02*
X51092380Y-56540714D01*
X51092380Y-56255000D02*
X50092380Y-56255000D01*
X50235238Y-56350238D01*
X50330476Y-56445476D01*
X50378095Y-56540714D01*
X184166666Y-93412380D02*
X184166666Y-94126666D01*
X184119047Y-94269523D01*
X184023809Y-94364761D01*
X183880952Y-94412380D01*
X183785714Y-94412380D01*
X184785714Y-93840952D02*
X184690476Y-93793333D01*
X184642857Y-93745714D01*
X184595238Y-93650476D01*
X184595238Y-93602857D01*
X184642857Y-93507619D01*
X184690476Y-93460000D01*
X184785714Y-93412380D01*
X184976190Y-93412380D01*
X185071428Y-93460000D01*
X185119047Y-93507619D01*
X185166666Y-93602857D01*
X185166666Y-93650476D01*
X185119047Y-93745714D01*
X185071428Y-93793333D01*
X184976190Y-93840952D01*
X184785714Y-93840952D01*
X184690476Y-93888571D01*
X184642857Y-93936190D01*
X184595238Y-94031428D01*
X184595238Y-94221904D01*
X184642857Y-94317142D01*
X184690476Y-94364761D01*
X184785714Y-94412380D01*
X184976190Y-94412380D01*
X185071428Y-94364761D01*
X185119047Y-94317142D01*
X185166666Y-94221904D01*
X185166666Y-94031428D01*
X185119047Y-93936190D01*
X185071428Y-93888571D01*
X184976190Y-93840952D01*
X155166666Y-140492380D02*
X155166666Y-141206666D01*
X155119047Y-141349523D01*
X155023809Y-141444761D01*
X154880952Y-141492380D01*
X154785714Y-141492380D01*
X155547619Y-140492380D02*
X156214285Y-140492380D01*
X155785714Y-141492380D01*
X89166666Y-93412380D02*
X89166666Y-94126666D01*
X89119047Y-94269523D01*
X89023809Y-94364761D01*
X88880952Y-94412380D01*
X88785714Y-94412380D01*
X90071428Y-93412380D02*
X89880952Y-93412380D01*
X89785714Y-93460000D01*
X89738095Y-93507619D01*
X89642857Y-93650476D01*
X89595238Y-93840952D01*
X89595238Y-94221904D01*
X89642857Y-94317142D01*
X89690476Y-94364761D01*
X89785714Y-94412380D01*
X89976190Y-94412380D01*
X90071428Y-94364761D01*
X90119047Y-94317142D01*
X90166666Y-94221904D01*
X90166666Y-93983809D01*
X90119047Y-93888571D01*
X90071428Y-93840952D01*
X89976190Y-93793333D01*
X89785714Y-93793333D01*
X89690476Y-93840952D01*
X89642857Y-93888571D01*
X89595238Y-93983809D01*
X60166666Y-140492380D02*
X60166666Y-141206666D01*
X60119047Y-141349523D01*
X60023809Y-141444761D01*
X59880952Y-141492380D01*
X59785714Y-141492380D01*
X61119047Y-140492380D02*
X60642857Y-140492380D01*
X60595238Y-140968571D01*
X60642857Y-140920952D01*
X60738095Y-140873333D01*
X60976190Y-140873333D01*
X61071428Y-140920952D01*
X61119047Y-140968571D01*
X61166666Y-141063809D01*
X61166666Y-141301904D01*
X61119047Y-141397142D01*
X61071428Y-141444761D01*
X60976190Y-141492380D01*
X60738095Y-141492380D01*
X60642857Y-141444761D01*
X60595238Y-141397142D01*
X184166666Y-33412380D02*
X184166666Y-34126666D01*
X184119047Y-34269523D01*
X184023809Y-34364761D01*
X183880952Y-34412380D01*
X183785714Y-34412380D01*
X185071428Y-33745714D02*
X185071428Y-34412380D01*
X184833333Y-33364761D02*
X184595238Y-34079047D01*
X185214285Y-34079047D01*
X155166666Y-80492380D02*
X155166666Y-81206666D01*
X155119047Y-81349523D01*
X155023809Y-81444761D01*
X154880952Y-81492380D01*
X154785714Y-81492380D01*
X155547619Y-80492380D02*
X156166666Y-80492380D01*
X155833333Y-80873333D01*
X155976190Y-80873333D01*
X156071428Y-80920952D01*
X156119047Y-80968571D01*
X156166666Y-81063809D01*
X156166666Y-81301904D01*
X156119047Y-81397142D01*
X156071428Y-81444761D01*
X155976190Y-81492380D01*
X155690476Y-81492380D01*
X155595238Y-81444761D01*
X155547619Y-81397142D01*
X89166666Y-33412380D02*
X89166666Y-34126666D01*
X89119047Y-34269523D01*
X89023809Y-34364761D01*
X88880952Y-34412380D01*
X88785714Y-34412380D01*
X89595238Y-33507619D02*
X89642857Y-33460000D01*
X89738095Y-33412380D01*
X89976190Y-33412380D01*
X90071428Y-33460000D01*
X90119047Y-33507619D01*
X90166666Y-33602857D01*
X90166666Y-33698095D01*
X90119047Y-33840952D01*
X89547619Y-34412380D01*
X90166666Y-34412380D01*
X60166666Y-80492380D02*
X60166666Y-81206666D01*
X60119047Y-81349523D01*
X60023809Y-81444761D01*
X59880952Y-81492380D01*
X59785714Y-81492380D01*
X61166666Y-81492380D02*
X60595238Y-81492380D01*
X60880952Y-81492380D02*
X60880952Y-80492380D01*
X60785714Y-80635238D01*
X60690476Y-80730476D01*
X60595238Y-80778095D01*
X203761904Y-128452380D02*
X203761904Y-127452380D01*
X203761904Y-127928571D02*
X204333333Y-127928571D01*
X204333333Y-128452380D02*
X204333333Y-127452380D01*
X204761904Y-127547619D02*
X204809523Y-127500000D01*
X204904761Y-127452380D01*
X205142857Y-127452380D01*
X205238095Y-127500000D01*
X205285714Y-127547619D01*
X205333333Y-127642857D01*
X205333333Y-127738095D01*
X205285714Y-127880952D01*
X204714285Y-128452380D01*
X205333333Y-128452380D01*
X206190476Y-127785714D02*
X206190476Y-128452380D01*
X205952380Y-127404761D02*
X205714285Y-128119047D01*
X206333333Y-128119047D01*
X133761904Y-123452380D02*
X133761904Y-122452380D01*
X133761904Y-122928571D02*
X134333333Y-122928571D01*
X134333333Y-123452380D02*
X134333333Y-122452380D01*
X134761904Y-122547619D02*
X134809523Y-122500000D01*
X134904761Y-122452380D01*
X135142857Y-122452380D01*
X135238095Y-122500000D01*
X135285714Y-122547619D01*
X135333333Y-122642857D01*
X135333333Y-122738095D01*
X135285714Y-122880952D01*
X134714285Y-123452380D01*
X135333333Y-123452380D01*
X135666666Y-122452380D02*
X136285714Y-122452380D01*
X135952380Y-122833333D01*
X136095238Y-122833333D01*
X136190476Y-122880952D01*
X136238095Y-122928571D01*
X136285714Y-123023809D01*
X136285714Y-123261904D01*
X136238095Y-123357142D01*
X136190476Y-123404761D01*
X136095238Y-123452380D01*
X135809523Y-123452380D01*
X135714285Y-123404761D01*
X135666666Y-123357142D01*
X108761904Y-128452380D02*
X108761904Y-127452380D01*
X108761904Y-127928571D02*
X109333333Y-127928571D01*
X109333333Y-128452380D02*
X109333333Y-127452380D01*
X109761904Y-127547619D02*
X109809523Y-127500000D01*
X109904761Y-127452380D01*
X110142857Y-127452380D01*
X110238095Y-127500000D01*
X110285714Y-127547619D01*
X110333333Y-127642857D01*
X110333333Y-127738095D01*
X110285714Y-127880952D01*
X109714285Y-128452380D01*
X110333333Y-128452380D01*
X110714285Y-127547619D02*
X110761904Y-127500000D01*
X110857142Y-127452380D01*
X111095238Y-127452380D01*
X111190476Y-127500000D01*
X111238095Y-127547619D01*
X111285714Y-127642857D01*
X111285714Y-127738095D01*
X111238095Y-127880952D01*
X110666666Y-128452380D01*
X111285714Y-128452380D01*
X68761904Y-107452380D02*
X68761904Y-106452380D01*
X68761904Y-106928571D02*
X69333333Y-106928571D01*
X69333333Y-107452380D02*
X69333333Y-106452380D01*
X69761904Y-106547619D02*
X69809523Y-106500000D01*
X69904761Y-106452380D01*
X70142857Y-106452380D01*
X70238095Y-106500000D01*
X70285714Y-106547619D01*
X70333333Y-106642857D01*
X70333333Y-106738095D01*
X70285714Y-106880952D01*
X69714285Y-107452380D01*
X70333333Y-107452380D01*
X71285714Y-107452380D02*
X70714285Y-107452380D01*
X71000000Y-107452380D02*
X71000000Y-106452380D01*
X70904761Y-106595238D01*
X70809523Y-106690476D01*
X70714285Y-106738095D01*
X173761904Y-128452380D02*
X173761904Y-127452380D01*
X173761904Y-127928571D02*
X174333333Y-127928571D01*
X174333333Y-128452380D02*
X174333333Y-127452380D01*
X174761904Y-127547619D02*
X174809523Y-127500000D01*
X174904761Y-127452380D01*
X175142857Y-127452380D01*
X175238095Y-127500000D01*
X175285714Y-127547619D01*
X175333333Y-127642857D01*
X175333333Y-127738095D01*
X175285714Y-127880952D01*
X174714285Y-128452380D01*
X175333333Y-128452380D01*
X175952380Y-127452380D02*
X176047619Y-127452380D01*
X176142857Y-127500000D01*
X176190476Y-127547619D01*
X176238095Y-127642857D01*
X176285714Y-127833333D01*
X176285714Y-128071428D01*
X176238095Y-128261904D01*
X176190476Y-128357142D01*
X176142857Y-128404761D01*
X176047619Y-128452380D01*
X175952380Y-128452380D01*
X175857142Y-128404761D01*
X175809523Y-128357142D01*
X175761904Y-128261904D01*
X175714285Y-128071428D01*
X175714285Y-127833333D01*
X175761904Y-127642857D01*
X175809523Y-127547619D01*
X175857142Y-127500000D01*
X175952380Y-127452380D01*
X163761904Y-107452380D02*
X163761904Y-106452380D01*
X163761904Y-106928571D02*
X164333333Y-106928571D01*
X164333333Y-107452380D02*
X164333333Y-106452380D01*
X165333333Y-107452380D02*
X164761904Y-107452380D01*
X165047619Y-107452380D02*
X165047619Y-106452380D01*
X164952380Y-106595238D01*
X164857142Y-106690476D01*
X164761904Y-106738095D01*
X165809523Y-107452380D02*
X166000000Y-107452380D01*
X166095238Y-107404761D01*
X166142857Y-107357142D01*
X166238095Y-107214285D01*
X166285714Y-107023809D01*
X166285714Y-106642857D01*
X166238095Y-106547619D01*
X166190476Y-106500000D01*
X166095238Y-106452380D01*
X165904761Y-106452380D01*
X165809523Y-106500000D01*
X165761904Y-106547619D01*
X165714285Y-106642857D01*
X165714285Y-106880952D01*
X165761904Y-106976190D01*
X165809523Y-107023809D01*
X165904761Y-107071428D01*
X166095238Y-107071428D01*
X166190476Y-107023809D01*
X166238095Y-106976190D01*
X166285714Y-106880952D01*
X78761904Y-128452380D02*
X78761904Y-127452380D01*
X78761904Y-127928571D02*
X79333333Y-127928571D01*
X79333333Y-128452380D02*
X79333333Y-127452380D01*
X80333333Y-128452380D02*
X79761904Y-128452380D01*
X80047619Y-128452380D02*
X80047619Y-127452380D01*
X79952380Y-127595238D01*
X79857142Y-127690476D01*
X79761904Y-127738095D01*
X80904761Y-127880952D02*
X80809523Y-127833333D01*
X80761904Y-127785714D01*
X80714285Y-127690476D01*
X80714285Y-127642857D01*
X80761904Y-127547619D01*
X80809523Y-127500000D01*
X80904761Y-127452380D01*
X81095238Y-127452380D01*
X81190476Y-127500000D01*
X81238095Y-127547619D01*
X81285714Y-127642857D01*
X81285714Y-127690476D01*
X81238095Y-127785714D01*
X81190476Y-127833333D01*
X81095238Y-127880952D01*
X80904761Y-127880952D01*
X80809523Y-127928571D01*
X80761904Y-127976190D01*
X80714285Y-128071428D01*
X80714285Y-128261904D01*
X80761904Y-128357142D01*
X80809523Y-128404761D01*
X80904761Y-128452380D01*
X81095238Y-128452380D01*
X81190476Y-128404761D01*
X81238095Y-128357142D01*
X81285714Y-128261904D01*
X81285714Y-128071428D01*
X81238095Y-127976190D01*
X81190476Y-127928571D01*
X81095238Y-127880952D01*
X38761904Y-107452380D02*
X38761904Y-106452380D01*
X38761904Y-106928571D02*
X39333333Y-106928571D01*
X39333333Y-107452380D02*
X39333333Y-106452380D01*
X40333333Y-107452380D02*
X39761904Y-107452380D01*
X40047619Y-107452380D02*
X40047619Y-106452380D01*
X39952380Y-106595238D01*
X39857142Y-106690476D01*
X39761904Y-106738095D01*
X40666666Y-106452380D02*
X41333333Y-106452380D01*
X40904761Y-107452380D01*
X203761904Y-98452380D02*
X203761904Y-97452380D01*
X203761904Y-97928571D02*
X204333333Y-97928571D01*
X204333333Y-98452380D02*
X204333333Y-97452380D01*
X205333333Y-98452380D02*
X204761904Y-98452380D01*
X205047619Y-98452380D02*
X205047619Y-97452380D01*
X204952380Y-97595238D01*
X204857142Y-97690476D01*
X204761904Y-97738095D01*
X206190476Y-97452380D02*
X206000000Y-97452380D01*
X205904761Y-97500000D01*
X205857142Y-97547619D01*
X205761904Y-97690476D01*
X205714285Y-97880952D01*
X205714285Y-98261904D01*
X205761904Y-98357142D01*
X205809523Y-98404761D01*
X205904761Y-98452380D01*
X206095238Y-98452380D01*
X206190476Y-98404761D01*
X206238095Y-98357142D01*
X206285714Y-98261904D01*
X206285714Y-98023809D01*
X206238095Y-97928571D01*
X206190476Y-97880952D01*
X206095238Y-97833333D01*
X205904761Y-97833333D01*
X205809523Y-97880952D01*
X205761904Y-97928571D01*
X205714285Y-98023809D01*
X133761904Y-107452380D02*
X133761904Y-106452380D01*
X133761904Y-106928571D02*
X134333333Y-106928571D01*
X134333333Y-107452380D02*
X134333333Y-106452380D01*
X135333333Y-107452380D02*
X134761904Y-107452380D01*
X135047619Y-107452380D02*
X135047619Y-106452380D01*
X134952380Y-106595238D01*
X134857142Y-106690476D01*
X134761904Y-106738095D01*
X136238095Y-106452380D02*
X135761904Y-106452380D01*
X135714285Y-106928571D01*
X135761904Y-106880952D01*
X135857142Y-106833333D01*
X136095238Y-106833333D01*
X136190476Y-106880952D01*
X136238095Y-106928571D01*
X136285714Y-107023809D01*
X136285714Y-107261904D01*
X136238095Y-107357142D01*
X136190476Y-107404761D01*
X136095238Y-107452380D01*
X135857142Y-107452380D01*
X135761904Y-107404761D01*
X135714285Y-107357142D01*
X108761904Y-98452380D02*
X108761904Y-97452380D01*
X108761904Y-97928571D02*
X109333333Y-97928571D01*
X109333333Y-98452380D02*
X109333333Y-97452380D01*
X110333333Y-98452380D02*
X109761904Y-98452380D01*
X110047619Y-98452380D02*
X110047619Y-97452380D01*
X109952380Y-97595238D01*
X109857142Y-97690476D01*
X109761904Y-97738095D01*
X111190476Y-97785714D02*
X111190476Y-98452380D01*
X110952380Y-97404761D02*
X110714285Y-98119047D01*
X111333333Y-98119047D01*
X38761904Y-123452380D02*
X38761904Y-122452380D01*
X38761904Y-122928571D02*
X39333333Y-122928571D01*
X39333333Y-123452380D02*
X39333333Y-122452380D01*
X40333333Y-123452380D02*
X39761904Y-123452380D01*
X40047619Y-123452380D02*
X40047619Y-122452380D01*
X39952380Y-122595238D01*
X39857142Y-122690476D01*
X39761904Y-122738095D01*
X40666666Y-122452380D02*
X41285714Y-122452380D01*
X40952380Y-122833333D01*
X41095238Y-122833333D01*
X41190476Y-122880952D01*
X41238095Y-122928571D01*
X41285714Y-123023809D01*
X41285714Y-123261904D01*
X41238095Y-123357142D01*
X41190476Y-123404761D01*
X41095238Y-123452380D01*
X40809523Y-123452380D01*
X40714285Y-123404761D01*
X40666666Y-123357142D01*
X192552380Y-120788095D02*
X191552380Y-120788095D01*
X191552380Y-120550000D01*
X191600000Y-120407142D01*
X191695238Y-120311904D01*
X191790476Y-120264285D01*
X191980952Y-120216666D01*
X192123809Y-120216666D01*
X192314285Y-120264285D01*
X192409523Y-120311904D01*
X192504761Y-120407142D01*
X192552380Y-120550000D01*
X192552380Y-120788095D01*
X191980952Y-119645238D02*
X191933333Y-119740476D01*
X191885714Y-119788095D01*
X191790476Y-119835714D01*
X191742857Y-119835714D01*
X191647619Y-119788095D01*
X191600000Y-119740476D01*
X191552380Y-119645238D01*
X191552380Y-119454761D01*
X191600000Y-119359523D01*
X191647619Y-119311904D01*
X191742857Y-119264285D01*
X191790476Y-119264285D01*
X191885714Y-119311904D01*
X191933333Y-119359523D01*
X191980952Y-119454761D01*
X191980952Y-119645238D01*
X192028571Y-119740476D01*
X192076190Y-119788095D01*
X192171428Y-119835714D01*
X192361904Y-119835714D01*
X192457142Y-119788095D01*
X192504761Y-119740476D01*
X192552380Y-119645238D01*
X192552380Y-119454761D01*
X192504761Y-119359523D01*
X192457142Y-119311904D01*
X192361904Y-119264285D01*
X192171428Y-119264285D01*
X192076190Y-119311904D01*
X192028571Y-119359523D01*
X191980952Y-119454761D01*
X190617857Y-121553571D02*
X190617857Y-121096428D01*
X190846428Y-121325000D02*
X190389285Y-121325000D01*
X149511904Y-113702380D02*
X149511904Y-112702380D01*
X149750000Y-112702380D01*
X149892857Y-112750000D01*
X149988095Y-112845238D01*
X150035714Y-112940476D01*
X150083333Y-113130952D01*
X150083333Y-113273809D01*
X150035714Y-113464285D01*
X149988095Y-113559523D01*
X149892857Y-113654761D01*
X149750000Y-113702380D01*
X149511904Y-113702380D01*
X150416666Y-112702380D02*
X151083333Y-112702380D01*
X150654761Y-113702380D01*
X94261904Y-122272380D02*
X94261904Y-121272380D01*
X94500000Y-121272380D01*
X94642857Y-121320000D01*
X94738095Y-121415238D01*
X94785714Y-121510476D01*
X94833333Y-121700952D01*
X94833333Y-121843809D01*
X94785714Y-122034285D01*
X94738095Y-122129523D01*
X94642857Y-122224761D01*
X94500000Y-122272380D01*
X94261904Y-122272380D01*
X95690476Y-121272380D02*
X95500000Y-121272380D01*
X95404761Y-121320000D01*
X95357142Y-121367619D01*
X95261904Y-121510476D01*
X95214285Y-121700952D01*
X95214285Y-122081904D01*
X95261904Y-122177142D01*
X95309523Y-122224761D01*
X95404761Y-122272380D01*
X95595238Y-122272380D01*
X95690476Y-122224761D01*
X95738095Y-122177142D01*
X95785714Y-122081904D01*
X95785714Y-121843809D01*
X95738095Y-121748571D01*
X95690476Y-121700952D01*
X95595238Y-121653333D01*
X95404761Y-121653333D01*
X95309523Y-121700952D01*
X95261904Y-121748571D01*
X95214285Y-121843809D01*
X54261904Y-114022380D02*
X54261904Y-113022380D01*
X54500000Y-113022380D01*
X54642857Y-113070000D01*
X54738095Y-113165238D01*
X54785714Y-113260476D01*
X54833333Y-113450952D01*
X54833333Y-113593809D01*
X54785714Y-113784285D01*
X54738095Y-113879523D01*
X54642857Y-113974761D01*
X54500000Y-114022380D01*
X54261904Y-114022380D01*
X55738095Y-113022380D02*
X55261904Y-113022380D01*
X55214285Y-113498571D01*
X55261904Y-113450952D01*
X55357142Y-113403333D01*
X55595238Y-113403333D01*
X55690476Y-113450952D01*
X55738095Y-113498571D01*
X55785714Y-113593809D01*
X55785714Y-113831904D01*
X55738095Y-113927142D01*
X55690476Y-113974761D01*
X55595238Y-114022380D01*
X55357142Y-114022380D01*
X55261904Y-113974761D01*
X55214285Y-113927142D01*
X108761904Y-38452380D02*
X108761904Y-37452380D01*
X108761904Y-37928571D02*
X109333333Y-37928571D01*
X109333333Y-38452380D02*
X109333333Y-37452380D01*
X110333333Y-38452380D02*
X109761904Y-38452380D01*
X110047619Y-38452380D02*
X110047619Y-37452380D01*
X109952380Y-37595238D01*
X109857142Y-37690476D01*
X109761904Y-37738095D01*
X110952380Y-37452380D02*
X111047619Y-37452380D01*
X111142857Y-37500000D01*
X111190476Y-37547619D01*
X111238095Y-37642857D01*
X111285714Y-37833333D01*
X111285714Y-38071428D01*
X111238095Y-38261904D01*
X111190476Y-38357142D01*
X111142857Y-38404761D01*
X111047619Y-38452380D01*
X110952380Y-38452380D01*
X110857142Y-38404761D01*
X110809523Y-38357142D01*
X110761904Y-38261904D01*
X110714285Y-38071428D01*
X110714285Y-37833333D01*
X110761904Y-37642857D01*
X110809523Y-37547619D01*
X110857142Y-37500000D01*
X110952380Y-37452380D01*
X109238095Y-68452380D02*
X109238095Y-67452380D01*
X109238095Y-67928571D02*
X109809523Y-67928571D01*
X109809523Y-68452380D02*
X109809523Y-67452380D01*
X110714285Y-67452380D02*
X110523809Y-67452380D01*
X110428571Y-67500000D01*
X110380952Y-67547619D01*
X110285714Y-67690476D01*
X110238095Y-67880952D01*
X110238095Y-68261904D01*
X110285714Y-68357142D01*
X110333333Y-68404761D01*
X110428571Y-68452380D01*
X110619047Y-68452380D01*
X110714285Y-68404761D01*
X110761904Y-68357142D01*
X110809523Y-68261904D01*
X110809523Y-68023809D01*
X110761904Y-67928571D01*
X110714285Y-67880952D01*
X110619047Y-67833333D01*
X110428571Y-67833333D01*
X110333333Y-67880952D01*
X110285714Y-67928571D01*
X110238095Y-68023809D01*
X79238095Y-68452380D02*
X79238095Y-67452380D01*
X79238095Y-67928571D02*
X79809523Y-67928571D01*
X79809523Y-68452380D02*
X79809523Y-67452380D01*
X80238095Y-67547619D02*
X80285714Y-67500000D01*
X80380952Y-67452380D01*
X80619047Y-67452380D01*
X80714285Y-67500000D01*
X80761904Y-67547619D01*
X80809523Y-67642857D01*
X80809523Y-67738095D01*
X80761904Y-67880952D01*
X80190476Y-68452380D01*
X80809523Y-68452380D01*
X63452380Y-40761904D02*
X62452380Y-40761904D01*
X62928571Y-40761904D02*
X62928571Y-40190476D01*
X63452380Y-40190476D02*
X62452380Y-40190476D01*
X63452380Y-39666666D02*
X63452380Y-39476190D01*
X63404761Y-39380952D01*
X63357142Y-39333333D01*
X63214285Y-39238095D01*
X63023809Y-39190476D01*
X62642857Y-39190476D01*
X62547619Y-39238095D01*
X62500000Y-39285714D01*
X62452380Y-39380952D01*
X62452380Y-39571428D01*
X62500000Y-39666666D01*
X62547619Y-39714285D01*
X62642857Y-39761904D01*
X62880952Y-39761904D01*
X62976190Y-39714285D01*
X63023809Y-39666666D01*
X63071428Y-39571428D01*
X63071428Y-39380952D01*
X63023809Y-39285714D01*
X62976190Y-39238095D01*
X62880952Y-39190476D01*
X33452380Y-70761904D02*
X32452380Y-70761904D01*
X32928571Y-70761904D02*
X32928571Y-70190476D01*
X33452380Y-70190476D02*
X32452380Y-70190476D01*
X32452380Y-69238095D02*
X32452380Y-69714285D01*
X32928571Y-69761904D01*
X32880952Y-69714285D01*
X32833333Y-69619047D01*
X32833333Y-69380952D01*
X32880952Y-69285714D01*
X32928571Y-69238095D01*
X33023809Y-69190476D01*
X33261904Y-69190476D01*
X33357142Y-69238095D01*
X33404761Y-69285714D01*
X33452380Y-69380952D01*
X33452380Y-69619047D01*
X33404761Y-69714285D01*
X33357142Y-69761904D01*
X33452380Y-40761904D02*
X32452380Y-40761904D01*
X32928571Y-40761904D02*
X32928571Y-40190476D01*
X33452380Y-40190476D02*
X32452380Y-40190476D01*
X33452380Y-39190476D02*
X33452380Y-39761904D01*
X33452380Y-39476190D02*
X32452380Y-39476190D01*
X32595238Y-39571428D01*
X32690476Y-39666666D01*
X32738095Y-39761904D01*
X54261904Y-54022380D02*
X54261904Y-53022380D01*
X54500000Y-53022380D01*
X54642857Y-53070000D01*
X54738095Y-53165238D01*
X54785714Y-53260476D01*
X54833333Y-53450952D01*
X54833333Y-53593809D01*
X54785714Y-53784285D01*
X54738095Y-53879523D01*
X54642857Y-53974761D01*
X54500000Y-54022380D01*
X54261904Y-54022380D01*
X55785714Y-54022380D02*
X55214285Y-54022380D01*
X55500000Y-54022380D02*
X55500000Y-53022380D01*
X55404761Y-53165238D01*
X55309523Y-53260476D01*
X55214285Y-53308095D01*
X98382380Y-55666666D02*
X97906190Y-56000000D01*
X98382380Y-56238095D02*
X97382380Y-56238095D01*
X97382380Y-55857142D01*
X97430000Y-55761904D01*
X97477619Y-55714285D01*
X97572857Y-55666666D01*
X97715714Y-55666666D01*
X97810952Y-55714285D01*
X97858571Y-55761904D01*
X97906190Y-55857142D01*
X97906190Y-56238095D01*
X97477619Y-55285714D02*
X97430000Y-55238095D01*
X97382380Y-55142857D01*
X97382380Y-54904761D01*
X97430000Y-54809523D01*
X97477619Y-54761904D01*
X97572857Y-54714285D01*
X97668095Y-54714285D01*
X97810952Y-54761904D01*
X98382380Y-55333333D01*
X98382380Y-54714285D01*
X203761904Y-68452380D02*
X203761904Y-67452380D01*
X203761904Y-67928571D02*
X204333333Y-67928571D01*
X204333333Y-68452380D02*
X204333333Y-67452380D01*
X205333333Y-68452380D02*
X204761904Y-68452380D01*
X205047619Y-68452380D02*
X205047619Y-67452380D01*
X204952380Y-67595238D01*
X204857142Y-67690476D01*
X204761904Y-67738095D01*
X205714285Y-67547619D02*
X205761904Y-67500000D01*
X205857142Y-67452380D01*
X206095238Y-67452380D01*
X206190476Y-67500000D01*
X206238095Y-67547619D01*
X206285714Y-67642857D01*
X206285714Y-67738095D01*
X206238095Y-67880952D01*
X205666666Y-68452380D01*
X206285714Y-68452380D01*
X163761904Y-48452380D02*
X163761904Y-47452380D01*
X163761904Y-47928571D02*
X164333333Y-47928571D01*
X164333333Y-48452380D02*
X164333333Y-47452380D01*
X165333333Y-48452380D02*
X164761904Y-48452380D01*
X165047619Y-48452380D02*
X165047619Y-47452380D01*
X164952380Y-47595238D01*
X164857142Y-47690476D01*
X164761904Y-47738095D01*
X166285714Y-48452380D02*
X165714285Y-48452380D01*
X166000000Y-48452380D02*
X166000000Y-47452380D01*
X165904761Y-47595238D01*
X165809523Y-47690476D01*
X165714285Y-47738095D01*
X174238095Y-68452380D02*
X174238095Y-67452380D01*
X174238095Y-67928571D02*
X174809523Y-67928571D01*
X174809523Y-68452380D02*
X174809523Y-67452380D01*
X175428571Y-67880952D02*
X175333333Y-67833333D01*
X175285714Y-67785714D01*
X175238095Y-67690476D01*
X175238095Y-67642857D01*
X175285714Y-67547619D01*
X175333333Y-67500000D01*
X175428571Y-67452380D01*
X175619047Y-67452380D01*
X175714285Y-67500000D01*
X175761904Y-67547619D01*
X175809523Y-67642857D01*
X175809523Y-67690476D01*
X175761904Y-67785714D01*
X175714285Y-67833333D01*
X175619047Y-67880952D01*
X175428571Y-67880952D01*
X175333333Y-67928571D01*
X175285714Y-67976190D01*
X175238095Y-68071428D01*
X175238095Y-68261904D01*
X175285714Y-68357142D01*
X175333333Y-68404761D01*
X175428571Y-68452380D01*
X175619047Y-68452380D01*
X175714285Y-68404761D01*
X175761904Y-68357142D01*
X175809523Y-68261904D01*
X175809523Y-68071428D01*
X175761904Y-67976190D01*
X175714285Y-67928571D01*
X175619047Y-67880952D01*
X134238095Y-63452380D02*
X134238095Y-62452380D01*
X134238095Y-62928571D02*
X134809523Y-62928571D01*
X134809523Y-63452380D02*
X134809523Y-62452380D01*
X135190476Y-62452380D02*
X135857142Y-62452380D01*
X135428571Y-63452380D01*
X204238095Y-38452380D02*
X204238095Y-37452380D01*
X204238095Y-37928571D02*
X204809523Y-37928571D01*
X204809523Y-38452380D02*
X204809523Y-37452380D01*
X205714285Y-37785714D02*
X205714285Y-38452380D01*
X205476190Y-37404761D02*
X205238095Y-38119047D01*
X205857142Y-38119047D01*
X134238095Y-48452380D02*
X134238095Y-47452380D01*
X134238095Y-47928571D02*
X134809523Y-47928571D01*
X134809523Y-48452380D02*
X134809523Y-47452380D01*
X135190476Y-47452380D02*
X135809523Y-47452380D01*
X135476190Y-47833333D01*
X135619047Y-47833333D01*
X135714285Y-47880952D01*
X135761904Y-47928571D01*
X135809523Y-48023809D01*
X135809523Y-48261904D01*
X135761904Y-48357142D01*
X135714285Y-48404761D01*
X135619047Y-48452380D01*
X135333333Y-48452380D01*
X135238095Y-48404761D01*
X135190476Y-48357142D01*
X194882380Y-59166666D02*
X194406190Y-59500000D01*
X194882380Y-59738095D02*
X193882380Y-59738095D01*
X193882380Y-59357142D01*
X193930000Y-59261904D01*
X193977619Y-59214285D01*
X194072857Y-59166666D01*
X194215714Y-59166666D01*
X194310952Y-59214285D01*
X194358571Y-59261904D01*
X194406190Y-59357142D01*
X194406190Y-59738095D01*
X194215714Y-58309523D02*
X194882380Y-58309523D01*
X193834761Y-58547619D02*
X194549047Y-58785714D01*
X194549047Y-58166666D01*
X146022380Y-58166666D02*
X145546190Y-58500000D01*
X146022380Y-58738095D02*
X145022380Y-58738095D01*
X145022380Y-58357142D01*
X145070000Y-58261904D01*
X145117619Y-58214285D01*
X145212857Y-58166666D01*
X145355714Y-58166666D01*
X145450952Y-58214285D01*
X145498571Y-58261904D01*
X145546190Y-58357142D01*
X145546190Y-58738095D01*
X145022380Y-57833333D02*
X145022380Y-57214285D01*
X145403333Y-57547619D01*
X145403333Y-57404761D01*
X145450952Y-57309523D01*
X145498571Y-57261904D01*
X145593809Y-57214285D01*
X145831904Y-57214285D01*
X145927142Y-57261904D01*
X145974761Y-57309523D01*
X146022380Y-57404761D01*
X146022380Y-57690476D01*
X145974761Y-57785714D01*
X145927142Y-57833333D01*
X188552380Y-60688095D02*
X187552380Y-60688095D01*
X187552380Y-60450000D01*
X187600000Y-60307142D01*
X187695238Y-60211904D01*
X187790476Y-60164285D01*
X187980952Y-60116666D01*
X188123809Y-60116666D01*
X188314285Y-60164285D01*
X188409523Y-60211904D01*
X188504761Y-60307142D01*
X188552380Y-60450000D01*
X188552380Y-60688095D01*
X187885714Y-59259523D02*
X188552380Y-59259523D01*
X187504761Y-59497619D02*
X188219047Y-59735714D01*
X188219047Y-59116666D01*
X189667857Y-58903571D02*
X189667857Y-58446428D01*
X189896428Y-58675000D02*
X189439285Y-58675000D01*
X148936904Y-57302380D02*
X148936904Y-56302380D01*
X149175000Y-56302380D01*
X149317857Y-56350000D01*
X149413095Y-56445238D01*
X149460714Y-56540476D01*
X149508333Y-56730952D01*
X149508333Y-56873809D01*
X149460714Y-57064285D01*
X149413095Y-57159523D01*
X149317857Y-57254761D01*
X149175000Y-57302380D01*
X148936904Y-57302380D01*
X149841666Y-56302380D02*
X150460714Y-56302380D01*
X150127380Y-56683333D01*
X150270238Y-56683333D01*
X150365476Y-56730952D01*
X150413095Y-56778571D01*
X150460714Y-56873809D01*
X150460714Y-57111904D01*
X150413095Y-57207142D01*
X150365476Y-57254761D01*
X150270238Y-57302380D01*
X149984523Y-57302380D01*
X149889285Y-57254761D01*
X149841666Y-57207142D01*
X94237904Y-62272380D02*
X94237904Y-61272380D01*
X94476000Y-61272380D01*
X94618857Y-61320000D01*
X94714095Y-61415238D01*
X94761714Y-61510476D01*
X94809333Y-61700952D01*
X94809333Y-61843809D01*
X94761714Y-62034285D01*
X94714095Y-62129523D01*
X94618857Y-62224761D01*
X94476000Y-62272380D01*
X94237904Y-62272380D01*
X95190285Y-61367619D02*
X95237904Y-61320000D01*
X95333142Y-61272380D01*
X95571238Y-61272380D01*
X95666476Y-61320000D01*
X95714095Y-61367619D01*
X95761714Y-61462857D01*
X95761714Y-61558095D01*
X95714095Y-61700952D01*
X95142666Y-62272380D01*
X95761714Y-62272380D01*
M02*
