G04 #@! TF.GenerationSoftware,KiCad,Pcbnew,(5.1.5)-3*
G04 #@! TF.CreationDate,2020-03-10T14:16:06+00:00*
G04 #@! TF.ProjectId,led_board,6c65645f-626f-4617-9264-2e6b69636164,rev?*
G04 #@! TF.SameCoordinates,Original*
G04 #@! TF.FileFunction,Soldermask,Top*
G04 #@! TF.FilePolarity,Negative*
%FSLAX46Y46*%
G04 Gerber Fmt 4.6, Leading zero omitted, Abs format (unit mm)*
G04 Created by KiCad (PCBNEW (5.1.5)-3) date 2020-03-10 14:16:06*
%MOMM*%
%LPD*%
G04 APERTURE LIST*
%ADD10C,3.000000*%
%ADD11C,7.510000*%
%ADD12C,7.500000*%
%ADD13C,0.100000*%
G04 APERTURE END LIST*
D10*
X53800000Y-52750000D02*
X56000000Y-52750000D01*
X189100000Y-62250000D02*
X191200000Y-62250000D01*
X149000000Y-52750000D02*
X151300000Y-52750000D01*
X93500000Y-62250000D02*
X96500000Y-62250000D01*
D11*
X187886392Y-47001290D02*
X187902562Y-47625541D01*
X187902562Y-47625541D02*
X187922698Y-48249677D01*
X187922698Y-48249677D02*
X187946799Y-48873673D01*
X187946799Y-48873673D02*
X187974862Y-49497503D01*
X187974862Y-49497503D02*
X188006888Y-50121142D01*
X188006888Y-50121142D02*
X188042874Y-50744565D01*
X188042874Y-50744565D02*
X188082819Y-51367747D01*
X188082819Y-51367747D02*
X188126722Y-51990663D01*
X188126722Y-51990663D02*
X188174580Y-52613287D01*
X188174580Y-52613287D02*
X188226393Y-53235595D01*
X188226393Y-53235595D02*
X188282157Y-53857561D01*
X188282157Y-53857561D02*
X188341871Y-54479160D01*
X188341871Y-54479160D02*
X188405532Y-55100368D01*
X188405532Y-55100368D02*
X188473138Y-55721158D01*
X188473138Y-55721158D02*
X188544685Y-56341507D01*
X188544685Y-56341507D02*
X188620173Y-56961389D01*
X188620173Y-56961389D02*
X189000000Y-60000000D01*
X187886392Y-47001290D02*
X187500000Y-30000000D01*
D12*
X191000000Y-60000000D02*
X193000000Y-59875000D01*
D11*
X191000000Y-117000000D02*
X190993770Y-116380442D01*
X190993770Y-116380442D02*
X190975083Y-115761136D01*
X190975083Y-115761136D02*
X190943948Y-115142330D01*
X190943948Y-115142330D02*
X190900375Y-114524276D01*
X190900375Y-114524276D02*
X190844384Y-113907223D01*
X190844384Y-113907223D02*
X190775996Y-113291420D01*
X190775996Y-113291420D02*
X190695239Y-112677117D01*
X190695239Y-112677117D02*
X190602146Y-112064562D01*
X190602146Y-112064562D02*
X190496755Y-111454003D01*
X190496755Y-111454003D02*
X190379108Y-110845686D01*
X190379108Y-110845686D02*
X190249252Y-110239858D01*
X190249252Y-110239858D02*
X190107241Y-109636764D01*
X190107241Y-109636764D02*
X189953132Y-109036647D01*
X189953132Y-109036647D02*
X189786986Y-108439751D01*
X189786986Y-108439751D02*
X189608872Y-107846316D01*
X189608872Y-107846316D02*
X189418861Y-107256583D01*
X187884700Y-100002216D02*
X187500000Y-90000000D01*
X187884700Y-100002216D02*
X187902310Y-100374282D01*
X187902310Y-100374282D02*
X187926505Y-100745979D01*
X187926505Y-100745979D02*
X187957278Y-101117190D01*
X187957278Y-101117190D02*
X187994619Y-101487797D01*
X187994619Y-101487797D02*
X188038515Y-101857685D01*
X188038515Y-101857685D02*
X188088954Y-102226737D01*
X188088954Y-102226737D02*
X188145920Y-102594839D01*
X188145920Y-102594839D02*
X188209394Y-102961874D01*
X188209394Y-102961874D02*
X188279357Y-103327728D01*
X188279357Y-103327728D02*
X188355786Y-103692286D01*
X188355786Y-103692286D02*
X188438658Y-104055434D01*
X188438658Y-104055434D02*
X188527948Y-104417057D01*
X188527948Y-104417057D02*
X188623626Y-104777043D01*
X188623626Y-104777043D02*
X188725662Y-105135278D01*
X188725662Y-105135278D02*
X188834026Y-105491651D01*
X188834026Y-105491651D02*
X188948683Y-105846049D01*
X188948683Y-105846049D02*
X189418861Y-107256583D01*
X191000000Y-117000000D02*
X191000000Y-120000000D01*
X149000000Y-118000000D02*
X149004158Y-118370937D01*
X149004158Y-118370937D02*
X149016632Y-118741689D01*
X149016632Y-118741689D02*
X149037417Y-119112067D01*
X149037417Y-119112067D02*
X149066500Y-119481886D01*
X149066500Y-119481886D02*
X149103869Y-119850961D01*
X149103869Y-119850961D02*
X149149502Y-120219104D01*
X149149502Y-120219104D02*
X149203379Y-120586132D01*
X149203379Y-120586132D02*
X149265471Y-120951860D01*
X149265471Y-120951860D02*
X149335748Y-121316104D01*
X149335748Y-121316104D02*
X149414174Y-121678680D01*
X149414174Y-121678680D02*
X149500709Y-122039407D01*
X149500709Y-122039407D02*
X149595311Y-122398102D01*
X149595311Y-122398102D02*
X149697932Y-122754587D01*
X149697932Y-122754587D02*
X149808519Y-123108681D01*
X149808519Y-123108681D02*
X149927018Y-123460206D01*
X149927018Y-123460206D02*
X150053370Y-123808987D01*
X152156173Y-133997560D02*
X152500000Y-145000000D01*
X152156173Y-133997560D02*
X152130491Y-133378700D01*
X152130491Y-133378700D02*
X152092146Y-132760496D01*
X152092146Y-132760496D02*
X152041156Y-132143207D01*
X152041156Y-132143207D02*
X151977541Y-131527091D01*
X151977541Y-131527091D02*
X151901328Y-130912406D01*
X151901328Y-130912406D02*
X151812548Y-130299409D01*
X151812548Y-130299409D02*
X151711240Y-129688359D01*
X151711240Y-129688359D02*
X151597445Y-129079510D01*
X151597445Y-129079510D02*
X151471212Y-128473118D01*
X151471212Y-128473118D02*
X151332592Y-127869437D01*
X151332592Y-127869437D02*
X151181644Y-127268719D01*
X151181644Y-127268719D02*
X151018432Y-126671218D01*
X151018432Y-126671218D02*
X150843024Y-126077182D01*
X150843024Y-126077182D02*
X150655493Y-125486862D01*
X150655493Y-125486862D02*
X150455917Y-124900504D01*
X150455917Y-124900504D02*
X150244382Y-124318354D01*
X150244382Y-124318354D02*
X150053370Y-123808987D01*
X149000000Y-118000000D02*
X149000000Y-115000000D01*
D12*
X147000000Y-57125000D02*
X149000000Y-55000000D01*
D11*
X151292893Y-57050252D02*
X151000000Y-55000000D01*
X151378853Y-57668551D02*
X151292893Y-57050252D01*
X151460168Y-58287479D02*
X151378853Y-57668551D01*
X151536832Y-58906999D02*
X151460168Y-58287479D01*
X151608842Y-59527078D02*
X151536832Y-58906999D01*
X151676192Y-60147681D02*
X151608842Y-59527078D01*
X151738880Y-60768772D02*
X151676192Y-60147681D01*
X151796902Y-61390316D02*
X151738880Y-60768772D01*
X151850255Y-62012278D02*
X151796902Y-61390316D01*
X151898935Y-62634623D02*
X151850255Y-62012278D01*
X151942939Y-63257316D02*
X151898935Y-62634623D01*
X151982267Y-63880323D02*
X151942939Y-63257316D01*
X152016914Y-64503607D02*
X151982267Y-63880323D01*
X152046879Y-65127133D02*
X152016914Y-64503607D01*
X152072161Y-65750868D02*
X152046879Y-65127133D01*
X152092758Y-66374774D02*
X152072161Y-65750868D01*
X152108669Y-66998818D02*
X152092758Y-66374774D01*
X152108669Y-66998818D02*
X152500000Y-85000000D01*
X96463500Y-60000000D02*
X96500000Y-56375000D01*
X93131591Y-55782194D02*
X93488500Y-60000000D01*
X93080362Y-55159586D02*
X93131591Y-55782194D01*
X93032026Y-54536747D02*
X93080362Y-55159586D01*
X92986583Y-53913690D02*
X93032026Y-54536747D01*
X92944036Y-53290429D02*
X92986583Y-53913690D01*
X92904384Y-52666977D02*
X92944036Y-53290429D01*
X92867628Y-52043347D02*
X92904384Y-52666977D01*
X92833770Y-51419554D02*
X92867628Y-52043347D01*
X92802809Y-50795610D02*
X92833770Y-51419554D01*
X92774748Y-50171529D02*
X92802809Y-50795610D01*
X92749585Y-49547324D02*
X92774748Y-50171529D01*
X92727322Y-48923009D02*
X92749585Y-49547324D01*
X92707960Y-48298597D02*
X92727322Y-48923009D01*
X92691498Y-47674102D02*
X92707960Y-48298597D01*
X92677937Y-47049538D02*
X92691498Y-47674102D01*
X92667278Y-46424917D02*
X92677937Y-47049538D01*
X92659521Y-45800254D02*
X92667278Y-46424917D01*
X92659521Y-45800254D02*
X92500000Y-30000000D01*
X92880986Y-106001416D02*
X92896506Y-106626166D01*
X92896506Y-106626166D02*
X92913319Y-107250882D01*
X92913319Y-107250882D02*
X92931423Y-107875563D01*
X92931423Y-107875563D02*
X92950819Y-108500205D01*
X92950819Y-108500205D02*
X92971506Y-109124805D01*
X92971506Y-109124805D02*
X92993484Y-109749361D01*
X92993484Y-109749361D02*
X93016754Y-110373871D01*
X93016754Y-110373871D02*
X93041314Y-110998331D01*
X93041314Y-110998331D02*
X93067165Y-111622739D01*
X93067165Y-111622739D02*
X93094307Y-112247092D01*
X93094307Y-112247092D02*
X93122740Y-112871388D01*
X93122740Y-112871388D02*
X93152464Y-113495624D01*
X93152464Y-113495624D02*
X93183477Y-114119796D01*
X93183477Y-114119796D02*
X93215782Y-114743904D01*
X93215782Y-114743904D02*
X93249376Y-115367943D01*
X93249376Y-115367943D02*
X93284261Y-115991912D01*
X93284261Y-115991912D02*
X93512500Y-120000000D01*
X92880986Y-106001416D02*
X92500000Y-90000000D01*
X56793805Y-121130122D02*
X55875000Y-115000000D01*
X57223861Y-124848617D02*
X57165918Y-124227362D01*
X57364647Y-126715121D02*
X57323229Y-126092546D01*
X56879195Y-121748203D02*
X56793805Y-121130122D01*
X56959107Y-122367016D02*
X56879195Y-121748203D01*
X57165918Y-124227362D02*
X57102474Y-123606644D01*
X57033536Y-122986512D02*
X56959107Y-122367016D01*
X57276300Y-125470361D02*
X57223861Y-124848617D01*
X57400548Y-127338039D02*
X57364647Y-126715121D01*
X57430931Y-127961251D02*
X57400548Y-127338039D01*
X57475133Y-129208359D02*
X57455793Y-128584707D01*
X57455793Y-128584707D02*
X57430931Y-127961251D01*
X57102474Y-123606644D02*
X57033536Y-122986512D01*
X57323229Y-126092546D02*
X57276300Y-125470361D01*
X57488947Y-129832157D02*
X57475133Y-129208359D01*
X57497237Y-130456054D02*
X57488947Y-129832157D01*
X57500000Y-131080000D02*
X57497237Y-130456054D01*
X57500000Y-144690000D02*
X57500000Y-131080000D01*
X52070000Y-55880000D02*
X54125000Y-55000000D01*
X56793805Y-61440122D02*
X55875000Y-55000000D01*
X56879195Y-62058203D02*
X56793805Y-61440122D01*
X56959107Y-62677016D02*
X56879195Y-62058203D01*
X57033536Y-63296512D02*
X56959107Y-62677016D01*
X57102474Y-63916644D02*
X57033536Y-63296512D01*
X57165918Y-64537362D02*
X57102474Y-63916644D01*
X57223861Y-65158617D02*
X57165918Y-64537362D01*
X57276300Y-65780361D02*
X57223861Y-65158617D01*
X57323229Y-66402546D02*
X57276300Y-65780361D01*
X57364647Y-67025121D02*
X57323229Y-66402546D01*
X57400548Y-67648039D02*
X57364647Y-67025121D01*
X57430931Y-68271251D02*
X57400548Y-67648039D01*
X57455793Y-68894707D02*
X57430931Y-68271251D01*
X57475133Y-69518359D02*
X57455793Y-68894707D01*
X57488947Y-70142157D02*
X57475133Y-69518359D01*
X57497237Y-70766054D02*
X57488947Y-70142157D01*
X57500000Y-71390000D02*
X57497237Y-70766054D01*
X57500000Y-71390000D02*
X57500000Y-85000000D01*
D13*
G36*
X157551000Y-147591000D02*
G01*
X155949000Y-147591000D01*
X155949000Y-142409000D01*
X157551000Y-142409000D01*
X157551000Y-147591000D01*
G37*
G36*
X149051000Y-147591000D02*
G01*
X147449000Y-147591000D01*
X147449000Y-142409000D01*
X149051000Y-142409000D01*
X149051000Y-147591000D01*
G37*
G36*
X54051000Y-147591000D02*
G01*
X52449000Y-147591000D01*
X52449000Y-142409000D01*
X54051000Y-142409000D01*
X54051000Y-147591000D01*
G37*
G36*
X62551000Y-147591000D02*
G01*
X60949000Y-147591000D01*
X60949000Y-142409000D01*
X62551000Y-142409000D01*
X62551000Y-147591000D01*
G37*
G36*
X58301000Y-147591000D02*
G01*
X56699000Y-147591000D01*
X56699000Y-142409000D01*
X58301000Y-142409000D01*
X58301000Y-147591000D01*
G37*
G36*
X153301000Y-147591000D02*
G01*
X151699000Y-147591000D01*
X151699000Y-142409000D01*
X153301000Y-142409000D01*
X153301000Y-147591000D01*
G37*
G36*
X111765010Y-129181536D02*
G01*
X112866222Y-129637673D01*
X113857287Y-130299881D01*
X114700119Y-131142713D01*
X115362327Y-132133778D01*
X115818464Y-133234990D01*
X116051000Y-134404027D01*
X116051000Y-135595973D01*
X115818464Y-136765010D01*
X115362327Y-137866222D01*
X114700119Y-138857287D01*
X113857287Y-139700119D01*
X112866222Y-140362327D01*
X111765010Y-140818464D01*
X110595973Y-141051000D01*
X109404027Y-141051000D01*
X108234990Y-140818464D01*
X107133778Y-140362327D01*
X106142713Y-139700119D01*
X105299881Y-138857287D01*
X104637673Y-137866222D01*
X104181536Y-136765010D01*
X103949000Y-135595973D01*
X103949000Y-134404027D01*
X104181536Y-133234990D01*
X104637673Y-132133778D01*
X105299881Y-131142713D01*
X106142713Y-130299881D01*
X107133778Y-129637673D01*
X108234990Y-129181536D01*
X109404027Y-128949000D01*
X110595973Y-128949000D01*
X111765010Y-129181536D01*
G37*
G36*
X81765010Y-129181536D02*
G01*
X82866222Y-129637673D01*
X83857287Y-130299881D01*
X84700119Y-131142713D01*
X85362327Y-132133778D01*
X85818464Y-133234990D01*
X86051000Y-134404027D01*
X86051000Y-135595973D01*
X85818464Y-136765010D01*
X85362327Y-137866222D01*
X84700119Y-138857287D01*
X83857287Y-139700119D01*
X82866222Y-140362327D01*
X81765010Y-140818464D01*
X80595973Y-141051000D01*
X79404027Y-141051000D01*
X78234990Y-140818464D01*
X77133778Y-140362327D01*
X76142713Y-139700119D01*
X75299881Y-138857287D01*
X74637673Y-137866222D01*
X74181536Y-136765010D01*
X73949000Y-135595973D01*
X73949000Y-134404027D01*
X74181536Y-133234990D01*
X74637673Y-132133778D01*
X75299881Y-131142713D01*
X76142713Y-130299881D01*
X77133778Y-129637673D01*
X78234990Y-129181536D01*
X79404027Y-128949000D01*
X80595973Y-128949000D01*
X81765010Y-129181536D01*
G37*
G36*
X176765010Y-129181536D02*
G01*
X177866222Y-129637673D01*
X178857287Y-130299881D01*
X179700119Y-131142713D01*
X180362327Y-132133778D01*
X180818464Y-133234990D01*
X181051000Y-134404027D01*
X181051000Y-135595973D01*
X180818464Y-136765010D01*
X180362327Y-137866222D01*
X179700119Y-138857287D01*
X178857287Y-139700119D01*
X177866222Y-140362327D01*
X176765010Y-140818464D01*
X175595973Y-141051000D01*
X174404027Y-141051000D01*
X173234990Y-140818464D01*
X172133778Y-140362327D01*
X171142713Y-139700119D01*
X170299881Y-138857287D01*
X169637673Y-137866222D01*
X169181536Y-136765010D01*
X168949000Y-135595973D01*
X168949000Y-134404027D01*
X169181536Y-133234990D01*
X169637673Y-132133778D01*
X170299881Y-131142713D01*
X171142713Y-130299881D01*
X172133778Y-129637673D01*
X173234990Y-129181536D01*
X174404027Y-128949000D01*
X175595973Y-128949000D01*
X176765010Y-129181536D01*
G37*
G36*
X206765010Y-129181536D02*
G01*
X207866222Y-129637673D01*
X208857287Y-130299881D01*
X209700119Y-131142713D01*
X210362327Y-132133778D01*
X210818464Y-133234990D01*
X211051000Y-134404027D01*
X211051000Y-135595973D01*
X210818464Y-136765010D01*
X210362327Y-137866222D01*
X209700119Y-138857287D01*
X208857287Y-139700119D01*
X207866222Y-140362327D01*
X206765010Y-140818464D01*
X205595973Y-141051000D01*
X204404027Y-141051000D01*
X203234990Y-140818464D01*
X202133778Y-140362327D01*
X201142713Y-139700119D01*
X200299881Y-138857287D01*
X199637673Y-137866222D01*
X199181536Y-136765010D01*
X198949000Y-135595973D01*
X198949000Y-134404027D01*
X199181536Y-133234990D01*
X199637673Y-132133778D01*
X200299881Y-131142713D01*
X201142713Y-130299881D01*
X202133778Y-129637673D01*
X203234990Y-129181536D01*
X204404027Y-128949000D01*
X205595973Y-128949000D01*
X206765010Y-129181536D01*
G37*
G36*
X136765010Y-124181536D02*
G01*
X137866222Y-124637673D01*
X138857287Y-125299881D01*
X139700119Y-126142713D01*
X140362327Y-127133778D01*
X140818464Y-128234990D01*
X141051000Y-129404027D01*
X141051000Y-130595973D01*
X140818464Y-131765010D01*
X140362327Y-132866222D01*
X139700119Y-133857287D01*
X138857287Y-134700119D01*
X137866222Y-135362327D01*
X136765010Y-135818464D01*
X135595973Y-136051000D01*
X134404027Y-136051000D01*
X133234990Y-135818464D01*
X132133778Y-135362327D01*
X131142713Y-134700119D01*
X130299881Y-133857287D01*
X129637673Y-132866222D01*
X129181536Y-131765010D01*
X128949000Y-130595973D01*
X128949000Y-129404027D01*
X129181536Y-128234990D01*
X129637673Y-127133778D01*
X130299881Y-126142713D01*
X131142713Y-125299881D01*
X132133778Y-124637673D01*
X133234990Y-124181536D01*
X134404027Y-123949000D01*
X135595973Y-123949000D01*
X136765010Y-124181536D01*
G37*
G36*
X41765010Y-124181536D02*
G01*
X42866222Y-124637673D01*
X43857287Y-125299881D01*
X44700119Y-126142713D01*
X45362327Y-127133778D01*
X45818464Y-128234990D01*
X46051000Y-129404027D01*
X46051000Y-130595973D01*
X45818464Y-131765010D01*
X45362327Y-132866222D01*
X44700119Y-133857287D01*
X43857287Y-134700119D01*
X42866222Y-135362327D01*
X41765010Y-135818464D01*
X40595973Y-136051000D01*
X39404027Y-136051000D01*
X38234990Y-135818464D01*
X37133778Y-135362327D01*
X36142713Y-134700119D01*
X35299881Y-133857287D01*
X34637673Y-132866222D01*
X34181536Y-131765010D01*
X33949000Y-130595973D01*
X33949000Y-129404027D01*
X34181536Y-128234990D01*
X34637673Y-127133778D01*
X35299881Y-126142713D01*
X36142713Y-125299881D01*
X37133778Y-124637673D01*
X38234990Y-124181536D01*
X39404027Y-123949000D01*
X40595973Y-123949000D01*
X41765010Y-124181536D01*
G37*
G36*
X97100562Y-119078181D02*
G01*
X97135481Y-119088774D01*
X97167663Y-119105976D01*
X97195873Y-119129127D01*
X97219024Y-119157337D01*
X97236226Y-119189519D01*
X97246819Y-119224438D01*
X97251000Y-119266895D01*
X97251000Y-120733105D01*
X97246819Y-120775562D01*
X97236226Y-120810481D01*
X97219024Y-120842663D01*
X97195873Y-120870873D01*
X97167663Y-120894024D01*
X97135481Y-120911226D01*
X97100562Y-120921819D01*
X97058105Y-120926000D01*
X95916895Y-120926000D01*
X95874438Y-120921819D01*
X95839519Y-120911226D01*
X95807337Y-120894024D01*
X95779127Y-120870873D01*
X95755976Y-120842663D01*
X95738774Y-120810481D01*
X95728181Y-120775562D01*
X95724000Y-120733105D01*
X95724000Y-119266895D01*
X95728181Y-119224438D01*
X95738774Y-119189519D01*
X95755976Y-119157337D01*
X95779127Y-119129127D01*
X95807337Y-119105976D01*
X95839519Y-119088774D01*
X95874438Y-119078181D01*
X95916895Y-119074000D01*
X97058105Y-119074000D01*
X97100562Y-119078181D01*
G37*
G36*
X94125562Y-119078181D02*
G01*
X94160481Y-119088774D01*
X94192663Y-119105976D01*
X94220873Y-119129127D01*
X94244024Y-119157337D01*
X94261226Y-119189519D01*
X94271819Y-119224438D01*
X94276000Y-119266895D01*
X94276000Y-120733105D01*
X94271819Y-120775562D01*
X94261226Y-120810481D01*
X94244024Y-120842663D01*
X94220873Y-120870873D01*
X94192663Y-120894024D01*
X94160481Y-120911226D01*
X94125562Y-120921819D01*
X94083105Y-120926000D01*
X92941895Y-120926000D01*
X92899438Y-120921819D01*
X92864519Y-120911226D01*
X92832337Y-120894024D01*
X92804127Y-120870873D01*
X92780976Y-120842663D01*
X92763774Y-120810481D01*
X92753181Y-120775562D01*
X92749000Y-120733105D01*
X92749000Y-119266895D01*
X92753181Y-119224438D01*
X92763774Y-119189519D01*
X92780976Y-119157337D01*
X92804127Y-119129127D01*
X92832337Y-119105976D01*
X92864519Y-119088774D01*
X92899438Y-119078181D01*
X92941895Y-119074000D01*
X94083105Y-119074000D01*
X94125562Y-119078181D01*
G37*
G36*
X190876000Y-120851000D02*
G01*
X189174000Y-120851000D01*
X189174000Y-119149000D01*
X190876000Y-119149000D01*
X190876000Y-120851000D01*
G37*
G36*
X149801000Y-115681000D02*
G01*
X149049000Y-115681000D01*
X149049000Y-114519000D01*
X149801000Y-114519000D01*
X149801000Y-115681000D01*
G37*
G36*
X150951000Y-115681000D02*
G01*
X150199000Y-115681000D01*
X150199000Y-114519000D01*
X150951000Y-114519000D01*
X150951000Y-115681000D01*
G37*
G36*
X56289499Y-114478445D02*
G01*
X56326995Y-114489820D01*
X56361554Y-114508292D01*
X56391847Y-114533153D01*
X56416708Y-114563446D01*
X56435180Y-114598005D01*
X56446555Y-114635501D01*
X56451000Y-114680638D01*
X56451000Y-115319362D01*
X56446555Y-115364499D01*
X56435180Y-115401995D01*
X56416708Y-115436554D01*
X56391847Y-115466847D01*
X56361554Y-115491708D01*
X56326995Y-115510180D01*
X56289499Y-115521555D01*
X56244362Y-115526000D01*
X55505638Y-115526000D01*
X55460501Y-115521555D01*
X55423005Y-115510180D01*
X55388446Y-115491708D01*
X55358153Y-115466847D01*
X55333292Y-115436554D01*
X55314820Y-115401995D01*
X55303445Y-115364499D01*
X55299000Y-115319362D01*
X55299000Y-114680638D01*
X55303445Y-114635501D01*
X55314820Y-114598005D01*
X55333292Y-114563446D01*
X55358153Y-114533153D01*
X55388446Y-114508292D01*
X55423005Y-114489820D01*
X55460501Y-114478445D01*
X55505638Y-114474000D01*
X56244362Y-114474000D01*
X56289499Y-114478445D01*
G37*
G36*
X54539499Y-114478445D02*
G01*
X54576995Y-114489820D01*
X54611554Y-114508292D01*
X54641847Y-114533153D01*
X54666708Y-114563446D01*
X54685180Y-114598005D01*
X54696555Y-114635501D01*
X54701000Y-114680638D01*
X54701000Y-115319362D01*
X54696555Y-115364499D01*
X54685180Y-115401995D01*
X54666708Y-115436554D01*
X54641847Y-115466847D01*
X54611554Y-115491708D01*
X54576995Y-115510180D01*
X54539499Y-115521555D01*
X54494362Y-115526000D01*
X53755638Y-115526000D01*
X53710501Y-115521555D01*
X53673005Y-115510180D01*
X53638446Y-115491708D01*
X53608153Y-115466847D01*
X53583292Y-115436554D01*
X53564820Y-115401995D01*
X53553445Y-115364499D01*
X53549000Y-115319362D01*
X53549000Y-114680638D01*
X53553445Y-114635501D01*
X53564820Y-114598005D01*
X53583292Y-114563446D01*
X53608153Y-114533153D01*
X53638446Y-114508292D01*
X53673005Y-114489820D01*
X53710501Y-114478445D01*
X53755638Y-114474000D01*
X54494362Y-114474000D01*
X54539499Y-114478445D01*
G37*
G36*
X206765010Y-99181536D02*
G01*
X207866222Y-99637673D01*
X208857287Y-100299881D01*
X209700119Y-101142713D01*
X210362327Y-102133778D01*
X210818464Y-103234990D01*
X211051000Y-104404027D01*
X211051000Y-105595973D01*
X210818464Y-106765010D01*
X210362327Y-107866222D01*
X209700119Y-108857287D01*
X208857287Y-109700119D01*
X207866222Y-110362327D01*
X206765010Y-110818464D01*
X205595973Y-111051000D01*
X204404027Y-111051000D01*
X203234990Y-110818464D01*
X202133778Y-110362327D01*
X201142713Y-109700119D01*
X200299881Y-108857287D01*
X199637673Y-107866222D01*
X199181536Y-106765010D01*
X198949000Y-105595973D01*
X198949000Y-104404027D01*
X199181536Y-103234990D01*
X199637673Y-102133778D01*
X200299881Y-101142713D01*
X201142713Y-100299881D01*
X202133778Y-99637673D01*
X203234990Y-99181536D01*
X204404027Y-98949000D01*
X205595973Y-98949000D01*
X206765010Y-99181536D01*
G37*
G36*
X111765010Y-99181536D02*
G01*
X112866222Y-99637673D01*
X113857287Y-100299881D01*
X114700119Y-101142713D01*
X115362327Y-102133778D01*
X115818464Y-103234990D01*
X116051000Y-104404027D01*
X116051000Y-105595973D01*
X115818464Y-106765010D01*
X115362327Y-107866222D01*
X114700119Y-108857287D01*
X113857287Y-109700119D01*
X112866222Y-110362327D01*
X111765010Y-110818464D01*
X110595973Y-111051000D01*
X109404027Y-111051000D01*
X108234990Y-110818464D01*
X107133778Y-110362327D01*
X106142713Y-109700119D01*
X105299881Y-108857287D01*
X104637673Y-107866222D01*
X104181536Y-106765010D01*
X103949000Y-105595973D01*
X103949000Y-104404027D01*
X104181536Y-103234990D01*
X104637673Y-102133778D01*
X105299881Y-101142713D01*
X106142713Y-100299881D01*
X107133778Y-99637673D01*
X108234990Y-99181536D01*
X109404027Y-98949000D01*
X110595973Y-98949000D01*
X111765010Y-99181536D01*
G37*
G36*
X41765010Y-94181536D02*
G01*
X42866222Y-94637673D01*
X43857287Y-95299881D01*
X44700119Y-96142713D01*
X45362327Y-97133778D01*
X45818464Y-98234990D01*
X46051000Y-99404027D01*
X46051000Y-100595973D01*
X45818464Y-101765010D01*
X45362327Y-102866222D01*
X44700119Y-103857287D01*
X43857287Y-104700119D01*
X42866222Y-105362327D01*
X41765010Y-105818464D01*
X40595973Y-106051000D01*
X39404027Y-106051000D01*
X38234990Y-105818464D01*
X37133778Y-105362327D01*
X36142713Y-104700119D01*
X35299881Y-103857287D01*
X34637673Y-102866222D01*
X34181536Y-101765010D01*
X33949000Y-100595973D01*
X33949000Y-99404027D01*
X34181536Y-98234990D01*
X34637673Y-97133778D01*
X35299881Y-96142713D01*
X36142713Y-95299881D01*
X37133778Y-94637673D01*
X38234990Y-94181536D01*
X39404027Y-93949000D01*
X40595973Y-93949000D01*
X41765010Y-94181536D01*
G37*
G36*
X136765010Y-94181536D02*
G01*
X137866222Y-94637673D01*
X138857287Y-95299881D01*
X139700119Y-96142713D01*
X140362327Y-97133778D01*
X140818464Y-98234990D01*
X141051000Y-99404027D01*
X141051000Y-100595973D01*
X140818464Y-101765010D01*
X140362327Y-102866222D01*
X139700119Y-103857287D01*
X138857287Y-104700119D01*
X137866222Y-105362327D01*
X136765010Y-105818464D01*
X135595973Y-106051000D01*
X134404027Y-106051000D01*
X133234990Y-105818464D01*
X132133778Y-105362327D01*
X131142713Y-104700119D01*
X130299881Y-103857287D01*
X129637673Y-102866222D01*
X129181536Y-101765010D01*
X128949000Y-100595973D01*
X128949000Y-99404027D01*
X129181536Y-98234990D01*
X129637673Y-97133778D01*
X130299881Y-96142713D01*
X131142713Y-95299881D01*
X132133778Y-94637673D01*
X133234990Y-94181536D01*
X134404027Y-93949000D01*
X135595973Y-93949000D01*
X136765010Y-94181536D01*
G37*
G36*
X71765010Y-94181536D02*
G01*
X72866222Y-94637673D01*
X73857287Y-95299881D01*
X74700119Y-96142713D01*
X75362327Y-97133778D01*
X75818464Y-98234990D01*
X76051000Y-99404027D01*
X76051000Y-100595973D01*
X75818464Y-101765010D01*
X75362327Y-102866222D01*
X74700119Y-103857287D01*
X73857287Y-104700119D01*
X72866222Y-105362327D01*
X71765010Y-105818464D01*
X70595973Y-106051000D01*
X69404027Y-106051000D01*
X68234990Y-105818464D01*
X67133778Y-105362327D01*
X66142713Y-104700119D01*
X65299881Y-103857287D01*
X64637673Y-102866222D01*
X64181536Y-101765010D01*
X63949000Y-100595973D01*
X63949000Y-99404027D01*
X64181536Y-98234990D01*
X64637673Y-97133778D01*
X65299881Y-96142713D01*
X66142713Y-95299881D01*
X67133778Y-94637673D01*
X68234990Y-94181536D01*
X69404027Y-93949000D01*
X70595973Y-93949000D01*
X71765010Y-94181536D01*
G37*
G36*
X166765010Y-94181536D02*
G01*
X167866222Y-94637673D01*
X168857287Y-95299881D01*
X169700119Y-96142713D01*
X170362327Y-97133778D01*
X170818464Y-98234990D01*
X171051000Y-99404027D01*
X171051000Y-100595973D01*
X170818464Y-101765010D01*
X170362327Y-102866222D01*
X169700119Y-103857287D01*
X168857287Y-104700119D01*
X167866222Y-105362327D01*
X166765010Y-105818464D01*
X165595973Y-106051000D01*
X164404027Y-106051000D01*
X163234990Y-105818464D01*
X162133778Y-105362327D01*
X161142713Y-104700119D01*
X160299881Y-103857287D01*
X159637673Y-102866222D01*
X159181536Y-101765010D01*
X158949000Y-100595973D01*
X158949000Y-99404027D01*
X159181536Y-98234990D01*
X159637673Y-97133778D01*
X160299881Y-96142713D01*
X161142713Y-95299881D01*
X162133778Y-94637673D01*
X163234990Y-94181536D01*
X164404027Y-93949000D01*
X165595973Y-93949000D01*
X166765010Y-94181536D01*
G37*
G36*
X93301000Y-92591000D02*
G01*
X91699000Y-92591000D01*
X91699000Y-87409000D01*
X93301000Y-87409000D01*
X93301000Y-92591000D01*
G37*
G36*
X97551000Y-92591000D02*
G01*
X95949000Y-92591000D01*
X95949000Y-87409000D01*
X97551000Y-87409000D01*
X97551000Y-92591000D01*
G37*
G36*
X89051000Y-92591000D02*
G01*
X87449000Y-92591000D01*
X87449000Y-87409000D01*
X89051000Y-87409000D01*
X89051000Y-92591000D01*
G37*
G36*
X192551000Y-92591000D02*
G01*
X190949000Y-92591000D01*
X190949000Y-87409000D01*
X192551000Y-87409000D01*
X192551000Y-92591000D01*
G37*
G36*
X184051000Y-92591000D02*
G01*
X182449000Y-92591000D01*
X182449000Y-87409000D01*
X184051000Y-87409000D01*
X184051000Y-92591000D01*
G37*
G36*
X188301000Y-92591000D02*
G01*
X186699000Y-92591000D01*
X186699000Y-87409000D01*
X188301000Y-87409000D01*
X188301000Y-92591000D01*
G37*
G36*
X157551000Y-87591000D02*
G01*
X155949000Y-87591000D01*
X155949000Y-82409000D01*
X157551000Y-82409000D01*
X157551000Y-87591000D01*
G37*
G36*
X153301000Y-87591000D02*
G01*
X151699000Y-87591000D01*
X151699000Y-82409000D01*
X153301000Y-82409000D01*
X153301000Y-87591000D01*
G37*
G36*
X149051000Y-87591000D02*
G01*
X147449000Y-87591000D01*
X147449000Y-82409000D01*
X149051000Y-82409000D01*
X149051000Y-87591000D01*
G37*
G36*
X58301000Y-87591000D02*
G01*
X56699000Y-87591000D01*
X56699000Y-82409000D01*
X58301000Y-82409000D01*
X58301000Y-87591000D01*
G37*
G36*
X54051000Y-87591000D02*
G01*
X52449000Y-87591000D01*
X52449000Y-82409000D01*
X54051000Y-82409000D01*
X54051000Y-87591000D01*
G37*
G36*
X62551000Y-87591000D02*
G01*
X60949000Y-87591000D01*
X60949000Y-82409000D01*
X62551000Y-82409000D01*
X62551000Y-87591000D01*
G37*
G36*
X111765010Y-69181536D02*
G01*
X112866222Y-69637673D01*
X113857287Y-70299881D01*
X114700119Y-71142713D01*
X115362327Y-72133778D01*
X115818464Y-73234990D01*
X116051000Y-74404027D01*
X116051000Y-75595973D01*
X115818464Y-76765010D01*
X115362327Y-77866222D01*
X114700119Y-78857287D01*
X113857287Y-79700119D01*
X112866222Y-80362327D01*
X111765010Y-80818464D01*
X110595973Y-81051000D01*
X109404027Y-81051000D01*
X108234990Y-80818464D01*
X107133778Y-80362327D01*
X106142713Y-79700119D01*
X105299881Y-78857287D01*
X104637673Y-77866222D01*
X104181536Y-76765010D01*
X103949000Y-75595973D01*
X103949000Y-74404027D01*
X104181536Y-73234990D01*
X104637673Y-72133778D01*
X105299881Y-71142713D01*
X106142713Y-70299881D01*
X107133778Y-69637673D01*
X108234990Y-69181536D01*
X109404027Y-68949000D01*
X110595973Y-68949000D01*
X111765010Y-69181536D01*
G37*
G36*
X81765010Y-69181536D02*
G01*
X82866222Y-69637673D01*
X83857287Y-70299881D01*
X84700119Y-71142713D01*
X85362327Y-72133778D01*
X85818464Y-73234990D01*
X86051000Y-74404027D01*
X86051000Y-75595973D01*
X85818464Y-76765010D01*
X85362327Y-77866222D01*
X84700119Y-78857287D01*
X83857287Y-79700119D01*
X82866222Y-80362327D01*
X81765010Y-80818464D01*
X80595973Y-81051000D01*
X79404027Y-81051000D01*
X78234990Y-80818464D01*
X77133778Y-80362327D01*
X76142713Y-79700119D01*
X75299881Y-78857287D01*
X74637673Y-77866222D01*
X74181536Y-76765010D01*
X73949000Y-75595973D01*
X73949000Y-74404027D01*
X74181536Y-73234990D01*
X74637673Y-72133778D01*
X75299881Y-71142713D01*
X76142713Y-70299881D01*
X77133778Y-69637673D01*
X78234990Y-69181536D01*
X79404027Y-68949000D01*
X80595973Y-68949000D01*
X81765010Y-69181536D01*
G37*
G36*
X176765010Y-69181536D02*
G01*
X177866222Y-69637673D01*
X178857287Y-70299881D01*
X179700119Y-71142713D01*
X180362327Y-72133778D01*
X180818464Y-73234990D01*
X181051000Y-74404027D01*
X181051000Y-75595973D01*
X180818464Y-76765010D01*
X180362327Y-77866222D01*
X179700119Y-78857287D01*
X178857287Y-79700119D01*
X177866222Y-80362327D01*
X176765010Y-80818464D01*
X175595973Y-81051000D01*
X174404027Y-81051000D01*
X173234990Y-80818464D01*
X172133778Y-80362327D01*
X171142713Y-79700119D01*
X170299881Y-78857287D01*
X169637673Y-77866222D01*
X169181536Y-76765010D01*
X168949000Y-75595973D01*
X168949000Y-74404027D01*
X169181536Y-73234990D01*
X169637673Y-72133778D01*
X170299881Y-71142713D01*
X171142713Y-70299881D01*
X172133778Y-69637673D01*
X173234990Y-69181536D01*
X174404027Y-68949000D01*
X175595973Y-68949000D01*
X176765010Y-69181536D01*
G37*
G36*
X206765010Y-69181536D02*
G01*
X207866222Y-69637673D01*
X208857287Y-70299881D01*
X209700119Y-71142713D01*
X210362327Y-72133778D01*
X210818464Y-73234990D01*
X211051000Y-74404027D01*
X211051000Y-75595973D01*
X210818464Y-76765010D01*
X210362327Y-77866222D01*
X209700119Y-78857287D01*
X208857287Y-79700119D01*
X207866222Y-80362327D01*
X206765010Y-80818464D01*
X205595973Y-81051000D01*
X204404027Y-81051000D01*
X203234990Y-80818464D01*
X202133778Y-80362327D01*
X201142713Y-79700119D01*
X200299881Y-78857287D01*
X199637673Y-77866222D01*
X199181536Y-76765010D01*
X198949000Y-75595973D01*
X198949000Y-74404027D01*
X199181536Y-73234990D01*
X199637673Y-72133778D01*
X200299881Y-71142713D01*
X201142713Y-70299881D01*
X202133778Y-69637673D01*
X203234990Y-69181536D01*
X204404027Y-68949000D01*
X205595973Y-68949000D01*
X206765010Y-69181536D01*
G37*
G36*
X41765010Y-64181536D02*
G01*
X42866222Y-64637673D01*
X43857287Y-65299881D01*
X44700119Y-66142713D01*
X45362327Y-67133778D01*
X45818464Y-68234990D01*
X46051000Y-69404027D01*
X46051000Y-70595973D01*
X45818464Y-71765010D01*
X45362327Y-72866222D01*
X44700119Y-73857287D01*
X43857287Y-74700119D01*
X42866222Y-75362327D01*
X41765010Y-75818464D01*
X40595973Y-76051000D01*
X39404027Y-76051000D01*
X38234990Y-75818464D01*
X37133778Y-75362327D01*
X36142713Y-74700119D01*
X35299881Y-73857287D01*
X34637673Y-72866222D01*
X34181536Y-71765010D01*
X33949000Y-70595973D01*
X33949000Y-69404027D01*
X34181536Y-68234990D01*
X34637673Y-67133778D01*
X35299881Y-66142713D01*
X36142713Y-65299881D01*
X37133778Y-64637673D01*
X38234990Y-64181536D01*
X39404027Y-63949000D01*
X40595973Y-63949000D01*
X41765010Y-64181536D01*
G37*
G36*
X136765010Y-64181536D02*
G01*
X137866222Y-64637673D01*
X138857287Y-65299881D01*
X139700119Y-66142713D01*
X140362327Y-67133778D01*
X140818464Y-68234990D01*
X141051000Y-69404027D01*
X141051000Y-70595973D01*
X140818464Y-71765010D01*
X140362327Y-72866222D01*
X139700119Y-73857287D01*
X138857287Y-74700119D01*
X137866222Y-75362327D01*
X136765010Y-75818464D01*
X135595973Y-76051000D01*
X134404027Y-76051000D01*
X133234990Y-75818464D01*
X132133778Y-75362327D01*
X131142713Y-74700119D01*
X130299881Y-73857287D01*
X129637673Y-72866222D01*
X129181536Y-71765010D01*
X128949000Y-70595973D01*
X128949000Y-69404027D01*
X129181536Y-68234990D01*
X129637673Y-67133778D01*
X130299881Y-66142713D01*
X131142713Y-65299881D01*
X132133778Y-64637673D01*
X133234990Y-64181536D01*
X134404027Y-63949000D01*
X135595973Y-63949000D01*
X136765010Y-64181536D01*
G37*
G36*
X97076562Y-59078181D02*
G01*
X97111481Y-59088774D01*
X97143663Y-59105976D01*
X97171873Y-59129127D01*
X97195024Y-59157337D01*
X97212226Y-59189519D01*
X97222819Y-59224438D01*
X97227000Y-59266895D01*
X97227000Y-60733105D01*
X97222819Y-60775562D01*
X97212226Y-60810481D01*
X97195024Y-60842663D01*
X97171873Y-60870873D01*
X97143663Y-60894024D01*
X97111481Y-60911226D01*
X97076562Y-60921819D01*
X97034105Y-60926000D01*
X95892895Y-60926000D01*
X95850438Y-60921819D01*
X95815519Y-60911226D01*
X95783337Y-60894024D01*
X95755127Y-60870873D01*
X95731976Y-60842663D01*
X95714774Y-60810481D01*
X95704181Y-60775562D01*
X95700000Y-60733105D01*
X95700000Y-59266895D01*
X95704181Y-59224438D01*
X95714774Y-59189519D01*
X95731976Y-59157337D01*
X95755127Y-59129127D01*
X95783337Y-59105976D01*
X95815519Y-59088774D01*
X95850438Y-59078181D01*
X95892895Y-59074000D01*
X97034105Y-59074000D01*
X97076562Y-59078181D01*
G37*
G36*
X94101562Y-59078181D02*
G01*
X94136481Y-59088774D01*
X94168663Y-59105976D01*
X94196873Y-59129127D01*
X94220024Y-59157337D01*
X94237226Y-59189519D01*
X94247819Y-59224438D01*
X94252000Y-59266895D01*
X94252000Y-60733105D01*
X94247819Y-60775562D01*
X94237226Y-60810481D01*
X94220024Y-60842663D01*
X94196873Y-60870873D01*
X94168663Y-60894024D01*
X94136481Y-60911226D01*
X94101562Y-60921819D01*
X94059105Y-60926000D01*
X92917895Y-60926000D01*
X92875438Y-60921819D01*
X92840519Y-60911226D01*
X92808337Y-60894024D01*
X92780127Y-60870873D01*
X92756976Y-60842663D01*
X92739774Y-60810481D01*
X92729181Y-60775562D01*
X92725000Y-60733105D01*
X92725000Y-59266895D01*
X92729181Y-59224438D01*
X92739774Y-59189519D01*
X92756976Y-59157337D01*
X92780127Y-59129127D01*
X92808337Y-59105976D01*
X92840519Y-59088774D01*
X92875438Y-59078181D01*
X92917895Y-59074000D01*
X94059105Y-59074000D01*
X94101562Y-59078181D01*
G37*
G36*
X191026000Y-60851000D02*
G01*
X189324000Y-60851000D01*
X189324000Y-59149000D01*
X191026000Y-59149000D01*
X191026000Y-60851000D01*
G37*
G36*
X193364499Y-59303445D02*
G01*
X193401995Y-59314820D01*
X193436554Y-59333292D01*
X193466847Y-59358153D01*
X193491708Y-59388446D01*
X193510180Y-59423005D01*
X193521555Y-59460501D01*
X193526000Y-59505638D01*
X193526000Y-60244362D01*
X193521555Y-60289499D01*
X193510180Y-60326995D01*
X193491708Y-60361554D01*
X193466847Y-60391847D01*
X193436554Y-60416708D01*
X193401995Y-60435180D01*
X193364499Y-60446555D01*
X193319362Y-60451000D01*
X192680638Y-60451000D01*
X192635501Y-60446555D01*
X192598005Y-60435180D01*
X192563446Y-60416708D01*
X192533153Y-60391847D01*
X192508292Y-60361554D01*
X192489820Y-60326995D01*
X192478445Y-60289499D01*
X192474000Y-60244362D01*
X192474000Y-59505638D01*
X192478445Y-59460501D01*
X192489820Y-59423005D01*
X192508292Y-59388446D01*
X192533153Y-59358153D01*
X192563446Y-59333292D01*
X192598005Y-59314820D01*
X192635501Y-59303445D01*
X192680638Y-59299000D01*
X193319362Y-59299000D01*
X193364499Y-59303445D01*
G37*
G36*
X147364499Y-58303445D02*
G01*
X147401995Y-58314820D01*
X147436554Y-58333292D01*
X147466847Y-58358153D01*
X147491708Y-58388446D01*
X147510180Y-58423005D01*
X147521555Y-58460501D01*
X147526000Y-58505638D01*
X147526000Y-59244362D01*
X147521555Y-59289499D01*
X147510180Y-59326995D01*
X147491708Y-59361554D01*
X147466847Y-59391847D01*
X147436554Y-59416708D01*
X147401995Y-59435180D01*
X147364499Y-59446555D01*
X147319362Y-59451000D01*
X146680638Y-59451000D01*
X146635501Y-59446555D01*
X146598005Y-59435180D01*
X146563446Y-59416708D01*
X146533153Y-59391847D01*
X146508292Y-59361554D01*
X146489820Y-59326995D01*
X146478445Y-59289499D01*
X146474000Y-59244362D01*
X146474000Y-58505638D01*
X146478445Y-58460501D01*
X146489820Y-58423005D01*
X146508292Y-58388446D01*
X146533153Y-58358153D01*
X146563446Y-58333292D01*
X146598005Y-58314820D01*
X146635501Y-58303445D01*
X146680638Y-58299000D01*
X147319362Y-58299000D01*
X147364499Y-58303445D01*
G37*
G36*
X193364499Y-57553445D02*
G01*
X193401995Y-57564820D01*
X193436554Y-57583292D01*
X193466847Y-57608153D01*
X193491708Y-57638446D01*
X193510180Y-57673005D01*
X193521555Y-57710501D01*
X193526000Y-57755638D01*
X193526000Y-58494362D01*
X193521555Y-58539499D01*
X193510180Y-58576995D01*
X193491708Y-58611554D01*
X193466847Y-58641847D01*
X193436554Y-58666708D01*
X193401995Y-58685180D01*
X193364499Y-58696555D01*
X193319362Y-58701000D01*
X192680638Y-58701000D01*
X192635501Y-58696555D01*
X192598005Y-58685180D01*
X192563446Y-58666708D01*
X192533153Y-58641847D01*
X192508292Y-58611554D01*
X192489820Y-58576995D01*
X192478445Y-58539499D01*
X192474000Y-58494362D01*
X192474000Y-57755638D01*
X192478445Y-57710501D01*
X192489820Y-57673005D01*
X192508292Y-57638446D01*
X192533153Y-57608153D01*
X192563446Y-57583292D01*
X192598005Y-57564820D01*
X192635501Y-57553445D01*
X192680638Y-57549000D01*
X193319362Y-57549000D01*
X193364499Y-57553445D01*
G37*
G36*
X52434499Y-57058445D02*
G01*
X52471995Y-57069820D01*
X52506554Y-57088292D01*
X52536847Y-57113153D01*
X52561708Y-57143446D01*
X52580180Y-57178005D01*
X52591555Y-57215501D01*
X52596000Y-57260638D01*
X52596000Y-57999362D01*
X52591555Y-58044499D01*
X52580180Y-58081995D01*
X52561708Y-58116554D01*
X52536847Y-58146847D01*
X52506554Y-58171708D01*
X52471995Y-58190180D01*
X52434499Y-58201555D01*
X52389362Y-58206000D01*
X51750638Y-58206000D01*
X51705501Y-58201555D01*
X51668005Y-58190180D01*
X51633446Y-58171708D01*
X51603153Y-58146847D01*
X51578292Y-58116554D01*
X51559820Y-58081995D01*
X51548445Y-58044499D01*
X51544000Y-57999362D01*
X51544000Y-57260638D01*
X51548445Y-57215501D01*
X51559820Y-57178005D01*
X51578292Y-57143446D01*
X51603153Y-57113153D01*
X51633446Y-57088292D01*
X51668005Y-57069820D01*
X51705501Y-57058445D01*
X51750638Y-57054000D01*
X52389362Y-57054000D01*
X52434499Y-57058445D01*
G37*
G36*
X147364499Y-56553445D02*
G01*
X147401995Y-56564820D01*
X147436554Y-56583292D01*
X147466847Y-56608153D01*
X147491708Y-56638446D01*
X147510180Y-56673005D01*
X147521555Y-56710501D01*
X147526000Y-56755638D01*
X147526000Y-57494362D01*
X147521555Y-57539499D01*
X147510180Y-57576995D01*
X147491708Y-57611554D01*
X147466847Y-57641847D01*
X147436554Y-57666708D01*
X147401995Y-57685180D01*
X147364499Y-57696555D01*
X147319362Y-57701000D01*
X146680638Y-57701000D01*
X146635501Y-57696555D01*
X146598005Y-57685180D01*
X146563446Y-57666708D01*
X146533153Y-57641847D01*
X146508292Y-57611554D01*
X146489820Y-57576995D01*
X146478445Y-57539499D01*
X146474000Y-57494362D01*
X146474000Y-56755638D01*
X146478445Y-56710501D01*
X146489820Y-56673005D01*
X146508292Y-56638446D01*
X146533153Y-56608153D01*
X146563446Y-56583292D01*
X146598005Y-56564820D01*
X146635501Y-56553445D01*
X146680638Y-56549000D01*
X147319362Y-56549000D01*
X147364499Y-56553445D01*
G37*
G36*
X96864499Y-55803445D02*
G01*
X96901995Y-55814820D01*
X96936554Y-55833292D01*
X96966847Y-55858153D01*
X96991708Y-55888446D01*
X97010180Y-55923005D01*
X97021555Y-55960501D01*
X97026000Y-56005638D01*
X97026000Y-56744362D01*
X97021555Y-56789499D01*
X97010180Y-56826995D01*
X96991708Y-56861554D01*
X96966847Y-56891847D01*
X96936554Y-56916708D01*
X96901995Y-56935180D01*
X96864499Y-56946555D01*
X96819362Y-56951000D01*
X96180638Y-56951000D01*
X96135501Y-56946555D01*
X96098005Y-56935180D01*
X96063446Y-56916708D01*
X96033153Y-56891847D01*
X96008292Y-56861554D01*
X95989820Y-56826995D01*
X95978445Y-56789499D01*
X95974000Y-56744362D01*
X95974000Y-56005638D01*
X95978445Y-55960501D01*
X95989820Y-55923005D01*
X96008292Y-55888446D01*
X96033153Y-55858153D01*
X96063446Y-55833292D01*
X96098005Y-55814820D01*
X96135501Y-55803445D01*
X96180638Y-55799000D01*
X96819362Y-55799000D01*
X96864499Y-55803445D01*
G37*
G36*
X52434499Y-55308445D02*
G01*
X52471995Y-55319820D01*
X52506554Y-55338292D01*
X52536847Y-55363153D01*
X52561708Y-55393446D01*
X52580180Y-55428005D01*
X52591555Y-55465501D01*
X52596000Y-55510638D01*
X52596000Y-56249362D01*
X52591555Y-56294499D01*
X52580180Y-56331995D01*
X52561708Y-56366554D01*
X52536847Y-56396847D01*
X52506554Y-56421708D01*
X52471995Y-56440180D01*
X52434499Y-56451555D01*
X52389362Y-56456000D01*
X51750638Y-56456000D01*
X51705501Y-56451555D01*
X51668005Y-56440180D01*
X51633446Y-56421708D01*
X51603153Y-56396847D01*
X51578292Y-56366554D01*
X51559820Y-56331995D01*
X51548445Y-56294499D01*
X51544000Y-56249362D01*
X51544000Y-55510638D01*
X51548445Y-55465501D01*
X51559820Y-55428005D01*
X51578292Y-55393446D01*
X51603153Y-55363153D01*
X51633446Y-55338292D01*
X51668005Y-55319820D01*
X51705501Y-55308445D01*
X51750638Y-55304000D01*
X52389362Y-55304000D01*
X52434499Y-55308445D01*
G37*
G36*
X149726000Y-55581000D02*
G01*
X148974000Y-55581000D01*
X148974000Y-54419000D01*
X149726000Y-54419000D01*
X149726000Y-55581000D01*
G37*
G36*
X150876000Y-55581000D02*
G01*
X150124000Y-55581000D01*
X150124000Y-54419000D01*
X150876000Y-54419000D01*
X150876000Y-55581000D01*
G37*
G36*
X56289499Y-54478445D02*
G01*
X56326995Y-54489820D01*
X56361554Y-54508292D01*
X56391847Y-54533153D01*
X56416708Y-54563446D01*
X56435180Y-54598005D01*
X56446555Y-54635501D01*
X56451000Y-54680638D01*
X56451000Y-55319362D01*
X56446555Y-55364499D01*
X56435180Y-55401995D01*
X56416708Y-55436554D01*
X56391847Y-55466847D01*
X56361554Y-55491708D01*
X56326995Y-55510180D01*
X56289499Y-55521555D01*
X56244362Y-55526000D01*
X55505638Y-55526000D01*
X55460501Y-55521555D01*
X55423005Y-55510180D01*
X55388446Y-55491708D01*
X55358153Y-55466847D01*
X55333292Y-55436554D01*
X55314820Y-55401995D01*
X55303445Y-55364499D01*
X55299000Y-55319362D01*
X55299000Y-54680638D01*
X55303445Y-54635501D01*
X55314820Y-54598005D01*
X55333292Y-54563446D01*
X55358153Y-54533153D01*
X55388446Y-54508292D01*
X55423005Y-54489820D01*
X55460501Y-54478445D01*
X55505638Y-54474000D01*
X56244362Y-54474000D01*
X56289499Y-54478445D01*
G37*
G36*
X54539499Y-54478445D02*
G01*
X54576995Y-54489820D01*
X54611554Y-54508292D01*
X54641847Y-54533153D01*
X54666708Y-54563446D01*
X54685180Y-54598005D01*
X54696555Y-54635501D01*
X54701000Y-54680638D01*
X54701000Y-55319362D01*
X54696555Y-55364499D01*
X54685180Y-55401995D01*
X54666708Y-55436554D01*
X54641847Y-55466847D01*
X54611554Y-55491708D01*
X54576995Y-55510180D01*
X54539499Y-55521555D01*
X54494362Y-55526000D01*
X53755638Y-55526000D01*
X53710501Y-55521555D01*
X53673005Y-55510180D01*
X53638446Y-55491708D01*
X53608153Y-55466847D01*
X53583292Y-55436554D01*
X53564820Y-55401995D01*
X53553445Y-55364499D01*
X53549000Y-55319362D01*
X53549000Y-54680638D01*
X53553445Y-54635501D01*
X53564820Y-54598005D01*
X53583292Y-54563446D01*
X53608153Y-54533153D01*
X53638446Y-54508292D01*
X53673005Y-54489820D01*
X53710501Y-54478445D01*
X53755638Y-54474000D01*
X54494362Y-54474000D01*
X54539499Y-54478445D01*
G37*
G36*
X96864499Y-54053445D02*
G01*
X96901995Y-54064820D01*
X96936554Y-54083292D01*
X96966847Y-54108153D01*
X96991708Y-54138446D01*
X97010180Y-54173005D01*
X97021555Y-54210501D01*
X97026000Y-54255638D01*
X97026000Y-54994362D01*
X97021555Y-55039499D01*
X97010180Y-55076995D01*
X96991708Y-55111554D01*
X96966847Y-55141847D01*
X96936554Y-55166708D01*
X96901995Y-55185180D01*
X96864499Y-55196555D01*
X96819362Y-55201000D01*
X96180638Y-55201000D01*
X96135501Y-55196555D01*
X96098005Y-55185180D01*
X96063446Y-55166708D01*
X96033153Y-55141847D01*
X96008292Y-55111554D01*
X95989820Y-55076995D01*
X95978445Y-55039499D01*
X95974000Y-54994362D01*
X95974000Y-54255638D01*
X95978445Y-54210501D01*
X95989820Y-54173005D01*
X96008292Y-54138446D01*
X96033153Y-54108153D01*
X96063446Y-54083292D01*
X96098005Y-54064820D01*
X96135501Y-54053445D01*
X96180638Y-54049000D01*
X96819362Y-54049000D01*
X96864499Y-54053445D01*
G37*
G36*
X111765010Y-39181536D02*
G01*
X112866222Y-39637673D01*
X113857287Y-40299881D01*
X114700119Y-41142713D01*
X115362327Y-42133778D01*
X115818464Y-43234990D01*
X116051000Y-44404027D01*
X116051000Y-45595973D01*
X115818464Y-46765010D01*
X115362327Y-47866222D01*
X114700119Y-48857287D01*
X113857287Y-49700119D01*
X112866222Y-50362327D01*
X111765010Y-50818464D01*
X110595973Y-51051000D01*
X109404027Y-51051000D01*
X108234990Y-50818464D01*
X107133778Y-50362327D01*
X106142713Y-49700119D01*
X105299881Y-48857287D01*
X104637673Y-47866222D01*
X104181536Y-46765010D01*
X103949000Y-45595973D01*
X103949000Y-44404027D01*
X104181536Y-43234990D01*
X104637673Y-42133778D01*
X105299881Y-41142713D01*
X106142713Y-40299881D01*
X107133778Y-39637673D01*
X108234990Y-39181536D01*
X109404027Y-38949000D01*
X110595973Y-38949000D01*
X111765010Y-39181536D01*
G37*
G36*
X206765010Y-39181536D02*
G01*
X207866222Y-39637673D01*
X208857287Y-40299881D01*
X209700119Y-41142713D01*
X210362327Y-42133778D01*
X210818464Y-43234990D01*
X211051000Y-44404027D01*
X211051000Y-45595973D01*
X210818464Y-46765010D01*
X210362327Y-47866222D01*
X209700119Y-48857287D01*
X208857287Y-49700119D01*
X207866222Y-50362327D01*
X206765010Y-50818464D01*
X205595973Y-51051000D01*
X204404027Y-51051000D01*
X203234990Y-50818464D01*
X202133778Y-50362327D01*
X201142713Y-49700119D01*
X200299881Y-48857287D01*
X199637673Y-47866222D01*
X199181536Y-46765010D01*
X198949000Y-45595973D01*
X198949000Y-44404027D01*
X199181536Y-43234990D01*
X199637673Y-42133778D01*
X200299881Y-41142713D01*
X201142713Y-40299881D01*
X202133778Y-39637673D01*
X203234990Y-39181536D01*
X204404027Y-38949000D01*
X205595973Y-38949000D01*
X206765010Y-39181536D01*
G37*
G36*
X71765010Y-34181536D02*
G01*
X72866222Y-34637673D01*
X73857287Y-35299881D01*
X74700119Y-36142713D01*
X75362327Y-37133778D01*
X75818464Y-38234990D01*
X76051000Y-39404027D01*
X76051000Y-40595973D01*
X75818464Y-41765010D01*
X75362327Y-42866222D01*
X74700119Y-43857287D01*
X73857287Y-44700119D01*
X72866222Y-45362327D01*
X71765010Y-45818464D01*
X70595973Y-46051000D01*
X69404027Y-46051000D01*
X68234990Y-45818464D01*
X67133778Y-45362327D01*
X66142713Y-44700119D01*
X65299881Y-43857287D01*
X64637673Y-42866222D01*
X64181536Y-41765010D01*
X63949000Y-40595973D01*
X63949000Y-39404027D01*
X64181536Y-38234990D01*
X64637673Y-37133778D01*
X65299881Y-36142713D01*
X66142713Y-35299881D01*
X67133778Y-34637673D01*
X68234990Y-34181536D01*
X69404027Y-33949000D01*
X70595973Y-33949000D01*
X71765010Y-34181536D01*
G37*
G36*
X166765010Y-34181536D02*
G01*
X167866222Y-34637673D01*
X168857287Y-35299881D01*
X169700119Y-36142713D01*
X170362327Y-37133778D01*
X170818464Y-38234990D01*
X171051000Y-39404027D01*
X171051000Y-40595973D01*
X170818464Y-41765010D01*
X170362327Y-42866222D01*
X169700119Y-43857287D01*
X168857287Y-44700119D01*
X167866222Y-45362327D01*
X166765010Y-45818464D01*
X165595973Y-46051000D01*
X164404027Y-46051000D01*
X163234990Y-45818464D01*
X162133778Y-45362327D01*
X161142713Y-44700119D01*
X160299881Y-43857287D01*
X159637673Y-42866222D01*
X159181536Y-41765010D01*
X158949000Y-40595973D01*
X158949000Y-39404027D01*
X159181536Y-38234990D01*
X159637673Y-37133778D01*
X160299881Y-36142713D01*
X161142713Y-35299881D01*
X162133778Y-34637673D01*
X163234990Y-34181536D01*
X164404027Y-33949000D01*
X165595973Y-33949000D01*
X166765010Y-34181536D01*
G37*
G36*
X136765010Y-34181536D02*
G01*
X137866222Y-34637673D01*
X138857287Y-35299881D01*
X139700119Y-36142713D01*
X140362327Y-37133778D01*
X140818464Y-38234990D01*
X141051000Y-39404027D01*
X141051000Y-40595973D01*
X140818464Y-41765010D01*
X140362327Y-42866222D01*
X139700119Y-43857287D01*
X138857287Y-44700119D01*
X137866222Y-45362327D01*
X136765010Y-45818464D01*
X135595973Y-46051000D01*
X134404027Y-46051000D01*
X133234990Y-45818464D01*
X132133778Y-45362327D01*
X131142713Y-44700119D01*
X130299881Y-43857287D01*
X129637673Y-42866222D01*
X129181536Y-41765010D01*
X128949000Y-40595973D01*
X128949000Y-39404027D01*
X129181536Y-38234990D01*
X129637673Y-37133778D01*
X130299881Y-36142713D01*
X131142713Y-35299881D01*
X132133778Y-34637673D01*
X133234990Y-34181536D01*
X134404027Y-33949000D01*
X135595973Y-33949000D01*
X136765010Y-34181536D01*
G37*
G36*
X41765010Y-34181536D02*
G01*
X42866222Y-34637673D01*
X43857287Y-35299881D01*
X44700119Y-36142713D01*
X45362327Y-37133778D01*
X45818464Y-38234990D01*
X46051000Y-39404027D01*
X46051000Y-40595973D01*
X45818464Y-41765010D01*
X45362327Y-42866222D01*
X44700119Y-43857287D01*
X43857287Y-44700119D01*
X42866222Y-45362327D01*
X41765010Y-45818464D01*
X40595973Y-46051000D01*
X39404027Y-46051000D01*
X38234990Y-45818464D01*
X37133778Y-45362327D01*
X36142713Y-44700119D01*
X35299881Y-43857287D01*
X34637673Y-42866222D01*
X34181536Y-41765010D01*
X33949000Y-40595973D01*
X33949000Y-39404027D01*
X34181536Y-38234990D01*
X34637673Y-37133778D01*
X35299881Y-36142713D01*
X36142713Y-35299881D01*
X37133778Y-34637673D01*
X38234990Y-34181536D01*
X39404027Y-33949000D01*
X40595973Y-33949000D01*
X41765010Y-34181536D01*
G37*
G36*
X97551000Y-32591000D02*
G01*
X95949000Y-32591000D01*
X95949000Y-27409000D01*
X97551000Y-27409000D01*
X97551000Y-32591000D01*
G37*
G36*
X89051000Y-32591000D02*
G01*
X87449000Y-32591000D01*
X87449000Y-27409000D01*
X89051000Y-27409000D01*
X89051000Y-32591000D01*
G37*
G36*
X184051000Y-32591000D02*
G01*
X182449000Y-32591000D01*
X182449000Y-27409000D01*
X184051000Y-27409000D01*
X184051000Y-32591000D01*
G37*
G36*
X192551000Y-32591000D02*
G01*
X190949000Y-32591000D01*
X190949000Y-27409000D01*
X192551000Y-27409000D01*
X192551000Y-32591000D01*
G37*
G36*
X188301000Y-32591000D02*
G01*
X186699000Y-32591000D01*
X186699000Y-27409000D01*
X188301000Y-27409000D01*
X188301000Y-32591000D01*
G37*
G36*
X93301000Y-32591000D02*
G01*
X91699000Y-32591000D01*
X91699000Y-27409000D01*
X93301000Y-27409000D01*
X93301000Y-32591000D01*
G37*
M02*
