G04 #@! TF.GenerationSoftware,KiCad,Pcbnew,(5.1.5)-3*
G04 #@! TF.CreationDate,2020-03-10T14:16:06+00:00*
G04 #@! TF.ProjectId,led_board,6c65645f-626f-4617-9264-2e6b69636164,rev?*
G04 #@! TF.SameCoordinates,Original*
G04 #@! TF.FileFunction,Soldermask,Bot*
G04 #@! TF.FilePolarity,Negative*
%FSLAX46Y46*%
G04 Gerber Fmt 4.6, Leading zero omitted, Abs format (unit mm)*
G04 Created by KiCad (PCBNEW (5.1.5)-3) date 2020-03-10 14:16:06*
%MOMM*%
%LPD*%
G04 APERTURE LIST*
%ADD10C,0.100000*%
G04 APERTURE END LIST*
D10*
G36*
X62551000Y-147591000D02*
G01*
X60949000Y-147591000D01*
X60949000Y-142409000D01*
X62551000Y-142409000D01*
X62551000Y-147591000D01*
G37*
G36*
X54051000Y-147591000D02*
G01*
X52449000Y-147591000D01*
X52449000Y-142409000D01*
X54051000Y-142409000D01*
X54051000Y-147591000D01*
G37*
G36*
X157551000Y-147591000D02*
G01*
X155949000Y-147591000D01*
X155949000Y-142409000D01*
X157551000Y-142409000D01*
X157551000Y-147591000D01*
G37*
G36*
X149051000Y-147591000D02*
G01*
X147449000Y-147591000D01*
X147449000Y-142409000D01*
X149051000Y-142409000D01*
X149051000Y-147591000D01*
G37*
G36*
X111765010Y-129181536D02*
G01*
X112866222Y-129637673D01*
X113857287Y-130299881D01*
X114700119Y-131142713D01*
X115362327Y-132133778D01*
X115818464Y-133234990D01*
X116051000Y-134404027D01*
X116051000Y-135595973D01*
X115818464Y-136765010D01*
X115362327Y-137866222D01*
X114700119Y-138857287D01*
X113857287Y-139700119D01*
X112866222Y-140362327D01*
X111765010Y-140818464D01*
X110595973Y-141051000D01*
X109404027Y-141051000D01*
X108234990Y-140818464D01*
X107133778Y-140362327D01*
X106142713Y-139700119D01*
X105299881Y-138857287D01*
X104637673Y-137866222D01*
X104181536Y-136765010D01*
X103949000Y-135595973D01*
X103949000Y-134404027D01*
X104181536Y-133234990D01*
X104637673Y-132133778D01*
X105299881Y-131142713D01*
X106142713Y-130299881D01*
X107133778Y-129637673D01*
X108234990Y-129181536D01*
X109404027Y-128949000D01*
X110595973Y-128949000D01*
X111765010Y-129181536D01*
G37*
G36*
X176765010Y-129181536D02*
G01*
X177866222Y-129637673D01*
X178857287Y-130299881D01*
X179700119Y-131142713D01*
X180362327Y-132133778D01*
X180818464Y-133234990D01*
X181051000Y-134404027D01*
X181051000Y-135595973D01*
X180818464Y-136765010D01*
X180362327Y-137866222D01*
X179700119Y-138857287D01*
X178857287Y-139700119D01*
X177866222Y-140362327D01*
X176765010Y-140818464D01*
X175595973Y-141051000D01*
X174404027Y-141051000D01*
X173234990Y-140818464D01*
X172133778Y-140362327D01*
X171142713Y-139700119D01*
X170299881Y-138857287D01*
X169637673Y-137866222D01*
X169181536Y-136765010D01*
X168949000Y-135595973D01*
X168949000Y-134404027D01*
X169181536Y-133234990D01*
X169637673Y-132133778D01*
X170299881Y-131142713D01*
X171142713Y-130299881D01*
X172133778Y-129637673D01*
X173234990Y-129181536D01*
X174404027Y-128949000D01*
X175595973Y-128949000D01*
X176765010Y-129181536D01*
G37*
G36*
X81765010Y-129181536D02*
G01*
X82866222Y-129637673D01*
X83857287Y-130299881D01*
X84700119Y-131142713D01*
X85362327Y-132133778D01*
X85818464Y-133234990D01*
X86051000Y-134404027D01*
X86051000Y-135595973D01*
X85818464Y-136765010D01*
X85362327Y-137866222D01*
X84700119Y-138857287D01*
X83857287Y-139700119D01*
X82866222Y-140362327D01*
X81765010Y-140818464D01*
X80595973Y-141051000D01*
X79404027Y-141051000D01*
X78234990Y-140818464D01*
X77133778Y-140362327D01*
X76142713Y-139700119D01*
X75299881Y-138857287D01*
X74637673Y-137866222D01*
X74181536Y-136765010D01*
X73949000Y-135595973D01*
X73949000Y-134404027D01*
X74181536Y-133234990D01*
X74637673Y-132133778D01*
X75299881Y-131142713D01*
X76142713Y-130299881D01*
X77133778Y-129637673D01*
X78234990Y-129181536D01*
X79404027Y-128949000D01*
X80595973Y-128949000D01*
X81765010Y-129181536D01*
G37*
G36*
X206765010Y-129181536D02*
G01*
X207866222Y-129637673D01*
X208857287Y-130299881D01*
X209700119Y-131142713D01*
X210362327Y-132133778D01*
X210818464Y-133234990D01*
X211051000Y-134404027D01*
X211051000Y-135595973D01*
X210818464Y-136765010D01*
X210362327Y-137866222D01*
X209700119Y-138857287D01*
X208857287Y-139700119D01*
X207866222Y-140362327D01*
X206765010Y-140818464D01*
X205595973Y-141051000D01*
X204404027Y-141051000D01*
X203234990Y-140818464D01*
X202133778Y-140362327D01*
X201142713Y-139700119D01*
X200299881Y-138857287D01*
X199637673Y-137866222D01*
X199181536Y-136765010D01*
X198949000Y-135595973D01*
X198949000Y-134404027D01*
X199181536Y-133234990D01*
X199637673Y-132133778D01*
X200299881Y-131142713D01*
X201142713Y-130299881D01*
X202133778Y-129637673D01*
X203234990Y-129181536D01*
X204404027Y-128949000D01*
X205595973Y-128949000D01*
X206765010Y-129181536D01*
G37*
G36*
X136765010Y-124181536D02*
G01*
X137866222Y-124637673D01*
X138857287Y-125299881D01*
X139700119Y-126142713D01*
X140362327Y-127133778D01*
X140818464Y-128234990D01*
X141051000Y-129404027D01*
X141051000Y-130595973D01*
X140818464Y-131765010D01*
X140362327Y-132866222D01*
X139700119Y-133857287D01*
X138857287Y-134700119D01*
X137866222Y-135362327D01*
X136765010Y-135818464D01*
X135595973Y-136051000D01*
X134404027Y-136051000D01*
X133234990Y-135818464D01*
X132133778Y-135362327D01*
X131142713Y-134700119D01*
X130299881Y-133857287D01*
X129637673Y-132866222D01*
X129181536Y-131765010D01*
X128949000Y-130595973D01*
X128949000Y-129404027D01*
X129181536Y-128234990D01*
X129637673Y-127133778D01*
X130299881Y-126142713D01*
X131142713Y-125299881D01*
X132133778Y-124637673D01*
X133234990Y-124181536D01*
X134404027Y-123949000D01*
X135595973Y-123949000D01*
X136765010Y-124181536D01*
G37*
G36*
X41765010Y-124181536D02*
G01*
X42866222Y-124637673D01*
X43857287Y-125299881D01*
X44700119Y-126142713D01*
X45362327Y-127133778D01*
X45818464Y-128234990D01*
X46051000Y-129404027D01*
X46051000Y-130595973D01*
X45818464Y-131765010D01*
X45362327Y-132866222D01*
X44700119Y-133857287D01*
X43857287Y-134700119D01*
X42866222Y-135362327D01*
X41765010Y-135818464D01*
X40595973Y-136051000D01*
X39404027Y-136051000D01*
X38234990Y-135818464D01*
X37133778Y-135362327D01*
X36142713Y-134700119D01*
X35299881Y-133857287D01*
X34637673Y-132866222D01*
X34181536Y-131765010D01*
X33949000Y-130595973D01*
X33949000Y-129404027D01*
X34181536Y-128234990D01*
X34637673Y-127133778D01*
X35299881Y-126142713D01*
X36142713Y-125299881D01*
X37133778Y-124637673D01*
X38234990Y-124181536D01*
X39404027Y-123949000D01*
X40595973Y-123949000D01*
X41765010Y-124181536D01*
G37*
G36*
X206765010Y-99181536D02*
G01*
X207866222Y-99637673D01*
X208857287Y-100299881D01*
X209700119Y-101142713D01*
X210362327Y-102133778D01*
X210818464Y-103234990D01*
X211051000Y-104404027D01*
X211051000Y-105595973D01*
X210818464Y-106765010D01*
X210362327Y-107866222D01*
X209700119Y-108857287D01*
X208857287Y-109700119D01*
X207866222Y-110362327D01*
X206765010Y-110818464D01*
X205595973Y-111051000D01*
X204404027Y-111051000D01*
X203234990Y-110818464D01*
X202133778Y-110362327D01*
X201142713Y-109700119D01*
X200299881Y-108857287D01*
X199637673Y-107866222D01*
X199181536Y-106765010D01*
X198949000Y-105595973D01*
X198949000Y-104404027D01*
X199181536Y-103234990D01*
X199637673Y-102133778D01*
X200299881Y-101142713D01*
X201142713Y-100299881D01*
X202133778Y-99637673D01*
X203234990Y-99181536D01*
X204404027Y-98949000D01*
X205595973Y-98949000D01*
X206765010Y-99181536D01*
G37*
G36*
X111765010Y-99181536D02*
G01*
X112866222Y-99637673D01*
X113857287Y-100299881D01*
X114700119Y-101142713D01*
X115362327Y-102133778D01*
X115818464Y-103234990D01*
X116051000Y-104404027D01*
X116051000Y-105595973D01*
X115818464Y-106765010D01*
X115362327Y-107866222D01*
X114700119Y-108857287D01*
X113857287Y-109700119D01*
X112866222Y-110362327D01*
X111765010Y-110818464D01*
X110595973Y-111051000D01*
X109404027Y-111051000D01*
X108234990Y-110818464D01*
X107133778Y-110362327D01*
X106142713Y-109700119D01*
X105299881Y-108857287D01*
X104637673Y-107866222D01*
X104181536Y-106765010D01*
X103949000Y-105595973D01*
X103949000Y-104404027D01*
X104181536Y-103234990D01*
X104637673Y-102133778D01*
X105299881Y-101142713D01*
X106142713Y-100299881D01*
X107133778Y-99637673D01*
X108234990Y-99181536D01*
X109404027Y-98949000D01*
X110595973Y-98949000D01*
X111765010Y-99181536D01*
G37*
G36*
X136765010Y-94181536D02*
G01*
X137866222Y-94637673D01*
X138857287Y-95299881D01*
X139700119Y-96142713D01*
X140362327Y-97133778D01*
X140818464Y-98234990D01*
X141051000Y-99404027D01*
X141051000Y-100595973D01*
X140818464Y-101765010D01*
X140362327Y-102866222D01*
X139700119Y-103857287D01*
X138857287Y-104700119D01*
X137866222Y-105362327D01*
X136765010Y-105818464D01*
X135595973Y-106051000D01*
X134404027Y-106051000D01*
X133234990Y-105818464D01*
X132133778Y-105362327D01*
X131142713Y-104700119D01*
X130299881Y-103857287D01*
X129637673Y-102866222D01*
X129181536Y-101765010D01*
X128949000Y-100595973D01*
X128949000Y-99404027D01*
X129181536Y-98234990D01*
X129637673Y-97133778D01*
X130299881Y-96142713D01*
X131142713Y-95299881D01*
X132133778Y-94637673D01*
X133234990Y-94181536D01*
X134404027Y-93949000D01*
X135595973Y-93949000D01*
X136765010Y-94181536D01*
G37*
G36*
X71765010Y-94181536D02*
G01*
X72866222Y-94637673D01*
X73857287Y-95299881D01*
X74700119Y-96142713D01*
X75362327Y-97133778D01*
X75818464Y-98234990D01*
X76051000Y-99404027D01*
X76051000Y-100595973D01*
X75818464Y-101765010D01*
X75362327Y-102866222D01*
X74700119Y-103857287D01*
X73857287Y-104700119D01*
X72866222Y-105362327D01*
X71765010Y-105818464D01*
X70595973Y-106051000D01*
X69404027Y-106051000D01*
X68234990Y-105818464D01*
X67133778Y-105362327D01*
X66142713Y-104700119D01*
X65299881Y-103857287D01*
X64637673Y-102866222D01*
X64181536Y-101765010D01*
X63949000Y-100595973D01*
X63949000Y-99404027D01*
X64181536Y-98234990D01*
X64637673Y-97133778D01*
X65299881Y-96142713D01*
X66142713Y-95299881D01*
X67133778Y-94637673D01*
X68234990Y-94181536D01*
X69404027Y-93949000D01*
X70595973Y-93949000D01*
X71765010Y-94181536D01*
G37*
G36*
X41765010Y-94181536D02*
G01*
X42866222Y-94637673D01*
X43857287Y-95299881D01*
X44700119Y-96142713D01*
X45362327Y-97133778D01*
X45818464Y-98234990D01*
X46051000Y-99404027D01*
X46051000Y-100595973D01*
X45818464Y-101765010D01*
X45362327Y-102866222D01*
X44700119Y-103857287D01*
X43857287Y-104700119D01*
X42866222Y-105362327D01*
X41765010Y-105818464D01*
X40595973Y-106051000D01*
X39404027Y-106051000D01*
X38234990Y-105818464D01*
X37133778Y-105362327D01*
X36142713Y-104700119D01*
X35299881Y-103857287D01*
X34637673Y-102866222D01*
X34181536Y-101765010D01*
X33949000Y-100595973D01*
X33949000Y-99404027D01*
X34181536Y-98234990D01*
X34637673Y-97133778D01*
X35299881Y-96142713D01*
X36142713Y-95299881D01*
X37133778Y-94637673D01*
X38234990Y-94181536D01*
X39404027Y-93949000D01*
X40595973Y-93949000D01*
X41765010Y-94181536D01*
G37*
G36*
X166765010Y-94181536D02*
G01*
X167866222Y-94637673D01*
X168857287Y-95299881D01*
X169700119Y-96142713D01*
X170362327Y-97133778D01*
X170818464Y-98234990D01*
X171051000Y-99404027D01*
X171051000Y-100595973D01*
X170818464Y-101765010D01*
X170362327Y-102866222D01*
X169700119Y-103857287D01*
X168857287Y-104700119D01*
X167866222Y-105362327D01*
X166765010Y-105818464D01*
X165595973Y-106051000D01*
X164404027Y-106051000D01*
X163234990Y-105818464D01*
X162133778Y-105362327D01*
X161142713Y-104700119D01*
X160299881Y-103857287D01*
X159637673Y-102866222D01*
X159181536Y-101765010D01*
X158949000Y-100595973D01*
X158949000Y-99404027D01*
X159181536Y-98234990D01*
X159637673Y-97133778D01*
X160299881Y-96142713D01*
X161142713Y-95299881D01*
X162133778Y-94637673D01*
X163234990Y-94181536D01*
X164404027Y-93949000D01*
X165595973Y-93949000D01*
X166765010Y-94181536D01*
G37*
G36*
X97551000Y-92591000D02*
G01*
X95949000Y-92591000D01*
X95949000Y-87409000D01*
X97551000Y-87409000D01*
X97551000Y-92591000D01*
G37*
G36*
X89051000Y-92591000D02*
G01*
X87449000Y-92591000D01*
X87449000Y-87409000D01*
X89051000Y-87409000D01*
X89051000Y-92591000D01*
G37*
G36*
X184051000Y-92591000D02*
G01*
X182449000Y-92591000D01*
X182449000Y-87409000D01*
X184051000Y-87409000D01*
X184051000Y-92591000D01*
G37*
G36*
X192551000Y-92591000D02*
G01*
X190949000Y-92591000D01*
X190949000Y-87409000D01*
X192551000Y-87409000D01*
X192551000Y-92591000D01*
G37*
G36*
X62551000Y-87591000D02*
G01*
X60949000Y-87591000D01*
X60949000Y-82409000D01*
X62551000Y-82409000D01*
X62551000Y-87591000D01*
G37*
G36*
X54051000Y-87591000D02*
G01*
X52449000Y-87591000D01*
X52449000Y-82409000D01*
X54051000Y-82409000D01*
X54051000Y-87591000D01*
G37*
G36*
X149051000Y-87591000D02*
G01*
X147449000Y-87591000D01*
X147449000Y-82409000D01*
X149051000Y-82409000D01*
X149051000Y-87591000D01*
G37*
G36*
X157551000Y-87591000D02*
G01*
X155949000Y-87591000D01*
X155949000Y-82409000D01*
X157551000Y-82409000D01*
X157551000Y-87591000D01*
G37*
G36*
X111765010Y-69181536D02*
G01*
X112866222Y-69637673D01*
X113857287Y-70299881D01*
X114700119Y-71142713D01*
X115362327Y-72133778D01*
X115818464Y-73234990D01*
X116051000Y-74404027D01*
X116051000Y-75595973D01*
X115818464Y-76765010D01*
X115362327Y-77866222D01*
X114700119Y-78857287D01*
X113857287Y-79700119D01*
X112866222Y-80362327D01*
X111765010Y-80818464D01*
X110595973Y-81051000D01*
X109404027Y-81051000D01*
X108234990Y-80818464D01*
X107133778Y-80362327D01*
X106142713Y-79700119D01*
X105299881Y-78857287D01*
X104637673Y-77866222D01*
X104181536Y-76765010D01*
X103949000Y-75595973D01*
X103949000Y-74404027D01*
X104181536Y-73234990D01*
X104637673Y-72133778D01*
X105299881Y-71142713D01*
X106142713Y-70299881D01*
X107133778Y-69637673D01*
X108234990Y-69181536D01*
X109404027Y-68949000D01*
X110595973Y-68949000D01*
X111765010Y-69181536D01*
G37*
G36*
X176765010Y-69181536D02*
G01*
X177866222Y-69637673D01*
X178857287Y-70299881D01*
X179700119Y-71142713D01*
X180362327Y-72133778D01*
X180818464Y-73234990D01*
X181051000Y-74404027D01*
X181051000Y-75595973D01*
X180818464Y-76765010D01*
X180362327Y-77866222D01*
X179700119Y-78857287D01*
X178857287Y-79700119D01*
X177866222Y-80362327D01*
X176765010Y-80818464D01*
X175595973Y-81051000D01*
X174404027Y-81051000D01*
X173234990Y-80818464D01*
X172133778Y-80362327D01*
X171142713Y-79700119D01*
X170299881Y-78857287D01*
X169637673Y-77866222D01*
X169181536Y-76765010D01*
X168949000Y-75595973D01*
X168949000Y-74404027D01*
X169181536Y-73234990D01*
X169637673Y-72133778D01*
X170299881Y-71142713D01*
X171142713Y-70299881D01*
X172133778Y-69637673D01*
X173234990Y-69181536D01*
X174404027Y-68949000D01*
X175595973Y-68949000D01*
X176765010Y-69181536D01*
G37*
G36*
X206765010Y-69181536D02*
G01*
X207866222Y-69637673D01*
X208857287Y-70299881D01*
X209700119Y-71142713D01*
X210362327Y-72133778D01*
X210818464Y-73234990D01*
X211051000Y-74404027D01*
X211051000Y-75595973D01*
X210818464Y-76765010D01*
X210362327Y-77866222D01*
X209700119Y-78857287D01*
X208857287Y-79700119D01*
X207866222Y-80362327D01*
X206765010Y-80818464D01*
X205595973Y-81051000D01*
X204404027Y-81051000D01*
X203234990Y-80818464D01*
X202133778Y-80362327D01*
X201142713Y-79700119D01*
X200299881Y-78857287D01*
X199637673Y-77866222D01*
X199181536Y-76765010D01*
X198949000Y-75595973D01*
X198949000Y-74404027D01*
X199181536Y-73234990D01*
X199637673Y-72133778D01*
X200299881Y-71142713D01*
X201142713Y-70299881D01*
X202133778Y-69637673D01*
X203234990Y-69181536D01*
X204404027Y-68949000D01*
X205595973Y-68949000D01*
X206765010Y-69181536D01*
G37*
G36*
X81765010Y-69181536D02*
G01*
X82866222Y-69637673D01*
X83857287Y-70299881D01*
X84700119Y-71142713D01*
X85362327Y-72133778D01*
X85818464Y-73234990D01*
X86051000Y-74404027D01*
X86051000Y-75595973D01*
X85818464Y-76765010D01*
X85362327Y-77866222D01*
X84700119Y-78857287D01*
X83857287Y-79700119D01*
X82866222Y-80362327D01*
X81765010Y-80818464D01*
X80595973Y-81051000D01*
X79404027Y-81051000D01*
X78234990Y-80818464D01*
X77133778Y-80362327D01*
X76142713Y-79700119D01*
X75299881Y-78857287D01*
X74637673Y-77866222D01*
X74181536Y-76765010D01*
X73949000Y-75595973D01*
X73949000Y-74404027D01*
X74181536Y-73234990D01*
X74637673Y-72133778D01*
X75299881Y-71142713D01*
X76142713Y-70299881D01*
X77133778Y-69637673D01*
X78234990Y-69181536D01*
X79404027Y-68949000D01*
X80595973Y-68949000D01*
X81765010Y-69181536D01*
G37*
G36*
X41765010Y-64181536D02*
G01*
X42866222Y-64637673D01*
X43857287Y-65299881D01*
X44700119Y-66142713D01*
X45362327Y-67133778D01*
X45818464Y-68234990D01*
X46051000Y-69404027D01*
X46051000Y-70595973D01*
X45818464Y-71765010D01*
X45362327Y-72866222D01*
X44700119Y-73857287D01*
X43857287Y-74700119D01*
X42866222Y-75362327D01*
X41765010Y-75818464D01*
X40595973Y-76051000D01*
X39404027Y-76051000D01*
X38234990Y-75818464D01*
X37133778Y-75362327D01*
X36142713Y-74700119D01*
X35299881Y-73857287D01*
X34637673Y-72866222D01*
X34181536Y-71765010D01*
X33949000Y-70595973D01*
X33949000Y-69404027D01*
X34181536Y-68234990D01*
X34637673Y-67133778D01*
X35299881Y-66142713D01*
X36142713Y-65299881D01*
X37133778Y-64637673D01*
X38234990Y-64181536D01*
X39404027Y-63949000D01*
X40595973Y-63949000D01*
X41765010Y-64181536D01*
G37*
G36*
X136765010Y-64181536D02*
G01*
X137866222Y-64637673D01*
X138857287Y-65299881D01*
X139700119Y-66142713D01*
X140362327Y-67133778D01*
X140818464Y-68234990D01*
X141051000Y-69404027D01*
X141051000Y-70595973D01*
X140818464Y-71765010D01*
X140362327Y-72866222D01*
X139700119Y-73857287D01*
X138857287Y-74700119D01*
X137866222Y-75362327D01*
X136765010Y-75818464D01*
X135595973Y-76051000D01*
X134404027Y-76051000D01*
X133234990Y-75818464D01*
X132133778Y-75362327D01*
X131142713Y-74700119D01*
X130299881Y-73857287D01*
X129637673Y-72866222D01*
X129181536Y-71765010D01*
X128949000Y-70595973D01*
X128949000Y-69404027D01*
X129181536Y-68234990D01*
X129637673Y-67133778D01*
X130299881Y-66142713D01*
X131142713Y-65299881D01*
X132133778Y-64637673D01*
X133234990Y-64181536D01*
X134404027Y-63949000D01*
X135595973Y-63949000D01*
X136765010Y-64181536D01*
G37*
G36*
X206765010Y-39181536D02*
G01*
X207866222Y-39637673D01*
X208857287Y-40299881D01*
X209700119Y-41142713D01*
X210362327Y-42133778D01*
X210818464Y-43234990D01*
X211051000Y-44404027D01*
X211051000Y-45595973D01*
X210818464Y-46765010D01*
X210362327Y-47866222D01*
X209700119Y-48857287D01*
X208857287Y-49700119D01*
X207866222Y-50362327D01*
X206765010Y-50818464D01*
X205595973Y-51051000D01*
X204404027Y-51051000D01*
X203234990Y-50818464D01*
X202133778Y-50362327D01*
X201142713Y-49700119D01*
X200299881Y-48857287D01*
X199637673Y-47866222D01*
X199181536Y-46765010D01*
X198949000Y-45595973D01*
X198949000Y-44404027D01*
X199181536Y-43234990D01*
X199637673Y-42133778D01*
X200299881Y-41142713D01*
X201142713Y-40299881D01*
X202133778Y-39637673D01*
X203234990Y-39181536D01*
X204404027Y-38949000D01*
X205595973Y-38949000D01*
X206765010Y-39181536D01*
G37*
G36*
X111765010Y-39181536D02*
G01*
X112866222Y-39637673D01*
X113857287Y-40299881D01*
X114700119Y-41142713D01*
X115362327Y-42133778D01*
X115818464Y-43234990D01*
X116051000Y-44404027D01*
X116051000Y-45595973D01*
X115818464Y-46765010D01*
X115362327Y-47866222D01*
X114700119Y-48857287D01*
X113857287Y-49700119D01*
X112866222Y-50362327D01*
X111765010Y-50818464D01*
X110595973Y-51051000D01*
X109404027Y-51051000D01*
X108234990Y-50818464D01*
X107133778Y-50362327D01*
X106142713Y-49700119D01*
X105299881Y-48857287D01*
X104637673Y-47866222D01*
X104181536Y-46765010D01*
X103949000Y-45595973D01*
X103949000Y-44404027D01*
X104181536Y-43234990D01*
X104637673Y-42133778D01*
X105299881Y-41142713D01*
X106142713Y-40299881D01*
X107133778Y-39637673D01*
X108234990Y-39181536D01*
X109404027Y-38949000D01*
X110595973Y-38949000D01*
X111765010Y-39181536D01*
G37*
G36*
X136765010Y-34181536D02*
G01*
X137866222Y-34637673D01*
X138857287Y-35299881D01*
X139700119Y-36142713D01*
X140362327Y-37133778D01*
X140818464Y-38234990D01*
X141051000Y-39404027D01*
X141051000Y-40595973D01*
X140818464Y-41765010D01*
X140362327Y-42866222D01*
X139700119Y-43857287D01*
X138857287Y-44700119D01*
X137866222Y-45362327D01*
X136765010Y-45818464D01*
X135595973Y-46051000D01*
X134404027Y-46051000D01*
X133234990Y-45818464D01*
X132133778Y-45362327D01*
X131142713Y-44700119D01*
X130299881Y-43857287D01*
X129637673Y-42866222D01*
X129181536Y-41765010D01*
X128949000Y-40595973D01*
X128949000Y-39404027D01*
X129181536Y-38234990D01*
X129637673Y-37133778D01*
X130299881Y-36142713D01*
X131142713Y-35299881D01*
X132133778Y-34637673D01*
X133234990Y-34181536D01*
X134404027Y-33949000D01*
X135595973Y-33949000D01*
X136765010Y-34181536D01*
G37*
G36*
X166765010Y-34181536D02*
G01*
X167866222Y-34637673D01*
X168857287Y-35299881D01*
X169700119Y-36142713D01*
X170362327Y-37133778D01*
X170818464Y-38234990D01*
X171051000Y-39404027D01*
X171051000Y-40595973D01*
X170818464Y-41765010D01*
X170362327Y-42866222D01*
X169700119Y-43857287D01*
X168857287Y-44700119D01*
X167866222Y-45362327D01*
X166765010Y-45818464D01*
X165595973Y-46051000D01*
X164404027Y-46051000D01*
X163234990Y-45818464D01*
X162133778Y-45362327D01*
X161142713Y-44700119D01*
X160299881Y-43857287D01*
X159637673Y-42866222D01*
X159181536Y-41765010D01*
X158949000Y-40595973D01*
X158949000Y-39404027D01*
X159181536Y-38234990D01*
X159637673Y-37133778D01*
X160299881Y-36142713D01*
X161142713Y-35299881D01*
X162133778Y-34637673D01*
X163234990Y-34181536D01*
X164404027Y-33949000D01*
X165595973Y-33949000D01*
X166765010Y-34181536D01*
G37*
G36*
X71765010Y-34181536D02*
G01*
X72866222Y-34637673D01*
X73857287Y-35299881D01*
X74700119Y-36142713D01*
X75362327Y-37133778D01*
X75818464Y-38234990D01*
X76051000Y-39404027D01*
X76051000Y-40595973D01*
X75818464Y-41765010D01*
X75362327Y-42866222D01*
X74700119Y-43857287D01*
X73857287Y-44700119D01*
X72866222Y-45362327D01*
X71765010Y-45818464D01*
X70595973Y-46051000D01*
X69404027Y-46051000D01*
X68234990Y-45818464D01*
X67133778Y-45362327D01*
X66142713Y-44700119D01*
X65299881Y-43857287D01*
X64637673Y-42866222D01*
X64181536Y-41765010D01*
X63949000Y-40595973D01*
X63949000Y-39404027D01*
X64181536Y-38234990D01*
X64637673Y-37133778D01*
X65299881Y-36142713D01*
X66142713Y-35299881D01*
X67133778Y-34637673D01*
X68234990Y-34181536D01*
X69404027Y-33949000D01*
X70595973Y-33949000D01*
X71765010Y-34181536D01*
G37*
G36*
X41765010Y-34181536D02*
G01*
X42866222Y-34637673D01*
X43857287Y-35299881D01*
X44700119Y-36142713D01*
X45362327Y-37133778D01*
X45818464Y-38234990D01*
X46051000Y-39404027D01*
X46051000Y-40595973D01*
X45818464Y-41765010D01*
X45362327Y-42866222D01*
X44700119Y-43857287D01*
X43857287Y-44700119D01*
X42866222Y-45362327D01*
X41765010Y-45818464D01*
X40595973Y-46051000D01*
X39404027Y-46051000D01*
X38234990Y-45818464D01*
X37133778Y-45362327D01*
X36142713Y-44700119D01*
X35299881Y-43857287D01*
X34637673Y-42866222D01*
X34181536Y-41765010D01*
X33949000Y-40595973D01*
X33949000Y-39404027D01*
X34181536Y-38234990D01*
X34637673Y-37133778D01*
X35299881Y-36142713D01*
X36142713Y-35299881D01*
X37133778Y-34637673D01*
X38234990Y-34181536D01*
X39404027Y-33949000D01*
X40595973Y-33949000D01*
X41765010Y-34181536D01*
G37*
G36*
X97551000Y-32591000D02*
G01*
X95949000Y-32591000D01*
X95949000Y-27409000D01*
X97551000Y-27409000D01*
X97551000Y-32591000D01*
G37*
G36*
X89051000Y-32591000D02*
G01*
X87449000Y-32591000D01*
X87449000Y-27409000D01*
X89051000Y-27409000D01*
X89051000Y-32591000D01*
G37*
G36*
X192551000Y-32591000D02*
G01*
X190949000Y-32591000D01*
X190949000Y-27409000D01*
X192551000Y-27409000D01*
X192551000Y-32591000D01*
G37*
G36*
X184051000Y-32591000D02*
G01*
X182449000Y-32591000D01*
X182449000Y-27409000D01*
X184051000Y-27409000D01*
X184051000Y-32591000D01*
G37*
M02*
