M48
; DRILL file {KiCad (5.1.5)-3} date 10/03/2020 14:16:03
; FORMAT={-:-/ absolute / inch / decimal}
; #@! TF.CreationDate,2020-03-10T14:16:03+00:00
; #@! TF.GenerationSoftware,Kicad,Pcbnew,(5.1.5)-3
; #@! TF.FileFunction,Plated,1,2,PTH
FMAT,2
INCH
T1C0.0157
T2C0.0236
T3C0.2362
%
G90
G05
T1
X1.9989Y-2.0806
X2.0079Y-2.3228
X2.0079Y-2.3622
X2.0079Y-2.3622
X2.0079Y-2.3622
X2.0079Y-4.4882
X2.0079Y-4.5276
X2.0079Y-4.5669
X2.0472Y-2.3228
X2.0472Y-2.3622
X2.0472Y-4.4882
X2.0472Y-4.5276
X2.0472Y-4.5276
X2.0472Y-4.5669
X2.0713Y-4.5468
X2.0798Y-2.0459
X2.0803Y-4.6069
X2.0893Y-4.6669
X2.0972Y-2.3661
X2.0983Y-4.7269
X2.1011Y-2.3194
X2.1059Y-2.4268
X2.1073Y-4.787
X2.114Y-2.4877
X2.1152Y-4.8472
X2.1208Y-2.5487
X2.1217Y-4.9076
X2.1262Y-2.6099
X2.1268Y-4.9681
X2.1302Y-2.6711
X2.1305Y-5.0287
X2.1327Y-2.7325
X2.1329Y-5.0893
X2.1338Y-2.7939
X2.1338Y-5.15
X2.1339Y-2.8553
X2.1339Y-2.9167
X2.1339Y-2.9781
X2.1339Y-3.0395
X2.1339Y-3.1009
X2.1339Y-3.1623
X2.1339Y-3.2237
X2.1339Y-3.2851
X2.1339Y-3.3465
X2.1339Y-5.2107
X2.1339Y-5.2715
X2.1339Y-5.3322
X2.1339Y-5.3929
X2.1339Y-5.4536
X2.1339Y-5.5143
X2.1339Y-5.575
X2.1339Y-5.6357
X2.1339Y-5.6965
X2.1713Y-4.4035
X2.182Y-2.2848
X2.2244Y-2.0433
X2.2461Y-4.4094
X2.2953Y-2.0866
X2.3031Y-4.4547
X2.3283Y-4.5083
X2.3284Y-2.147
X2.3369Y-2.2066
X2.3371Y-4.5673
X2.3454Y-2.2661
X2.346Y-4.6262
X2.3539Y-2.3257
X2.3548Y-4.6852
X2.3624Y-2.3853
X2.3636Y-4.7441
X2.3706Y-2.4449
X2.3716Y-4.8032
X2.3775Y-2.5046
X2.3783Y-4.8624
X2.3832Y-2.5645
X2.3838Y-4.9218
X2.3877Y-2.6245
X2.3882Y-4.9812
X2.391Y-2.6846
X2.3912Y-5.0408
X2.3929Y-2.7448
X2.3931Y-5.1003
X2.3937Y-2.8049
X2.3937Y-5.16
X2.3937Y-2.8651
X2.3937Y-2.9253
X2.3937Y-2.9854
X2.3937Y-3.0456
X2.3937Y-3.1058
X2.3937Y-3.1659
X2.3937Y-3.2261
X2.3937Y-3.2863
X2.3937Y-3.3465
X2.3937Y-5.2196
X2.3937Y-5.2792
X2.3937Y-5.3388
X2.3937Y-5.3984
X2.3937Y-5.458
X2.3937Y-5.5176
X2.3937Y-5.5772
X2.3937Y-5.6368
X2.3937Y-5.6965
X3.5118Y-1.1824
X3.5118Y-3.5464
X3.5124Y-1.242
X3.513Y-1.3016
X3.5133Y-3.6057
X3.5136Y-1.3612
X3.5142Y-1.4208
X3.5147Y-3.665
X3.5148Y-1.4804
X3.5154Y-1.54
X3.516Y-1.5996
X3.5161Y-3.7243
X3.5166Y-1.6592
X3.5172Y-1.7187
X3.5175Y-3.7836
X3.5178Y-1.7783
X3.5186Y-1.8379
X3.5189Y-3.8429
X3.5198Y-1.8975
X3.5203Y-3.9022
X3.5217Y-3.9614
X3.5218Y-1.9571
X3.5231Y-4.0207
X3.5244Y-2.0166
X3.5246Y-4.08
X3.526Y-4.1393
X3.5274Y-4.1986
X3.5277Y-2.0761
X3.5291Y-4.2579
X3.531Y-4.3172
X3.5316Y-2.1356
X3.5333Y-4.3764
X3.5358Y-4.4357
X3.5361Y-2.195
X3.5387Y-4.4949
X3.5411Y-2.2544
X3.5418Y-4.5542
X3.5451Y-4.6134
X3.5462Y-2.3138
X3.5485Y-4.6726
X3.5512Y-2.3732
X3.5519Y-4.7318
X3.7716Y-3.5402
X3.7716Y-1.1798
X3.7723Y-1.2415
X3.7729Y-1.3032
X3.7731Y-3.6022
X3.7735Y-1.3649
X3.7741Y-1.4266
X3.7746Y-3.6641
X3.7748Y-1.4884
X3.7754Y-1.5501
X3.776Y-1.6118
X3.776Y-3.7261
X3.7766Y-1.6735
X3.7773Y-1.7352
X3.7775Y-3.7881
X3.7779Y-1.7969
X3.7788Y-1.8586
X3.779Y-3.85
X3.7805Y-3.912
X3.7805Y-1.9203
X3.7819Y-3.9739
X3.7829Y-1.982
X3.7834Y-4.0359
X3.7849Y-4.0979
X3.786Y-2.0436
X3.7864Y-4.1598
X3.788Y-4.2218
X3.7899Y-4.2837
X3.7921Y-4.3457
X3.7947Y-4.4076
X3.7976Y-4.4695
X3.8008Y-4.5314
X3.8043Y-4.5933
X3.8078Y-4.6551
X3.8189Y-2.0472
X3.8189Y-2.0866
X3.8583Y-2.0472
X3.8583Y-2.0866
X3.8583Y-4.685
X3.8583Y-4.7244
X3.8583Y-4.7638
X3.8976Y-4.685
X3.8976Y-4.7244
X3.8976Y-4.7638
X3.9277Y-2.3635
X3.9284Y-2.2922
X3.9291Y-2.2208
X5.6831Y-2.1752
X5.7185Y-2.1319
X5.7362Y-4.5276
X5.7362Y-4.5876
X5.7362Y-4.6476
X5.7387Y-4.7076
X5.7457Y-4.7672
X5.748Y-2.3622
X5.748Y-2.4016
X5.7574Y-4.8261
X5.7579Y-2.0925
X5.7735Y-4.8839
X5.7874Y-2.3622
X5.7874Y-2.4016
X5.7936Y-4.9405
X5.7992Y-2.0571
X5.8131Y-4.9973
X5.8293Y-5.0551
X5.8407Y-2.3665
X5.8422Y-5.1137
X5.8468Y-2.4277
X5.8517Y-2.489
X5.8518Y-5.173
X5.8554Y-2.5503
X5.8579Y-2.6118
X5.858Y-5.2327
X5.8593Y-2.6732
X5.8607Y-2.7347
X5.861Y-5.2926
X5.862Y-2.7961
X5.8628Y-5.3527
X5.8634Y-2.8576
X5.8647Y-2.9191
X5.8647Y-5.4127
X5.866Y-2.9805
X5.8666Y-5.4727
X5.8674Y-3.042
X5.8685Y-5.5327
X5.8687Y-3.1034
X5.87Y-3.1649
X5.8703Y-5.5927
X5.8714Y-3.2264
X5.8722Y-5.6527
X5.8727Y-3.2878
X5.874Y-3.3493
X5.8741Y-5.7127
X5.9961Y-4.5276
X5.9961Y-4.5872
X5.9961Y-4.6468
X5.9996Y-4.7063
X6.0099Y-4.765
X6.0236Y-4.4882
X6.0236Y-4.5276
X6.0236Y-4.5669
X6.0269Y-4.8222
X6.0474Y-4.8782
X6.0657Y-4.9349
X6.0735Y-2.147
X6.0814Y-4.9924
X6.082Y-2.2063
X6.0902Y-2.2657
X6.0946Y-5.0506
X6.0975Y-2.3252
X6.1037Y-2.3849
X6.1051Y-5.1093
X6.1089Y-2.4446
X6.113Y-5.1684
X6.1131Y-2.5044
X6.1161Y-2.5643
X6.1181Y-5.2278
X6.1181Y-2.6243
X6.1195Y-2.6842
X6.1208Y-5.2874
X6.1208Y-2.7441
X6.1221Y-2.8041
X6.1226Y-5.347
X6.1234Y-2.864
X6.1245Y-5.4066
X6.1247Y-2.924
X6.126Y-2.9839
X6.1263Y-5.4662
X6.1273Y-3.0439
X6.1282Y-5.5258
X6.1286Y-3.1038
X6.1299Y-3.1638
X6.1301Y-5.5854
X6.1312Y-3.2237
X6.1319Y-5.645
X6.1325Y-3.2837
X6.1338Y-5.7046
X6.1338Y-3.3436
X7.252Y-1.1841
X7.2521Y-3.5483
X7.2534Y-1.2439
X7.2544Y-3.6078
X7.2547Y-1.3037
X7.2561Y-1.3635
X7.2566Y-3.6673
X7.2574Y-1.4233
X7.2588Y-1.4831
X7.2589Y-3.7268
X7.2602Y-1.543
X7.2612Y-3.7863
X7.2615Y-1.6028
X7.2629Y-1.6626
X7.2635Y-3.8457
X7.2642Y-1.7224
X7.2656Y-1.7822
X7.2658Y-3.9052
X7.267Y-1.842
X7.2684Y-3.9647
X7.2686Y-1.9018
X7.2712Y-1.9616
X7.2739Y-4.024
X7.2746Y-2.0214
X7.2789Y-2.081
X7.2831Y-4.0828
X7.2841Y-2.1406
X7.2902Y-2.2002
X7.2959Y-4.1409
X7.2972Y-2.2596
X7.3046Y-2.3189
X7.312Y-2.3783
X7.3124Y-4.1981
X7.3311Y-4.2546
X7.3488Y-4.3115
X7.3622Y-4.685
X7.3622Y-4.7244
X7.3622Y-4.7638
X7.3635Y-4.3691
X7.3749Y-4.4276
X7.3831Y-4.4865
X7.388Y-4.5458
X7.3897Y-4.6053
X7.4016Y-4.685
X7.4016Y-4.7244
X7.4016Y-4.7638
X7.5117Y-3.5383
X7.5118Y-1.1782
X7.5132Y-1.2397
X7.514Y-3.5983
X7.5146Y-1.3013
X7.516Y-1.3629
X7.5163Y-3.6583
X7.5174Y-1.4245
X7.5186Y-3.7183
X7.5188Y-1.486
X7.5202Y-1.5476
X7.5209Y-3.7783
X7.5216Y-1.6092
X7.523Y-1.6708
X7.5233Y-3.8383
X7.5244Y-1.7323
X7.5256Y-3.8982
X7.5258Y-1.7939
X7.5272Y-1.8555
X7.5278Y-2.4919
X7.5284Y-3.9582
X7.5292Y-1.917
X7.5323Y-1.9785
X7.5355Y-4.0178
X7.5363Y-2.04
X7.5414Y-2.1014
X7.5475Y-2.1627
X7.5477Y-4.0766
X7.5548Y-2.226
X7.5648Y-4.1341
X7.5672Y-2.4894
X7.5837Y-4.191
X7.5984Y-2.1654
X7.5984Y-2.2047
X7.601Y-4.2485
X7.6065Y-2.487
X7.6157Y-4.3067
X7.6278Y-4.3655
X7.6372Y-4.4248
X7.6378Y-2.1654
X7.6378Y-2.2047
X7.644Y-4.4845
X7.6481Y-4.5443
X7.6496Y-4.6043
X7.6496Y-4.6644
X7.6496Y-4.7244
T2
X1.3976Y-5.1181
X1.4495Y-4.9928
X1.4495Y-5.2434
X1.5748Y-4.9409
X1.5748Y-5.2953
X1.7001Y-4.9928
X1.7001Y-5.2434
X1.752Y-5.1181
X4.1535Y-4.1339
X4.2054Y-4.0086
X4.2054Y-4.2591
X4.3307Y-3.9567
X4.3307Y-4.311
X4.456Y-4.0086
X4.456Y-4.2591
X4.5079Y-4.1339
X1.3976Y-2.7559
X1.4495Y-2.6306
X1.4495Y-2.8812
X1.5748Y-2.5787
X1.5748Y-2.9331
X1.7001Y-2.6306
X1.7001Y-2.8812
X1.752Y-2.7559
X7.8937Y-2.9528
X7.9456Y-2.8275
X7.9456Y-3.078
X8.0709Y-2.7756
X8.0709Y-3.1299
X8.1961Y-2.8275
X8.1961Y-3.078
X8.248Y-2.9528
X5.1378Y-3.937
X5.1897Y-3.8117
X5.1897Y-4.0623
X5.315Y-3.7598
X5.315Y-4.1142
X5.4402Y-3.8117
X5.4402Y-4.0623
X5.4921Y-3.937
X2.9724Y-5.315
X3.0243Y-5.1897
X3.0243Y-5.4402
X3.1496Y-5.1378
X3.1496Y-5.4921
X3.2749Y-5.1897
X3.2749Y-5.4402
X3.3268Y-5.315
X4.1535Y-1.7717
X4.2054Y-1.6464
X4.2054Y-1.8969
X4.3307Y-1.5945
X4.3307Y-1.9488
X4.456Y-1.6464
X4.456Y-1.8969
X4.5079Y-1.7717
X2.9724Y-2.9528
X3.0243Y-2.8275
X3.0243Y-3.078
X3.1496Y-2.7756
X3.1496Y-3.1299
X3.2749Y-2.8275
X3.2749Y-3.078
X3.3268Y-2.9528
X7.8937Y-5.315
X7.9456Y-5.1897
X7.9456Y-5.4402
X8.0709Y-5.1378
X8.0709Y-5.4921
X8.1961Y-5.1897
X8.1961Y-5.4402
X8.248Y-5.315
X4.1535Y-5.315
X4.2054Y-5.1897
X4.2054Y-5.4402
X4.3307Y-5.1378
X4.3307Y-5.4921
X4.456Y-5.1897
X4.456Y-5.4402
X4.5079Y-5.315
X4.1535Y-2.9528
X4.2054Y-2.8275
X4.2054Y-3.078
X4.3307Y-2.7756
X4.3307Y-3.1299
X4.456Y-2.8275
X4.456Y-3.078
X4.5079Y-2.9528
X5.1378Y-1.5748
X5.1897Y-1.4495
X5.1897Y-1.7001
X5.315Y-1.3976
X5.315Y-1.752
X5.4402Y-1.4495
X5.4402Y-1.7001
X5.4921Y-1.5748
X6.3189Y-3.937
X6.3708Y-3.8117
X6.3708Y-4.0623
X6.4961Y-3.7598
X6.4961Y-4.1142
X6.6213Y-3.8117
X6.6213Y-4.0623
X6.6732Y-3.937
X5.1378Y-5.1181
X5.1897Y-4.9928
X5.1897Y-5.2434
X5.315Y-4.9409
X5.315Y-5.2953
X5.4402Y-4.9928
X5.4402Y-5.2434
X5.4921Y-5.1181
X2.5787Y-3.937
X2.6306Y-3.8117
X2.6306Y-4.0623
X2.7559Y-3.7598
X2.7559Y-4.1142
X2.8812Y-3.8117
X2.8812Y-4.0623
X2.9331Y-3.937
X7.8937Y-4.1339
X7.9456Y-4.0086
X7.9456Y-4.2591
X8.0709Y-3.9567
X8.0709Y-4.311
X8.1961Y-4.0086
X8.1961Y-4.2591
X8.248Y-4.1339
X1.3976Y-3.937
X1.4495Y-3.8117
X1.4495Y-4.0623
X1.5748Y-3.7598
X1.5748Y-4.1142
X1.7001Y-3.8117
X1.7001Y-4.0623
X1.752Y-3.937
X6.7126Y-2.9528
X6.7645Y-2.8275
X6.7645Y-3.078
X6.8898Y-2.7756
X6.8898Y-3.1299
X7.015Y-2.8275
X7.015Y-3.078
X7.0669Y-2.9528
X7.8937Y-1.7717
X7.9456Y-1.6464
X7.9456Y-1.8969
X8.0709Y-1.5945
X8.0709Y-1.9488
X8.1961Y-1.6464
X8.1961Y-1.8969
X8.248Y-1.7717
X6.7126Y-5.315
X6.7645Y-5.1897
X6.7645Y-5.4402
X6.8898Y-5.1378
X6.8898Y-5.4921
X7.015Y-5.1897
X7.015Y-5.4402
X7.0669Y-5.315
X1.3976Y-1.5748
X1.4495Y-1.4495
X1.4495Y-1.7001
X1.5748Y-1.3976
X1.5748Y-1.752
X1.7001Y-1.4495
X1.7001Y-1.7001
X1.752Y-1.5748
X2.5787Y-1.5748
X2.6306Y-1.4495
X2.6306Y-1.7001
X2.7559Y-1.3976
X2.7559Y-1.752
X2.8812Y-1.4495
X2.8812Y-1.7001
X2.9331Y-1.5748
X5.1378Y-2.7559
X5.1897Y-2.6306
X5.1897Y-2.8812
X5.315Y-2.5787
X5.315Y-2.9331
X5.4402Y-2.6306
X5.4402Y-2.8812
X5.4921Y-2.7559
X6.3189Y-1.5748
X6.3708Y-1.4495
X6.3708Y-1.7001
X6.4961Y-1.3976
X6.4961Y-1.752
X6.6213Y-1.4495
X6.6213Y-1.7001
X6.6732Y-1.5748
T3
X6.8898Y-5.315
X1.5748Y-1.5748
X2.7559Y-1.5748
X5.315Y-2.7559
X6.4961Y-1.5748
X1.5748Y-5.1181
X4.3307Y-4.1339
X1.5748Y-2.7559
X8.0709Y-2.9528
X5.315Y-3.937
X3.1496Y-5.315
X4.3307Y-1.7717
X3.1496Y-2.9528
X8.0709Y-5.315
X4.3307Y-5.315
X4.3307Y-2.9528
X5.315Y-1.5748
X6.4961Y-3.937
X5.315Y-5.1181
X2.7559Y-3.937
X8.0709Y-4.1339
X1.5748Y-3.937
X6.8898Y-2.9528
X8.0709Y-1.7717
T0
M30
